<svg width="143" height="70" viewBox="0 0 143 70" fill="none" xmlns="http://www.w3.org/2000/svg">
<g clip-path="url(#clip0)">
<path d="M64.7825 33.0182C66.6038 34.1025 68.1149 35.6568 69.1647 37.5256C70.2144 39.3944 70.7661 41.5123 70.7645 43.6675V52.8797C70.7569 55.0353 70.1964 57.1512 69.1389 59.0159C68.0815 60.8807 66.5641 62.4291 64.7384 63.5065L56.9284 68.0968C55.0985 69.1659 53.0267 69.7263 50.9192 69.7224C48.8118 69.7184 46.742 69.1502 44.916 68.0743L37.1279 63.4524C36.4957 63.0561 35.8935 62.6119 35.3263 62.1235C34.9804 62.3839 34.6216 62.6259 34.2515 62.8488L26.437 67.4391C24.6098 68.5117 22.5398 69.076 20.433 69.076C18.3262 69.076 16.2562 68.5117 14.429 67.4391L6.62335 62.7947C4.80175 61.7092 3.29035 60.1542 2.23993 58.2848C1.18951 56.4154 0.63681 54.297 0.636963 52.141V42.9332C0.64592 40.7758 1.20891 38.6586 2.26957 36.7936C3.33022 34.9286 4.85133 33.3812 6.68061 32.3065L14.4907 27.7161C15.1051 27.3733 15.746 27.0825 16.4068 26.8467C16.4068 26.5854 16.376 26.3241 16.376 26.0584V16.8461C16.3831 14.6889 16.9453 12.5715 18.0062 10.7069C19.0671 8.84233 20.5892 7.29617 22.4197 6.22388L30.2253 1.62902C32.0545 0.557768 34.1266 -0.00393171 36.2345 2.07152e-05C38.3424 0.00397314 40.4124 0.57344 42.2377 1.65154L50.017 6.27794C51.8397 7.3599 53.3522 8.91289 54.4029 10.7812C55.4536 12.6495 56.0055 14.7675 56.0033 16.9227V26.1349C55.9926 26.6999 55.9514 27.2639 55.88 27.8242C56.26 27.9957 56.6306 28.1881 56.9901 28.4008L64.7825 33.0182ZM68.8483 43.663C68.8486 41.8519 68.3847 40.0724 67.5028 38.5019C66.6209 36.9313 65.3519 35.6246 63.8222 34.712L56.0298 30.0946C55.8359 29.982 55.6421 29.8739 55.4395 29.7748C54.8661 29.4816 54.2655 29.2477 53.6467 29.0766C52.3602 28.715 51.0166 28.6168 49.693 28.7876C48.3694 28.9585 47.0918 29.395 45.9335 30.0721L38.1235 34.6625C37.868 34.8156 37.6213 34.9733 37.3878 35.1445C38.6178 36.6274 39.4939 38.3824 39.9471 40.2709C40.0864 40.8634 40.1822 41.4657 40.2335 42.0728V42.1314V42.2215C40.2335 42.4737 40.2643 42.726 40.2643 42.9828V52.1905C40.2578 55.3881 39.0351 58.4576 36.8548 60.7496L36.7888 60.8126C37.1987 61.1519 37.6298 61.4634 38.0794 61.7451L45.8718 66.367C47.4073 67.2689 49.1471 67.7434 50.9178 67.7434C52.6885 67.7434 54.4282 67.2689 55.9637 66.367L63.7782 61.7766C65.3112 60.8705 66.5852 59.5693 67.4732 58.0027C68.3613 56.4362 68.8323 54.659 68.8395 52.8482L68.8483 43.663ZM54.096 16.9227C54.0958 15.1112 53.6312 13.3314 52.7485 11.7608C51.8659 10.1902 50.596 8.88378 49.0655 7.97173L41.2774 3.36786C39.7415 2.46517 38.0009 1.99013 36.2293 1.99013C34.4578 1.99013 32.7172 2.46517 31.1812 3.36786L23.3755 7.91767C21.8394 8.8225 20.5624 10.1237 19.6719 11.6912C18.7814 13.2587 18.3087 15.0378 18.301 16.8506V26.0584C18.301 26.1935 18.301 26.3196 18.301 26.4458C18.3218 27.0998 18.4059 27.7502 18.5521 28.3873C18.8609 29.7666 19.4437 31.0662 20.2644 32.2053C21.0851 33.3445 22.1261 34.2989 23.3227 35.0093L31.1151 39.6312C31.3045 39.7438 31.5028 39.852 31.701 39.9556C32.2747 38.1217 33.2494 36.4456 34.551 35.0544V35.0274C34.9874 34.5693 35.4588 34.1475 35.9606 33.766C36.3339 33.4831 36.7221 33.2214 37.1235 32.9822L44.9292 28.3963C47.6681 26.7906 50.9141 26.349 53.9682 27.1665C53.9991 26.8467 54.0299 26.4503 54.0343 26.1485L54.096 16.9227ZM38.3613 43.0098C38.3613 42.9287 38.3613 42.8476 38.3613 42.7665C37.6331 42.8867 36.8965 42.947 36.1588 42.9467C35.136 42.954 34.1164 42.8299 33.1238 42.5773H33.0974C32.4693 42.4101 31.8563 42.1886 31.2649 41.9151C30.8949 41.7395 30.5204 41.5548 30.1548 41.3385L22.3624 36.7031C20.9565 35.8685 19.7311 34.7506 18.7603 33.4172C17.7896 32.0838 17.0938 30.5626 16.7152 28.9459L16.6888 28.8288C16.262 28.9945 15.8469 29.1902 15.4466 29.4144L7.6365 34.0003C6.10268 34.9059 4.82779 36.2068 3.93894 37.7734C3.0501 39.34 2.57836 41.1175 2.57076 42.9287V52.141C2.57137 53.9529 3.03663 55.733 3.9201 57.3036C4.80357 58.8742 6.07436 60.1804 7.60566 61.0919L15.3937 65.7138C16.928 66.6192 18.6682 67.0958 20.4396 67.0958C22.211 67.0958 23.9512 66.6192 25.4855 65.7138L33.278 61.146C33.5291 61.0018 33.7713 60.8352 34.0136 60.6685C34.536 60.2907 35.024 59.8655 35.4717 59.3981C37.3006 57.4746 38.3286 54.9005 38.3393 52.2175L38.3613 43.0098ZM38.0794 40.7259C37.6848 39.143 36.9471 37.6712 35.921 36.4193C34.8043 37.6216 33.9672 39.0659 33.4718 40.6448C34.9854 41.0005 36.5553 41.0265 38.0794 40.7214V40.7259Z" fill="#020202"/>
<path d="M63.8222 34.7121C65.3519 35.6247 66.6209 36.9314 67.5028 38.502C68.3847 40.0725 68.8486 41.852 68.8483 43.6631V52.8753C68.8412 54.6861 68.3701 56.4633 67.4821 58.0298C66.594 59.5964 65.32 60.8976 63.787 61.8038L55.9725 66.3941C54.4371 67.296 52.6973 67.7706 50.9266 67.7706C49.1559 67.7706 47.4162 67.296 45.8807 66.3941L38.0883 61.7722C37.6387 61.4905 37.2075 61.179 36.7976 60.8397L36.8637 60.7767C39.0439 58.4847 40.2666 55.4152 40.2732 52.2176V43.0099C40.2732 42.7531 40.2731 42.5008 40.2423 42.2486V42.1585V42.1089C40.191 41.5018 40.0953 40.8995 39.956 40.307C39.5028 38.4185 38.6266 36.6636 37.3967 35.1806C37.6302 35.0094 37.8768 34.8517 38.1323 34.6986L45.938 30.1082C47.0962 29.4311 48.3738 28.9946 49.6974 28.8237C51.0211 28.6529 52.3647 28.7511 53.6511 29.1127C54.27 29.2838 54.8706 29.5177 55.444 29.8109C55.6466 29.91 55.8404 30.0181 56.0342 30.1307L63.8222 34.7121Z" fill="#020202"/>
<path d="M34.5555 35.0543C33.2538 36.4455 32.2791 38.1216 31.7054 39.9555C31.5072 39.8519 31.309 39.7438 31.1196 39.6312L23.3227 35.0093C22.1269 34.2984 21.0868 33.3438 20.2669 32.2046C19.447 31.0655 18.8648 29.7661 18.5565 28.3873C18.4089 27.7503 18.3233 27.0999 18.301 26.4457C18.301 26.3196 18.301 26.1934 18.301 26.0583V16.8506C18.3088 15.0377 18.7815 13.2587 19.6719 11.6912C20.5624 10.1236 21.8395 8.82245 23.3756 7.91762L31.1812 3.33177C32.7172 2.42908 34.4578 1.95404 36.2293 1.95404C38.0009 1.95404 39.7415 2.42908 41.2775 3.33177L49.0655 7.95366C50.596 8.86571 51.8659 10.1722 52.7486 11.7428C53.6312 13.3133 54.0958 15.0931 54.096 16.9046V26.1124C54.096 26.4142 54.0608 26.8106 54.0299 27.1304C50.9758 26.3129 47.7298 26.7546 44.9909 28.3602L37.172 32.9641C36.7706 33.2033 36.3823 33.465 36.0091 33.7479C35.5072 34.1295 35.0359 34.5512 34.5995 35.0093V35.0363L34.5555 35.0543Z" fill="#F9B70F"/>
<path d="M38.3526 42.762C38.3526 42.8431 38.3526 42.9242 38.3526 43.0053V52.2175C38.3407 54.9011 37.3111 57.4753 35.4806 59.3981C35.0329 59.8655 34.5449 60.2907 34.0225 60.6685C33.7802 60.8352 33.5379 61.0018 33.2869 61.146L25.468 65.7363C23.9337 66.6417 22.1935 67.1183 20.4221 67.1183C18.6507 67.1183 16.9105 66.6417 15.3762 65.7363L7.58813 61.0964C6.05683 60.1849 4.78604 58.8787 3.90257 57.3081C3.0191 55.7375 2.55384 53.9574 2.55322 52.1455V42.9332C2.56184 41.1195 3.03588 39.3399 3.92794 37.7723C4.82001 36.2046 6.09884 34.904 7.63659 34.0003L15.4466 29.4144C15.847 29.1902 16.2621 28.9945 16.6888 28.8288L16.7153 28.9459C17.0939 30.5626 17.7897 32.0838 18.7604 33.4172C19.7311 34.7506 20.9566 35.8685 22.3625 36.7031L30.1505 41.325C30.5161 41.5412 30.8905 41.7259 31.2606 41.9016C31.8519 42.1751 32.465 42.3966 33.093 42.5638H33.1195C34.112 42.8164 35.1317 42.9405 36.1545 42.9332C36.8905 42.9362 37.6255 42.879 38.3526 42.762Z" fill="white"/>
<path d="M73.8818 10.5254H70.8508V21.3677H69.3154V10.5254H66.2844V9.13043H73.8818V10.5254Z" fill="black"/>
<path d="M80.3601 19.6003C80.0366 20.1974 79.5566 20.6861 78.9202 21.0666C78.2837 21.4417 77.6075 21.6293 76.8915 21.6293C75.7353 21.6293 74.8019 21.2647 74.0912 20.5355C73.3805 19.8064 73.0252 18.85 73.0252 17.6664C73.0252 16.5674 73.3593 15.6427 74.0276 14.8924C74.7277 14.1104 75.6319 13.7194 76.7404 13.7194C77.87 13.7194 78.7637 14.0999 79.4214 14.8607C80.0472 15.5846 80.3601 16.5146 80.3601 17.6506V17.8963H74.497C74.497 18.6307 74.7144 19.2278 75.1493 19.6875C75.5842 20.1472 76.1464 20.377 76.8358 20.377C77.8754 20.377 78.6629 19.9068 79.1986 18.9663L80.3601 19.6003ZM78.944 16.8263C78.8539 16.2662 78.6152 15.8145 78.228 15.471C77.8462 15.1276 77.3662 14.9558 76.7881 14.9558C76.2312 14.9558 75.7406 15.1276 75.3164 15.471C74.8921 15.8092 74.6189 16.2609 74.497 16.8263H78.944Z" fill="black"/>
<path d="M88.9147 21.3677H87.2202L84.754 18.348L82.3754 21.3677H80.6331L83.9744 17.3415L81.3014 13.9493H82.98L84.754 16.3349L86.6951 13.9493H88.4374L85.6848 17.3415L88.9147 21.3677Z" fill="black"/>
<path d="M96.634 21.3677H95.202V18.1737H91.5346V21.3677H90.1026V13.9493H91.5346V16.8897H95.202V13.9493H96.634V21.3677Z" fill="black"/>
<path d="M106.446 17.6664C106.446 18.7708 106.056 19.7086 105.276 20.4801C104.496 21.2462 103.55 21.6293 102.436 21.6293C101.317 21.6293 100.37 21.2462 99.596 20.4801C98.8269 19.7086 98.4424 18.7708 98.4424 17.6664C98.4424 16.5674 98.8269 15.6348 99.596 14.8687C100.37 14.1025 101.317 13.7194 102.436 13.7194C103.555 13.7194 104.502 14.1025 105.276 14.8687C106.056 15.6348 106.446 16.5674 106.446 17.6664ZM105.006 17.6664C105.006 16.9531 104.754 16.3455 104.25 15.8435C103.751 15.3363 103.147 15.0826 102.436 15.0826C101.725 15.0826 101.121 15.3363 100.622 15.8435C100.124 16.3455 99.8744 16.9531 99.8744 17.6664C99.8744 18.3903 100.124 19.0059 100.622 19.5131C101.121 20.0151 101.725 20.2661 102.436 20.2661C103.147 20.2661 103.751 20.0124 104.25 19.5052C104.754 18.998 105.006 18.385 105.006 17.6664Z" fill="black"/>
<path d="M87.3105 32.4955C87.3105 34.4875 86.7298 36.0568 85.5683 37.2034C84.4386 38.3183 82.9298 38.8757 81.0417 38.8757C80.0393 38.8757 79.0396 38.593 78.0425 38.0277V36.2602C78.9229 37.0739 79.9703 37.4808 81.1849 37.4808C82.5373 37.4808 83.6192 37.0819 84.4307 36.284C85.2474 35.4861 85.6929 34.3633 85.7672 32.9156H79.9677V31.5523H85.7195C85.5603 30.2895 85.0883 29.2962 84.3034 28.5723C83.5291 27.8642 82.5665 27.5102 81.4156 27.5102C80.8322 27.5102 80.2382 27.6106 79.6336 27.8114C78.9706 28.0333 78.4456 28.3292 78.0584 28.6991V26.9396C78.4031 26.7071 78.8964 26.5116 79.5381 26.3531C80.1798 26.1946 80.8057 26.1153 81.4156 26.1153C83.1605 26.1153 84.5739 26.6912 85.6558 27.8431C86.759 29.0161 87.3105 30.5669 87.3105 32.4955Z" fill="#F9B70F"/>
<path d="M95.8811 38.6142H93.9956L90.8294 35.3805V38.6142H89.3974V31.1957H90.8294V34.1837L93.6535 31.1957H95.539L92.0545 34.7385L95.8811 38.6142Z" fill="#F9B70F"/>
<path d="M102.479 38.3843C101.869 38.7119 101.169 38.8757 100.378 38.8757C99.2594 38.8757 98.318 38.4953 97.5542 37.7344C96.7958 36.9683 96.4166 36.0277 96.4166 34.9129C96.4166 33.8138 96.7905 32.8812 97.5383 32.1151C98.2914 31.3489 99.2116 30.9658 100.299 30.9658C101.195 30.9658 101.922 31.1296 102.479 31.4572V33.0107C101.964 32.514 101.248 32.2657 100.331 32.2657C99.6465 32.2657 99.0552 32.5298 98.5566 33.0582C98.0634 33.5813 97.8168 34.2048 97.8168 34.9287C97.8168 35.6526 98.0528 36.2708 98.5248 36.7833C99.0021 37.2906 99.5776 37.5442 100.251 37.5442C101.078 37.5442 101.821 37.3064 102.479 36.8309V38.3843Z" fill="#F9B70F"/>
<path d="M110.858 38.6142H109.418V32.5272H105.902V38.6142H104.47V31.1957H110.858V38.6142Z" fill="#F9B70F"/>
<path d="M120.002 36.8467C119.678 37.4438 119.198 37.9326 118.562 38.313C117.925 38.6881 117.249 38.8757 116.533 38.8757C115.377 38.8757 114.443 38.5111 113.733 37.782C113.022 37.0528 112.667 36.0964 112.667 34.9129C112.667 33.8138 113.001 32.8891 113.669 32.1388C114.369 31.3568 115.273 30.9658 116.382 30.9658C117.512 30.9658 118.405 31.3463 119.063 32.1071C119.689 32.831 120.002 33.761 120.002 34.897V35.1427H114.138C114.138 35.8771 114.356 36.4742 114.791 36.9339C115.226 37.3936 115.788 37.6234 116.477 37.6234C117.517 37.6234 118.304 37.1532 118.84 36.2127L120.002 36.8467ZM118.585 34.0727C118.495 33.5126 118.257 33.0609 117.869 32.7174C117.488 32.374 117.008 32.2023 116.43 32.2023C115.873 32.2023 115.382 32.374 114.958 32.7174C114.534 33.0556 114.26 33.5074 114.138 34.0727H118.585Z" fill="#F9B70F"/>
<path d="M129.344 34.9129C129.344 36.0594 129.015 37.0079 128.357 37.7582C127.705 38.5032 126.867 38.8757 125.843 38.8757C124.793 38.8757 123.918 38.3817 123.218 37.3936V42.9971H121.786V31.1957H123.218V32.4797C123.929 31.4704 124.804 30.9658 125.843 30.9658C126.856 30.9658 127.692 31.341 128.349 32.0913C129.012 32.8416 129.344 33.7821 129.344 34.9129ZM127.88 34.897C127.88 34.1256 127.66 33.4889 127.22 32.9869C126.785 32.4849 126.217 32.234 125.517 32.234C124.87 32.234 124.311 32.4955 123.839 33.0186C123.372 33.5364 123.139 34.1625 123.139 34.897C123.139 35.6737 123.356 36.3157 123.791 36.823C124.242 37.346 124.828 37.6076 125.549 37.6076C126.244 37.6076 126.806 37.354 127.236 36.8467C127.665 36.3342 127.88 35.6843 127.88 34.897Z" fill="#F9B70F"/>
<path d="M135.623 32.5272H133.698V38.6142H132.266V32.5272H130.341V31.1957H135.623V32.5272Z" fill="#F9B70F"/>
<path d="M100.345 55.403H98.8097V44.5765H93.0818V55.403H91.5464V43.1657H100.345V55.403Z" fill="black"/>
<path d="M110.356 51.7017C110.356 52.8483 110.027 53.7968 109.369 54.5471C108.717 55.2921 107.879 55.6646 106.855 55.6646C105.805 55.6646 104.93 55.1705 104.23 54.1825V59.786H102.798V47.9846H104.23V49.2685C104.941 48.2593 105.816 47.7547 106.855 47.7547C107.868 47.7547 108.703 48.1299 109.361 48.8802C110.024 49.6305 110.356 50.571 110.356 51.7017ZM108.892 51.6859C108.892 50.9144 108.672 50.2777 108.231 49.7758C107.797 49.2738 107.229 49.0228 106.529 49.0228C105.882 49.0228 105.322 49.2844 104.85 49.8075C104.384 50.3253 104.15 50.9514 104.15 51.6859C104.15 52.4626 104.368 53.1046 104.803 53.6118C105.253 54.1349 105.84 54.3965 106.561 54.3965C107.256 54.3965 107.818 54.1428 108.247 53.6356C108.677 53.1231 108.892 52.4732 108.892 51.6859Z" fill="black"/>
<path d="M119.602 51.7017C119.602 52.806 119.212 53.7439 118.433 54.5153C117.653 55.2815 116.707 55.6646 115.593 55.6646C114.474 55.6646 113.527 55.2815 112.753 54.5153C111.984 53.7439 111.599 52.806 111.599 51.7017C111.599 50.6027 111.984 49.6701 112.753 48.9039C113.527 48.1378 114.474 47.7547 115.593 47.7547C116.712 47.7547 117.658 48.1378 118.433 48.9039C119.212 49.6701 119.602 50.6027 119.602 51.7017ZM118.162 51.7017C118.162 50.9884 117.91 50.3808 117.407 49.8788C116.908 49.3716 116.303 49.1179 115.593 49.1179C114.882 49.1179 114.277 49.3716 113.779 49.8788C113.28 50.3808 113.031 50.9884 113.031 51.7017C113.031 52.4256 113.28 53.0412 113.779 53.5484C114.277 54.0504 114.882 54.3014 115.593 54.3014C116.303 54.3014 116.908 54.0477 117.407 53.5405C117.91 53.0332 118.162 52.4203 118.162 51.7017Z" fill="black"/>
<path d="M128.372 53.6356C128.048 54.2327 127.568 54.7214 126.932 55.1019C126.295 55.477 125.619 55.6646 124.903 55.6646C123.747 55.6646 122.814 55.3 122.103 54.5708C121.392 53.8417 121.037 52.8853 121.037 51.7017C121.037 50.6027 121.371 49.678 122.039 48.9277C122.739 48.1457 123.644 47.7547 124.752 47.7547C125.882 47.7547 126.775 48.1351 127.433 48.896C128.059 49.6199 128.372 50.5498 128.372 51.6859V51.9316H122.509C122.509 52.666 122.726 53.2631 123.161 53.7228C123.596 54.1825 124.158 54.4123 124.847 54.4123C125.887 54.4123 126.675 53.9421 127.21 53.0015L128.372 53.6356ZM126.956 50.8616C126.865 50.3015 126.627 49.8497 126.24 49.5063C125.858 49.1628 125.378 48.9911 124.8 48.9911C124.243 48.9911 123.752 49.1628 123.328 49.5063C122.904 49.8445 122.631 50.2962 122.509 50.8616H126.956Z" fill="black"/>
<path d="M136.767 55.403H134.882L131.716 52.1693V55.403H130.284V47.9846H131.716V50.9725L134.54 47.9846H136.425L132.941 51.5274L136.767 55.403Z" fill="black"/>
<path d="M142.45 49.3161H140.525V55.403H139.093V49.3161H137.168V47.9846H142.45V49.3161Z" fill="black"/>
</g>
<defs>
<clipPath id="clip0">
<rect width="142.561" height="70" fill="white"/>
</clipPath>
</defs>
</svg>
