<svg width="79" height="70" viewBox="0 0 79 70" fill="none" xmlns="http://www.w3.org/2000/svg">
<path fill-rule="evenodd" clip-rule="evenodd" d="M9.71159 37.28C9.71159 38.3243 9.25907 39.2293 8.38886 39.9951C7.51865 40.7261 6.43958 41.109 5.22128 41.109H0V40.4476H0.939831V0.661424H0V6.10352e-05H5.22128C6.47439 6.10352e-05 7.51865 0.382955 8.38886 1.11393C9.25907 1.84491 9.71159 2.74994 9.71159 3.79419V8.84143C9.71159 10.4774 8.84137 11.6261 7.10094 12.3223C8.84137 13.0533 9.71159 14.202 9.71159 15.8031V37.28ZM6.71805 10.5122V2.15819C6.71805 1.74049 6.57882 1.3924 6.26554 1.11393C5.98707 0.835467 5.60418 0.661424 5.22128 0.661424H3.93337V12.009H5.22128C5.63899 12.009 5.98707 11.8698 6.26554 11.5565C6.57882 11.278 6.71805 10.9299 6.71805 10.5122ZM6.71805 38.9508V14.1671C6.71805 13.7494 6.57882 13.4014 6.26554 13.1229C5.98707 12.8444 5.60418 12.6704 5.22128 12.6704H3.93337V40.4128H5.22128C5.63899 40.4128 5.98707 40.2736 6.26554 39.9603C6.57882 39.7166 6.71805 39.3685 6.71805 38.9508Z" fill="#532F2E"/>
<path fill-rule="evenodd" clip-rule="evenodd" d="M20.537 41.1089H11.3823V40.4475H12.3222V0.661363H11.3823V0H16.2555V0.661363H15.3157V40.4475H17.5434V33.2422H20.537V41.1089Z" fill="#532F2E"/>
<path fill-rule="evenodd" clip-rule="evenodd" d="M32.3371 0.661363H31.3972V37.454C31.3972 38.4983 30.9447 39.4033 30.0745 40.1343C29.2043 40.8652 28.1252 41.2481 26.9069 41.2481C25.6886 41.2481 24.6096 40.8652 23.7394 40.1343C22.8691 39.4033 22.4166 38.4983 22.4166 37.454V0.661363H21.4768V0H26.35V0.661363H25.4102V39.1248C25.4102 39.5425 25.5494 39.8906 25.8627 40.1691C26.1412 40.4475 26.4892 40.6216 26.9069 40.6216C27.3246 40.6216 27.6727 40.4823 27.9512 40.1691C28.2297 39.8906 28.4037 39.5077 28.4037 39.1248V0.661363H27.4639V0H32.3371V0.661363Z" fill="#532F2E"/>
<path fill-rule="evenodd" clip-rule="evenodd" d="M46.0518 41.1089H41.2134V40.4475H42.1185V7.65788L40.03 41.1089H37.5934L35.1568 7.65788V40.4475H36.0618V41.1089H33.2771V40.4475H34.2169V0.661363H33.2771V0H37.2453L39.8211 35.3307L42.0837 0H46.0518V0.661363H45.112V40.4475H46.0518V41.1089Z" fill="#532F2E"/>
<path d="M20.955 56.2506C20.6417 56.3202 20.398 56.3899 20.2936 56.4595C18.6576 57.7822 17.2304 59.279 15.9425 60.915L17.2652 55.7633C17.1608 56.1114 15.316 56.0766 15.2463 56.4595C14.4109 59.7663 13.5755 63.0383 12.7053 66.3451L12.8794 66.2755C12.8794 66.2755 14.2021 65.9274 14.4109 65.8578C14.585 65.823 14.7242 65.7534 14.759 65.6489C16.0121 62.8294 17.7178 60.3232 19.8063 58.1303C19.3886 59.5922 18.9709 61.0194 18.6576 62.5162C18.588 62.9339 18.4139 63.7693 20.6069 62.8991C20.7809 62.8294 21.6511 61.994 22.1384 61.4371C22.2429 61.3327 22.1036 61.1934 21.9992 61.2282C21.6859 61.3675 21.2682 61.4719 20.8505 61.6111C21.2682 59.6619 21.7904 57.7126 22.3473 55.7981L20.955 56.2506Z" fill="#532F2E"/>
<path d="M10.6515 55.2412C10.5123 55.3456 9.99018 56.1462 9.53767 57.1208L9.39844 57.4341C9.39844 57.4341 9.6421 57.3297 9.71171 57.3297C9.81614 57.2949 10.5819 57.086 10.5819 57.086C10.8604 57.0164 11.3825 56.912 11.4521 56.7727C11.9047 55.7633 11.9395 55.6937 12.7052 54.545C12.4268 54.6494 11.661 54.8583 11.6262 54.8583C11.2433 54.9627 10.8952 55.0323 10.6515 55.2412Z" fill="#532F2E"/>
<path d="M9.50281 65.9274C9.25915 66.3103 9.0503 66.6932 8.84145 67.0065C9.15472 63.9781 10.0597 61.0542 11.104 58.1651C10.93 58.6176 8.94587 58.4436 8.77183 58.9309C7.48391 62.5162 6.37004 66.1363 6.40485 69.9652C6.82255 69.826 7.24025 69.6867 7.65796 69.5475C8.14528 69.4083 8.63259 69.3038 8.73702 69.1994C10.0249 67.633 11.1388 65.997 12.1483 64.2218C11.835 64.7439 9.81609 65.4401 9.50281 65.9274Z" fill="#532F2E"/>
<path d="M71.3577 40.4823C71.6362 39.9254 71.8798 39.3337 72.0887 38.7419C71.671 38.8812 71.4273 38.9856 70.9052 39.09C70.3483 39.1944 69.9306 39.264 69.8261 39.5077C69.7217 39.7514 69.6173 40.0298 69.5129 40.2735C68.8167 41.7703 67.7724 43.1974 66.4497 44.1372C65.8928 43.6847 66.2757 42.362 66.763 41.1437C66.7978 41.1089 66.8326 41.0393 66.8674 41.0045C66.2409 41.2133 65.8232 41.3177 65.2662 41.5962C65.0922 41.6658 64.9181 41.7355 64.8485 41.8051C63.3517 43.7892 61.7854 45.634 59.9057 47.2352C59.2791 47.1308 58.9659 46.7131 58.9311 45.9473C60.6019 44.8682 61.5069 43.2322 61.5069 41.0045C61.5069 41.0393 61.5069 41.0045 61.5069 41.0045C60.8455 41.2481 60.1494 41.457 59.488 41.7006C59.3836 41.7355 59.2791 41.7703 59.2443 41.7703C57.9564 42.362 57.1906 42.8841 56.1812 43.8936C56.6685 43.4063 57.9564 43.6499 58.4785 43.1278C58.757 42.8493 59.0007 42.6405 59.2443 42.4316C59.1051 43.8588 58.6178 45.0423 57.678 45.9473C57.4691 46.0169 57.2951 46.0517 57.0862 46.1213C57.2603 45.5644 57.3995 45.0075 57.5039 44.4505C57.4343 44.729 55.6939 44.6594 55.6242 44.9378C55.2065 46.8871 54.5104 48.6972 53.5705 50.4028C53.118 50.4724 52.6307 50.5072 52.4219 50.7857C52.0738 51.2034 51.7953 51.5515 51.482 51.8647C50.1941 51.2034 52.1434 47.6529 52.4219 46.7131C52.8048 45.46 53.1877 44.1024 53.6054 42.7101C54.0927 42.1183 54.58 41.5266 55.0673 40.9C56.8077 40.3431 58.5482 39.8558 60.3234 39.4381C59.1747 39.7166 57.8868 39.4033 56.7381 39.6469C56.4248 39.7166 56.1116 39.821 55.7635 39.8906C56.8425 38.2894 57.6431 36.6186 57.5387 35.1218C57.1558 35.2611 56.7729 35.3655 56.39 35.5047C55.9723 35.6091 55.5546 35.7484 55.485 35.818C54.0579 37.1059 53.1877 38.916 52.4915 40.7956C50.2985 41.457 48.1752 42.188 46.0519 43.0582C47.0962 42.6405 48.5929 43.267 49.6372 42.8493C50.4726 42.5012 51.2732 42.188 52.1086 41.8747C51.9693 42.3272 51.8301 42.7449 51.6909 43.1974C50.7162 44.3461 49.7416 45.4252 49.0454 46.2258C47.4442 48.1402 45.7386 49.9503 44.2419 51.9344C43.7893 51.8995 43.3716 51.7951 43.128 51.5167C42.2926 50.542 43.4761 48.9408 44.6596 47.8618C44.7292 47.9662 44.764 48.0706 44.7988 48.2447C44.8336 48.3491 46.8177 47.4789 46.8525 47.5485C46.6436 47.1308 46.2956 46.9567 45.843 46.9567C45.843 46.9567 45.7734 46.9567 45.7386 46.9567C45.1817 46.9915 44.5203 47.2352 43.9634 47.5485L43.9286 47.5833C43.6153 47.7573 43.3368 47.9314 43.128 48.1054C41.9097 49.0104 39.2642 52.1084 42.0141 52.6653C42.6407 52.7698 43.302 52.3869 43.7893 52.5261C42.9539 53.6748 42.1533 54.8931 41.5268 56.2506H41.5616C43.0236 55.8329 45.2861 55.4152 46.0171 53.8836C46.7133 52.4217 46.3304 52.0736 45.6342 52.004C45.9823 51.5167 46.3304 51.0641 46.7133 50.5768C48.036 48.9408 49.4631 47.4092 50.8207 45.8081C50.1593 47.4789 48.0708 51.5863 49.2543 52.4217C50.0201 52.9786 51.1339 52.5957 52.1434 51.9692C52.1434 51.9692 52.1782 51.9692 52.2478 51.8996C52.5611 51.6907 52.8744 51.447 53.1877 51.2382C53.4313 51.1686 53.7098 51.1338 53.9186 51.0641C54.4408 50.9249 54.754 50.8901 54.8237 50.7857C55.5546 49.637 56.1464 48.4187 56.6337 47.1656C57.121 47.5833 57.7128 48.0706 57.9564 48.1054C58.4089 48.175 58.8614 47.7921 59.314 47.6877C59.7665 47.5833 60.2538 47.4441 60.6715 47.2352C60.7063 47.2352 60.7759 47.2004 60.95 47.096C62.1334 46.4694 63.1429 45.5992 64.0131 44.5898C63.9087 45.1119 64.1175 45.4948 65.0574 45.2859C65.127 45.2859 65.0574 45.2859 65.127 45.2859C65.5795 45.2163 66.763 44.9378 67.1807 44.7638C67.3199 44.729 67.4243 44.6594 67.5288 44.6246C67.2155 45.3555 66.9022 46.0865 66.5541 46.8175C63.2125 49.1497 60.1842 51.9344 57.7128 55.1716C56.1464 57.1904 51.3776 64.2914 54.4408 66.5888C54.8585 66.902 55.3806 66.9716 55.9027 66.902C55.8679 66.902 55.8679 66.9368 55.8331 66.9368C55.9027 66.902 55.9375 66.902 56.0071 66.8672C56.7033 66.7628 57.3995 66.4843 57.9564 66.2059H57.9912C58.026 66.2059 58.0609 66.1711 58.0957 66.1711H58.0608C61.4721 64.3958 62.9689 58.722 64.5352 55.4152C65.9972 52.3173 67.3895 49.2193 68.7819 46.1213C71.4273 44.2069 74.5949 42.2228 77.9365 40.8652C74.943 41.9791 72.0191 43.3715 69.2344 45.0423C70.035 43.5803 70.6964 42.0139 71.3577 40.4823ZM63.3169 54.1621C62.2379 56.4595 61.1588 58.7568 60.0449 61.0542C59.2095 62.7598 58.5134 64.6395 57.2254 65.997C54.406 64.7439 57.1558 59.0005 58.3045 57.0512C60.219 53.7444 62.9689 50.9249 65.9276 48.4535C65.0574 50.4028 64.222 52.2824 63.3169 54.1621Z" fill="#532F2E"/>
<path d="M78.0408 40.9349C78.18 40.9001 78.3192 40.8305 78.4585 40.7957C78.3192 40.7957 78.18 40.8653 78.0408 40.9349Z" fill="#532F2E"/>
<path d="M34.8086 45.8429C35.1915 45.0423 35.8528 43.9632 36.375 42.8842C35.1915 43.5455 33.8688 43.998 32.4764 44.2069C31.7802 46.1562 31.3625 48.3491 30.8752 50.0199C30.736 50.5072 30.5967 50.9945 30.4575 51.4471C30.2139 51.8996 30.005 52.3521 29.7613 52.8394C29.6917 53.0134 29.5873 53.1527 29.5177 53.3267C29.4133 53.1875 29.274 53.0831 29.0652 52.9786C28.9956 52.909 27.1507 53.5356 27.0115 53.6748C24.7141 56.1462 23.3914 59.0353 22.6604 62.3073C23.1825 62.1333 23.7395 61.9592 24.2616 61.7852C24.4704 61.7156 24.6445 61.6808 24.7141 61.646C26.3849 60.6017 27.7076 59.1049 28.8563 57.4341C28.4386 59.0005 28.0557 60.6017 27.6728 62.2029C27.7424 61.8548 29.6221 61.8896 29.7265 61.5067C30.5619 57.9214 31.467 54.371 32.5112 50.8205C33.277 49.1497 34.0428 47.4789 34.8086 45.8429ZM25.0274 60.2884C25.5843 58.2695 26.4197 56.4247 27.6032 54.7191C27.9165 54.6146 28.4734 54.545 28.8911 54.4406C27.8469 56.4943 26.6286 58.6176 25.0274 60.2884Z" fill="#532F2E"/>
<path d="M39.4033 49.4282C39.0553 49.5326 38.742 49.637 38.3939 49.7763C37.6977 51.1686 35.8181 54.197 34.739 55.5545C35.0871 54.0577 35.644 52.004 36.2358 50.5073L34.1821 51.099C33.9036 51.5863 33.3118 53.2919 32.9986 54.5102C32.5809 56.2159 32.1284 57.5386 32.0239 59.1398C32.4416 59.0005 32.8593 58.8613 33.3118 58.7221C33.6947 58.6176 34.008 58.548 34.0776 58.4784C34.8086 57.817 36.3402 55.833 37.106 54.7887C37.0016 55.1716 36.9319 55.4849 36.8971 55.7285C36.7579 56.3203 36.6883 57.0861 36.5142 57.643L38.3243 57.0861C38.3939 57.0861 38.4287 57.0513 38.4635 57.0513C38.4983 57.0513 38.4983 57.0165 38.5331 57.0165C38.916 55.1716 39.9603 50.9946 40.4128 49.1845C40.4128 49.1845 40.4128 49.1845 40.4128 49.1497C40.378 49.1497 40.3084 49.1845 40.2736 49.1845C39.9951 49.2193 39.6818 49.3238 39.4033 49.4282Z" fill="#532F2E"/>
<path d="M6.40479 70L8.66734 69.3039L9.01543 68.8513C9.01543 68.8513 7.65789 68.8165 7.62308 68.8165L6.40479 70Z" fill="#532F2E"/>
<path d="M9.57258 66.1711L9.43335 66.0666L9.60739 65.7534L12.1136 64.2566L11.7307 64.8831L10.2688 66.1711H9.57258Z" fill="#532F2E"/>
<path d="M15.2114 56.5987L15.3158 56.2854L17.2999 55.7633L17.1607 56.3202L15.8728 56.7379L15.2114 56.5987Z" fill="#532F2E"/>
</svg>
