<svg width="206" height="70" fill="none" xmlns="http://www.w3.org/2000/svg"><path d="M70.89 34.626c0 19.124-15.869 34.627-35.445 34.627S0 53.75 0 34.626C0 15.503 15.87 0 35.445 0c19.576 0 35.446 15.503 35.446 34.626z" fill="#EDDBAE"/><path fill-rule="evenodd" clip-rule="evenodd" d="M27.998 28.136h1.436v11.558h10.141v12.959H38.14V41.095h-8.706v11.558h-1.436V28.136z" fill="#000"/><path fill-rule="evenodd" clip-rule="evenodd" d="M39.809 13.569h1.435v14.686l.335.327 6.909 6.75H32.639l.001-.001 6.91-6.75.259-.253v-14.76zm-3.868 20.52h9.246l-4.623-4.516-4.623 4.517z" fill="#000"/><path d="M94.455 15.341c2.028 0 4.056.417 6.085 1.25l-.68 3.673-.641.235a11.753 11.753 0 00-2.643-1.407c-.907-.338-1.774-.508-2.602-.508-1.307 0-2.348.352-3.122 1.055S89.69 21.163 89.69 22.1c0 .912.387 1.667 1.16 2.266.775.573 1.99 1.238 3.644 1.993 1.44.677 2.602 1.29 3.483 1.836a7.643 7.643 0 012.321 2.188c.641.886.961 1.954.961 3.204a6.562 6.562 0 01-1.161 3.75c-.747 1.12-1.815 2.02-3.202 2.696-1.361.652-2.923.977-4.684.977-1.174 0-2.389-.143-3.643-.43a16.44 16.44 0 01-3.563-1.25l.52-3.985.52-.234a10.505 10.505 0 003.243 2.07c1.201.443 2.31.665 3.323.665 1.388 0 2.496-.352 3.323-1.055.827-.73 1.24-1.59 1.24-2.579 0-.99-.4-1.784-1.2-2.383-.8-.625-2.028-1.316-3.683-2.07-1.415-.652-2.562-1.238-3.443-1.759a8.042 8.042 0 01-2.282-2.149c-.614-.885-.92-1.953-.92-3.204 0-1.354.373-2.591 1.12-3.711.748-1.12 1.789-1.993 3.123-2.618 1.334-.651 2.856-.977 4.564-.977zm20.552.235c2.589 0 4.577.651 5.965 1.953 1.414 1.277 2.122 3.126 2.122 5.548 0 2.813-.894 5.04-2.682 6.681-1.762 1.641-4.19 2.461-7.286 2.461h-2.843v.587l.201 7.892h-4.204l.28-7.54-.28-17.543 8.727-.04zm-.68 13.518c1.467-.287 2.575-.899 3.322-1.836.774-.964 1.161-2.24 1.161-3.83 0-1.562-.413-2.721-1.241-3.476-.8-.756-2.028-1.16-3.683-1.212l-3.402.118-.161 10.158 4.004.078zm28.549 8.166l.241.351-.281 3.087h-15.172l.28-7.54-.28-17.543h15.252l.241.351-.321 3.087-6.085-.156-4.883.039-.121 7.306 4.644.078 4.244-.117.28.312-.32 3.087-4.524-.117-4.364.078-.04 3.243.12 4.61 4.884.039 6.205-.195zm13.592-21.919c2.616 0 4.924.573 6.926 1.72l-.761 3.555-.4.117c-1.788-1.354-3.763-2.032-5.925-2.032-2.348 0-4.15.782-5.404 2.345-1.228 1.536-1.842 3.841-1.842 6.915 0 3.152.627 5.548 1.882 7.189 1.254 1.64 3.042 2.461 5.364 2.461a10.45 10.45 0 003.323-.547 11.876 11.876 0 003.082-1.602l.401.235-.321 3.672c-2.295 1.094-4.563 1.641-6.805 1.641-3.603 0-6.379-1.094-8.327-3.282-1.948-2.188-2.922-5.3-2.922-9.337 0-4.168 1.014-7.384 3.042-9.65 2.055-2.267 4.951-3.4 8.687-3.4zm26.764.626l-.24 3.047-4.644-.235h-2.161l-.2 14.027.2 7.892h-4.164l.241-7.54-.201-14.379h-2.161l-4.724.235-.28-.352.32-3.047h17.774l.24.351zm15.898 14.69c1.815 2.839 3.963 5.873 6.445 9.103l-.04.469c-1.281.416-2.602.69-3.963.82l-.48-.312c-2.215-3.543-4.003-6.538-5.364-8.986h-4.364v1.055l.2 7.892h-4.203l.28-7.54-.28-17.543 8.727-.04c2.589 0 4.59.639 6.005 1.915 1.414 1.25 2.121 3.048 2.121 5.392 0 1.667-.453 3.177-1.361 4.532-.88 1.328-2.121 2.41-3.723 3.243zm-7.686-2.188l4.404.117c2.695-.807 4.043-2.605 4.043-5.392 0-1.458-.414-2.552-1.241-3.281-.801-.73-2.028-1.12-3.683-1.173l-3.403.118-.12 9.61zM84.852 55.301l-.019-2.685.732-.072-.02 2.685.01 2.084h-.732l.029-2.012zm1.596-.56a41.768 41.768 0 001.844 2.427v.093c-.12.041-.254.072-.4.093a7.69 7.69 0 01-.275.052l-.076-.041c-.766-.989-1.378-1.839-1.834-2.55v-.073l1.397-1.752.247-.426h.817l-1.72 2.178zm4.166-2.26c.589 0 1.045.211 1.368.633.33.415.494 1.002.494 1.762 0 .802-.171 1.424-.513 1.867-.342.435-.83.653-1.464.653-.595 0-1.057-.208-1.387-.622-.323-.422-.484-1.013-.484-1.773 0-.802.17-1.42.513-1.856.348-.442.839-.664 1.472-.664zm-.048.581c-.4 0-.703.149-.912.446-.21.297-.314.732-.314 1.306 0 .664.102 1.161.304 1.493.21.332.51.498.903.498.399 0 .703-.145.912-.436.21-.29.314-.725.314-1.306 0-.657-.105-1.154-.314-1.493a.979.979 0 00-.893-.508zm3.236-.498h.741l.238.726.865 2.55h.057l.94-2.58.228-.696h.742l.418 4.749h-.609l-.094-1.493-.19-2.146h-.058l-1.168 3.1h-.542l-1.083-3.1h-.048l-.209 2.011-.123 1.628h-.58l.475-4.749zm8.879 3.059l.019 1.69h-.741l.038-1.607-.019-2.55h-1.929l-.019 2.467.019 1.69h-.74l.037-1.607-.028-3.142h3.382l-.019 3.059zm4.442-.394l.028 2.084h-.741l.029-2.012-.019-2.177h-1.131l-.038.384c-.082.96-.181 1.707-.295 2.24-.114.532-.256.922-.427 1.17a1.089 1.089 0 01-.656.478l-.19.02-.123-.632c.234-.09.421-.245.56-.466.14-.222.251-.557.333-1.006.082-.45.158-1.096.228-1.939l.076-.788-.01-.02h2.414l-.038 2.664zm1.86-.322v.021c0 .58.121 1.027.361 1.338.241.31.583.466 1.027.466.221 0 .443-.038.665-.114a2.26 2.26 0 00.608-.342l.076.062-.114.705a2.82 2.82 0 01-1.33.353c-.621 0-1.109-.215-1.464-.643-.354-.435-.532-1.03-.532-1.783 0-.76.178-1.365.532-1.815.355-.449.833-.674 1.435-.674.507 0 .9.16 1.178.477.279.311.418.747.418 1.307 0 .186-.012.363-.038.529l-.095.103-2.727.01zm1.264-1.845c-.317 0-.583.114-.798.342-.209.221-.349.536-.418.944l2.1-.042.019-.145c0-.352-.08-.622-.238-.809-.152-.193-.374-.29-.665-.29zm2.85 2.239l-.019-2.685.732-.072-.019 2.685.01 2.084h-.732l.028-2.012zm1.597-.56a41.76 41.76 0 001.843 2.427v.093a2.14 2.14 0 01-.399.093 7.998 7.998 0 01-.276.052l-.076-.041c-.766-.989-1.377-1.839-1.833-2.55v-.073l1.396-1.752.247-.426h.817l-1.719 2.178zm5.416-2.125l-.057.55-.799-.021h-.532l-.019 2.084.029 2.084h-.741l.028-2.012-.019-2.156h-.532l-.808.02-.047-.072.047-.529h3.393l.057.052zm2.141-.135c.411 0 .735.111.969.332.241.221.361.526.361.913 0 .117-.019.542-.057 1.275a43.765 43.765 0 00-.057 1.285c0 .152.022.26.066.322.045.055.121.083.229.083a.997.997 0 00.323-.063l.076.073-.076.467a1.291 1.291 0 01-.542.207.723.723 0 01-.475-.228c-.114-.131-.174-.311-.181-.54h-.066c-.342.38-.681.64-1.017.778-.424 0-.757-.114-.998-.342-.234-.235-.351-.553-.351-.954 0-.304.073-.546.218-.725.152-.18.374-.308.666-.384l1.539-.394.009-.674c0-.27-.066-.477-.199-.622-.127-.145-.311-.218-.551-.218a1.4 1.4 0 00-.646.166c-.216.11-.447.284-.694.519l-.076-.042-.095-.59c.526-.43 1.067-.644 1.625-.644zm-.76 2.997a.543.543 0 00-.276.176c-.057.07-.085.176-.085.321 0 .228.057.408.171.54a.63.63 0 00.475.186c.348 0 .703-.245 1.064-.736l.028-.85-1.377.363zm7.632 2.934l-.523.062-.095-1.161h-3.401l.038-2.012-.029-2.737h.732l-.029 2.665.019 1.462 1.901.01.019-1.4-.029-2.737h.732l-.019 2.665.009 1.472h.675v1.71zm1.067-3.111l-.038-2.716.731-.041-.019 3.597h.057l1.967-3.577h.741l-.028 2.654.028 2.095h-.731l.028-1.96v-1.669h-.057l-1.995 3.629h-.722l.038-2.012zm7.746-.072l.019 2.084h-.694l.019-1.752h-.826a21.15 21.15 0 01-1.026 1.752l-.086.062a1.443 1.443 0 01-.636-.145l-.01-.093a19.83 19.83 0 001.207-1.7c-.317-.118-.555-.291-.713-.52-.152-.227-.228-.514-.228-.86 0-.449.143-.812.428-1.088.291-.277.674-.415 1.149-.415l1.416.01-.019 2.665zm-1.349-2.146c-.285 0-.51.086-.675.259-.164.173-.247.408-.247.705 0 .27.067.494.2.674.139.173.342.287.608.342l.807-.031v-1.928l-.693-.021zm8.163 3.628v1.7l-.504.063-.085-1.161h-3.155l-.085 1.099-.514.062V56.71h.352c.19-.13.339-.314.447-.549.114-.235.205-.567.275-.995.076-.429.146-1.027.209-1.794l.067-.809h2.375l-.019 2.665.01 1.482h.627zm-1.311-1.41l-.019-2.187h-1.112l-.038.384c-.083.96-.187 1.683-.314 2.166-.12.477-.294.826-.522 1.047h1.986l.019-1.41zm2.395 0l-.038-2.716.732-.041-.019 3.597h.057l1.967-3.577h.741l-.029 2.654.029 2.095h-.732l.029-1.96v-1.669h-.057l-1.996 3.629h-.722l.038-2.012zm6.701-.466c.608.166.913.542.913 1.13 0 .435-.156.781-.466 1.037-.31.255-.728.383-1.254.383-.241 0-.472-.03-.694-.093a1.74 1.74 0 01-.56-.26l.133-.632.057-.03c.145.117.307.21.484.28.184.061.374.093.57.093.304 0 .551-.077.741-.229a.733.733 0 00.285-.6.673.673 0 00-.18-.488c-.114-.131-.282-.218-.504-.26h-.931l-.057-.061.048-.519.893.01a.863.863 0 00.37-.32.854.854 0 00.143-.478c0-.207-.07-.363-.209-.466-.133-.11-.33-.166-.589-.166-.368 0-.738.117-1.112.352l-.085-.03.057-.654a2.265 2.265 0 011.178-.321c.449 0 .804.107 1.064.321.266.207.399.49.399.85 0 .249-.06.477-.181.684-.12.2-.291.356-.513.467zm3.482-2.354c.412 0 .735.111.969.332.241.221.361.526.361.913 0 .117-.019.542-.057 1.275a43.765 43.765 0 00-.057 1.285c0 .152.023.26.067.322.044.055.12.083.228.083a.992.992 0 00.323-.063l.076.073-.076.467a1.286 1.286 0 01-.542.207.725.725 0 01-.475-.228c-.114-.131-.174-.311-.18-.54h-.067c-.342.38-.681.64-1.016.778-.425 0-.757-.114-.998-.342-.234-.235-.352-.553-.352-.954 0-.304.073-.546.219-.725.152-.18.374-.308.665-.384l1.539-.394.01-.674c0-.27-.067-.477-.2-.622-.126-.145-.31-.218-.551-.218a1.41 1.41 0 00-.646.166c-.215.11-.447.284-.694.519l-.076-.042-.095-.59c.526-.43 1.068-.644 1.625-.644zm-.76 2.997a.547.547 0 00-.276.176c-.057.07-.085.176-.085.321 0 .228.057.408.171.54a.63.63 0 00.475.186c.348 0 .703-.245 1.064-.736l.029-.85-1.378.363zm3.651-.177l-.038-2.716.732-.041-.019 3.597h.057l1.967-3.577h.741l-.029 2.654.029 2.095h-.732l.029-1.96v-1.669h-.057l-1.996 3.629h-.722l.038-2.012zm3.05-4.395a1.29 1.29 0 01-.513.674 1.548 1.548 0 01-.845.228c-.324 0-.599-.076-.827-.228a1.322 1.322 0 01-.504-.674l.38-.29h.105c.063.234.165.407.304.518.139.103.326.155.561.155.234 0 .418-.052.551-.155.139-.11.244-.284.313-.519h.095l.38.29zm5.355 4.323l.028 2.084h-.741l.028-2.012v-.072l-2.099.01.028 2.074h-.741l.038-2.012-.029-2.737h.732l-.019 2.043 2.09.01-.019-2.053h.732l-.028 2.665zm3.45-.954v.519l-2.29.362-.076-.083v-.518l2.3-.352.066.072zm4.425 1.348l.019 1.69h-.742l.038-1.607-.019-2.55h-1.928l-.019 2.467.019 1.69h-.742l.038-1.607-.028-3.142h3.383l-.019 3.059zm3.567-3.11c.545 0 .963.197 1.254.59.292.395.437.958.437 1.69 0 .83-.183 1.473-.551 1.929-.367.45-.89.674-1.567.674a3.83 3.83 0 01-.827-.094l.019 1.929h-.741l.047-3.93-.047-2.685.722-.072-.01.674h.067c.222-.2.421-.353.599-.457.177-.103.376-.186.598-.248zm-.332 4.281c.418 0 .741-.159.969-.476.228-.319.342-.771.342-1.359 0-.573-.092-1.012-.276-1.316-.177-.304-.434-.456-.769-.456a1.13 1.13 0 00-.589.176c-.191.117-.393.3-.609.55l-.009 1.316.009 1.296c.311.18.621.27.932.27zm4.758-4.313c.589 0 1.045.211 1.368.633.33.415.495 1.002.495 1.762 0 .802-.172 1.424-.514 1.867-.342.435-.829.653-1.463.653-.595 0-1.058-.208-1.387-.622-.323-.422-.485-1.013-.485-1.773 0-.802.171-1.42.513-1.856.349-.442.84-.664 1.473-.664zm-.047.581c-.399 0-.703.149-.913.446-.209.297-.313.732-.313 1.306 0 .664.101 1.161.304 1.493.209.332.51.498.903.498.399 0 .703-.145.912-.436.209-.29.313-.725.313-1.306 0-.657-.104-1.154-.313-1.493a.98.98 0 00-.893-.508zm3.348 1.845v.021c0 .58.12 1.027.361 1.338.241.31.583.466 1.026.466.222 0 .443-.038.665-.114a2.23 2.23 0 00.608-.342l.076.062-.114.705a2.818 2.818 0 01-1.33.353c-.621 0-1.108-.215-1.463-.643-.355-.435-.532-1.03-.532-1.783 0-.76.177-1.365.532-1.815.355-.449.833-.674 1.435-.674.506 0 .899.16 1.178.477.278.311.418.747.418 1.307 0 .186-.013.363-.038.529l-.095.103-2.727.01zm1.264-1.845c-.317 0-.583.114-.799.342-.209.221-.348.536-.418.944l2.1-.042.019-.145c0-.352-.079-.622-.237-.809-.152-.193-.374-.29-.665-.29zm2.85 2.239l-.019-2.685.732-.072-.019 2.685.009 2.084h-.732l.029-2.012zm1.596-.56a41.789 41.789 0 001.844 2.427v.093a2.17 2.17 0 01-.4.093 8.626 8.626 0 01-.275.052l-.076-.041c-.767-.989-1.378-1.839-1.834-2.55v-.073l1.397-1.752.247-.426h.817l-1.72 2.178zm5.416-2.125l-.057.55-.798-.021h-.532l-.019 2.084.028 2.084h-.741l.029-2.012-.019-2.156h-.532l-.808.02-.048-.072.048-.529h3.392l.057.052zm2.229-.135c.589 0 1.045.211 1.368.633.33.415.494 1.002.494 1.762 0 .802-.171 1.424-.513 1.867-.342.435-.83.653-1.463.653-.595 0-1.058-.208-1.387-.622-.323-.422-.485-1.013-.485-1.773 0-.802.171-1.42.513-1.856.349-.442.84-.664 1.473-.664zm-.047.581c-.4 0-.704.149-.913.446-.209.297-.313.732-.313 1.306 0 .664.101 1.161.304 1.493.209.332.51.498.903.498.399 0 .703-.145.912-.436.209-.29.313-.725.313-1.306 0-.657-.104-1.154-.313-1.493a.98.98 0 00-.893-.508zm5.241 1.773c.646.152.969.529.969 1.13 0 .92-.659 1.379-1.976 1.379-.38 0-.799-.01-1.255-.031l.038-2.012-.028-2.737 1.511-.01c.481 0 .852.1 1.111.3.26.194.39.478.39.85 0 .257-.067.481-.2.675a1.26 1.26 0 01-.56.456zm.066-1.037c0-.484-.342-.726-1.026-.726-.253 0-.453.004-.599.01l-.009 1.546.874.03c.254-.048.444-.145.57-.29a.86.86 0 00.19-.57zm-1.007 3.038c.393 0 .694-.076.903-.228.209-.152.313-.373.313-.664 0-.463-.288-.729-.864-.798l-.989.01v.073l.019 1.576c.203.02.409.03.618.03z" fill="#000"/></svg>