<svg width="246" height="70" fill="none" xmlns="http://www.w3.org/2000/svg"><path d="M76.751 58.765c-.124.247-.248.247-.496.247-.124 0-.248 0-.372-.123-.124-.124-.124-.247-.124-.37 0-.124 0-.247.124-.37l1.736-2.347-1.612-2.098c-.124-.124-.124-.247-.124-.37 0-.124 0-.248.124-.371s.248-.123.372-.123c.248 0 .372.123.496.246l1.612 2.223c.124.123.124.247.124.37s0 .247-.124.37l-1.736 2.716zm3.472-.123c0 .123 0 .247-.124.37-.124.124-.248.124-.372.124s-.248 0-.372-.124c-.124-.123-.124-.247-.124-.37v-5.185c0-.124 0-.247.124-.37.124-.124.248-.124.372-.124s.248 0 .372.123c.124.124.124.247.124.37v5.186zm.496-2.346c-.124-.123-.124-.247-.124-.37 0-.124 0-.247.124-.37l1.612-2.223c.124-.247.248-.247.496-.247.124 0 .248 0 .372.124.124.123.124.247.124.37 0 .124 0 .247-.124.37l-1.612 2.1 1.736 2.345c.124.123.124.247.124.37 0 .124 0 .247-.124.37-.124.124-.248.124-.372.124-.248 0-.372-.123-.496-.247l-1.736-2.716zm9.795 2.716c-.124.124-.248.124-.372.124s-.248 0-.372-.124c-.124-.123-.124-.247-.124-.37v-3.95l-3.224 3.95c-.248.37-.496.494-.744.494-.124 0-.248 0-.372-.124-.124-.123-.124-.247-.124-.37v-5.185c0-.124 0-.247.124-.37.124-.124.248-.124.372-.124s.248 0 .372.123c.124.124.124.247.124.37v3.951l3.224-3.95c.248-.37.496-.494.744-.494.124 0 .248 0 .372.123.124.124.124.247.124.37v5.186c0 .123 0 .247-.124.37zm6.572-3.58c-.248.247-.496.37-.868.494.992.123 1.364.617 1.364 1.481 0 1.112-.868 1.729-2.728 1.729h-1.736c-.124 0-.248-.124-.372-.124-.124-.123-.124-.246-.124-.37v-4.938c0-.124 0-.247.124-.37.124-.124.248-.124.372-.124h1.736c1.736 0 2.603.494 2.603 1.605 0 0-.123.37-.371.617zm-1.984.247c.372 0 .62-.123.868-.247.248-.123.372-.37.372-.74 0-.618-.496-.865-1.364-.865h-1.24v1.852h1.364zm-1.364 2.47h1.24c.992 0 1.612-.371 1.612-.989 0-.617-.496-.864-1.488-.864h-1.24v1.852h-.124zm11.035.863c-.124.124-.248.124-.372.124s-.248 0-.372-.124c-.124-.123-.124-.247-.124-.37v-3.95l-3.224 3.95c-.248.37-.496.494-.744.494-.124 0-.248 0-.372-.124-.124-.123-.124-.247-.124-.37v-5.185c0-.124 0-.247.124-.37.124-.124.248-.124.372-.124s.248 0 .372.123c.124.124.124.247.124.37v3.951l3.224-3.95c.248-.37.496-.494.744-.494.124 0 .248 0 .372.123.124.124.124.247.124.37v5.186c0 .123 0 .247-.124.37zm6.2-.37c0 .123 0 .247-.124.37-.124.124-.248.124-.372.124s-.248 0-.372-.124c-.124-.123-.124-.247-.124-.37v-5.185c0-.124 0-.247.124-.37.124-.124.248-.124.372-.124s.248 0 .372.123c.124.124.124.247.124.37v5.186zm.62-2.346c-.124-.123-.124-.247-.124-.37s0-.247.124-.37l1.983-2.346c.124-.247.372-.247.496-.247s.248 0 .372.123c.124.124.124.247.124.37 0 .124 0 .248-.124.371l-1.983 2.099 2.107 2.346c.124.123.124.247.124.37s0 .247-.124.37c-.124.124-.248.124-.372.124-.248 0-.372-.124-.496-.247l-2.107-2.593zm4.959-2.592c.62-.618 1.364-.864 2.356-.864.992 0 1.736.246 2.356.864.62.617.868 1.358.868 2.222 0 .864-.248 1.605-.868 2.222s-1.364.864-2.356.864c-.992 0-1.736-.247-2.356-.864-.62-.617-.868-1.358-.868-2.222 0-.864.248-1.605.868-2.222zm.868 3.827c.372.37.868.617 1.488.617s1.116-.247 1.488-.617c.372-.37.62-.864.62-1.605a2.04 2.04 0 00-.62-1.482 2.058 2.058 0 00-1.488-.617 2.06 2.06 0 00-1.488.617c-.372.37-.62.865-.62 1.605 0 .618.124 1.111.62 1.482zm7.316 1.111c0 .123 0 .247-.124.37-.124.124-.248.124-.372.124s-.248 0-.372-.124c-.124-.123-.124-.247-.124-.37v-5.185c0-.124 0-.247.124-.37.124-.124.248-.124.372-.124s.248 0 .372.123l.372.37 1.984 2.593 1.984-2.592c.248-.37.496-.494.743-.494.124 0 .248 0 .372.123.124.124.124.247.124.37v5.186c0 .123 0 .247-.124.37-.124.124-.248.124-.372.124s-.247 0-.371-.124c-.124-.123-.124-.247-.124-.37v-3.827l-1.736 2.099c-.124.123-.248.246-.372.246s-.372-.123-.372-.246l-1.736-2.223v3.951h-.248zm11.407 2.593c0 .123 0 .246-.124.37-.124.123-.248.123-.372.123s-.248 0-.372-.123-.124-.247-.124-.37v-1.976h-.124c-.992 0-1.86-.247-2.356-.864-.62-.617-.868-1.358-.868-2.222 0-.864.248-1.605.868-2.222.62-.618 1.364-.865 2.356-.865h.124V50.37c0-.123 0-.247.124-.37s.248-.123.372-.123.248 0 .372.123.124.247.124.37v2.716h.124c.992 0 1.736.247 2.356.865.62.617.868 1.358.868 2.222 0 .987-.248 1.728-.868 2.222-.62.617-1.364.864-2.356.864h-.124v1.976zm-1.116-3.087v-4.32h-.124c-.62 0-1.24.246-1.612.616a2.04 2.04 0 00-.62 1.482c0 .617.248 1.111.62 1.605.372.37.992.617 1.736.617zm1.116 0c.868 0 1.364-.247 1.736-.617.372-.37.62-.864.62-1.605a2.04 2.04 0 00-.62-1.482 2.058 2.058 0 00-1.488-.617h-.124v4.321h-.124zm5.456-4.444c.62-.618 1.364-.864 2.355-.864.992 0 1.736.246 2.356.864.62.617.868 1.358.868 2.222 0 .864-.248 1.605-.868 2.222s-1.364.864-2.356.864c-.991 0-1.735-.247-2.355-.864-.62-.617-.868-1.358-.868-2.222 0-.864.248-1.605.868-2.222zm.868 3.827c.372.37.868.617 1.487.617a2.06 2.06 0 001.488-.617c.372-.37.62-.864.62-1.605a2.04 2.04 0 00-.62-1.482 2.058 2.058 0 00-1.488-.617c-.619 0-1.115.247-1.487.617-.372.37-.62.865-.62 1.605 0 .618.248 1.111.62 1.482zm7.315 3.703c0 .124 0 .247-.124.37-.124.124-.248.124-.372.124s-.248 0-.372-.123-.124-.247-.124-.37v-7.778c0-.124 0-.247.124-.37.124-.124.248-.124.372-.124s.248 0 .372.123c.124.124.124.247.124.37v.248c.248-.247.496-.494.868-.618.372-.123.744-.246 1.116-.246.868 0 1.488.246 1.984.864.496.617.744 1.358.744 2.222 0 .988-.248 1.728-.868 2.346-.62.617-1.364.864-2.232.864-.744 0-1.24-.124-1.736-.37v2.468h.124zm0-3.58c.496.37.992.494 1.612.494a2.06 2.06 0 001.488-.617c.372-.37.62-.988.62-1.605s-.124-1.111-.496-1.482a2.058 2.058 0 00-1.488-.617c-.744 0-1.24.247-1.736.864v2.963zm8.556 1.358c-.124.124-.248.124-.372.124s-.248 0-.372-.124c-.124-.123-.124-.247-.124-.37v-4.568h-1.736c-.124 0-.248 0-.372-.123-.124-.124-.124-.247-.124-.37 0-.124 0-.248.124-.371.124-.124.248-.124.372-.124h4.463c.124 0 .248 0 .372.124.124.123.124.247.124.37 0 .124 0 .247-.124.37-.124.124-.248.124-.372.124h-1.735v4.568c0 .123 0 .247-.124.37zm9.051-.37c0 .123 0 .247-.124.37-.124.124-.248.124-.372.124s-.248 0-.372-.124c-.124-.123-.124-.247-.124-.37v-2.099h-3.348v2.099c0 .123 0 .247-.124.37-.124.124-.248.124-.372.124s-.248 0-.372-.124c-.124-.123-.124-.247-.124-.37v-5.185c0-.124 0-.247.124-.37.124-.124.248-.124.372-.124s.248 0 .372.123c.124.124.124.247.124.37v1.976h3.348v-1.975c0-.124 0-.247.124-.37.124-.124.248-.124.372-.124s.248 0 .372.123c.124.124.124.247.124.37v5.186zm2.356-4.938c.62-.618 1.364-.864 2.356-.864.992 0 1.736.246 2.356.864.62.617.868 1.358.868 2.222 0 .864-.248 1.605-.868 2.222s-1.364.864-2.356.864c-.992 0-1.736-.247-2.356-.864-.62-.617-.868-1.358-.868-2.222 0-.864.372-1.605.868-2.222zm.868 3.827c.372.37.868.617 1.488.617s1.116-.247 1.488-.617c.372-.37.62-.864.62-1.605a2.04 2.04 0 00-.62-1.482 2.058 2.058 0 00-1.488-.617 2.06 2.06 0 00-1.488.617c-.372.37-.62.865-.62 1.605 0 .618.248 1.111.62 1.482zM84.934 26.543H72.04c-.372 0-.744.124-.992.37-.248.247-.372.618-.372.988v.988c0 .37.124.74.372.988.248.246.62.37.992.37h4.34v13.457c0 .37.124.74.372.987s.62.37.992.37h1.24c.372 0 .744-.123.992-.37s.372-.617.372-.987V30.37h4.34c.371 0 .743-.123.991-.37s.372-.617.372-.988v-.987c0-.37-.124-.741-.372-.988 0-.37-.372-.494-.744-.494zm13.392 14.938H92.25v-3.703h5.084c.372 0 .744-.124.992-.37.248-.248.372-.618.372-.988v-.988c0-.37-.124-.74-.372-.988-.248-.247-.62-.37-.992-.37H92.25v-3.457h5.828c.372 0 .743-.123.992-.37.248-.247.372-.617.372-.988v-.988c0-.37-.124-.74-.372-.987s-.62-.37-.992-.37h-8.432c-.372 0-.744.123-.992.37s-.372.617-.372.988v15.925c0 .37.124.741.372.988s.62.37.992.37h8.68c.372 0 .744-.123.992-.37s.371-.617.371-.988v-.987c0-.37-.123-.74-.371-.988-.373-.617-.62-.74-.992-.74zm18.35-14.938h-12.399c-.372 0-.744.124-.992.37-.248.247-.372.618-.372.988v15.926c0 .37.124.74.372.988.248.247.62.37.992.37h1.24c.372 0 .744-.123.992-.37s.372-.617.372-.988V30.37h7.067v13.457c0 .37.124.74.372.988.248.247.62.37.992.37h1.24c.372 0 .744-.123.992-.37s.372-.617.372-.988V28.025c0-.37-.124-.741-.372-.988-.248-.37-.496-.494-.868-.494zm18.475 0h-9.423c-.372 0-.744.124-.992.37-.248.247-.372.618-.496.988l-.124 2.593c-.62 8.889-1.984 10.494-2.728 10.74a2.4 2.4 0 00-1.116.618 2.456 2.456 0 00-.248 1.11v.865c0 .494.124.74.496 1.111.248.247.62.37 1.116.37h.124c1.116 0 2.108-.37 2.852-.987.744-.74 1.364-1.852 1.984-3.704.62-1.728.992-4.197 1.364-7.16l.372-2.963h4.339V43.95c0 .37.124.74.372.987s.62.37.992.37h1.24c.372 0 .744-.123.992-.37s.372-.617.372-.987V28.025c0-.37-.124-.741-.372-.988-.372-.37-.744-.494-1.116-.494zm13.887-.247c-2.852 0-5.207.988-7.067 2.716-1.86 1.852-2.728 4.198-2.728 6.914 0 2.84.992 5.185 2.728 6.913 1.86 1.729 4.215 2.717 6.943 2.717 2.728 0 5.084-.865 6.944-2.716 1.86-1.852 2.852-4.198 2.852-6.914 0-2.84-.992-5.185-2.728-6.914-1.86-1.852-4.216-2.716-6.944-2.716zm0 15.432c-1.612 0-2.852-.494-3.967-1.605-1.116-1.11-1.612-2.469-1.612-4.197 0-1.729.496-3.087 1.612-4.198.991-1.11 2.355-1.605 3.967-1.605s2.852.494 3.968 1.605 1.612 2.47 1.612 4.198c0 1.728-.496 3.086-1.488 4.197-1.116 1.111-2.356 1.605-4.092 1.605zm24.922-15.185h-9.423c-.372 0-.744.124-.992.37-.248.247-.372.618-.496.988l-.124 2.593c-.62 8.889-1.984 10.494-2.728 10.74a2.4 2.4 0 00-1.116.618 2.456 2.456 0 00-.248 1.11v.865c0 .494.124.74.496 1.111.248.247.62.37 1.116.37h.124c1.116 0 2.108-.37 2.852-.987.744-.74 1.364-1.852 1.984-3.704.62-1.728.992-4.197 1.364-7.16l.372-2.963h4.34V43.95c0 .37.124.74.372.987s.62.37.992.37h1.239c.372 0 .744-.123.992-.37s.372-.617.372-.987V28.025c0-.37-.124-.741-.372-.988-.372-.37-.744-.494-1.116-.494zm20.831-.247c-2.48 0-4.463.741-6.199 2.223-1.612 1.358-2.604 3.21-2.976 5.308h-2.108v-5.926c0-.37-.124-.74-.372-.988-.248-.246-.62-.37-.992-.37h-1.24c-.372 0-.744.124-.992.37-.248.247-.372.618-.372.988v15.926c0 .37.124.74.372.988.248.247.62.37.992.37h1.24c.372 0 .744-.123.992-.37s.372-.617.372-.988v-6.173h2.108c.372 2.346 1.364 4.198 2.976 5.556 1.736 1.481 3.843 2.222 6.199 2.222 2.728 0 5.084-.864 6.82-2.716 1.736-1.852 2.728-4.074 2.728-6.914s-.868-5.185-2.604-7.037c-1.86-1.605-4.092-2.469-6.944-2.469zm.124 15.432c-1.488 0-2.604-.494-3.719-1.605-.992-1.11-1.488-2.469-1.488-4.197 0-1.729.496-3.087 1.488-4.198.991-1.11 2.231-1.605 3.719-1.605 1.612 0 2.728.494 3.72 1.605s1.488 2.47 1.488 4.198c0 1.728-.496 3.086-1.364 4.197-.868 1.111-2.232 1.605-3.844 1.605zm19.839-6.419l5.828-6.544c.123-.123.371-.493.371-.864 0-.37-.124-.617-.371-.864-.248-.247-.62-.37-.992-.37h-1.116c-.62 0-1.24.246-1.612.74l-5.704 6.914v-6.173c0-.37-.124-.74-.372-.988-.248-.247-.62-.37-.992-.37h-1.24c-.372 0-.744.123-.992.37s-.372.618-.372.988v15.926c0 .37.124.74.372.988.248.247.62.37.992.37h1.24c.372 0 .744-.123.992-.37s.372-.618.372-.988v-7.037l5.952 7.53c.372.495.992.742 1.612.742h1.364c.372 0 .744-.124.991-.37.248-.248.372-.618.372-.988s-.124-.618-.248-.865l-6.447-7.777zm22.318 6.79l-.496-.741c-.124-.247-.496-.617-1.239-.617-.248 0-.496.123-.868.247-.992.493-1.984.864-2.976.864-1.736 0-3.1-.494-4.092-1.605-1.116-1.111-1.612-2.47-1.612-4.198 0-1.852.496-3.21 1.488-4.197.992-1.111 2.232-1.605 3.844-1.605.868 0 1.86.247 2.976.864.248.123.496.247.744.247.372 0 .744-.123 1.115-.74l.496-.988c.124-.247.248-.494.248-.741 0-.494-.248-.864-.744-1.111-1.611-.864-3.223-1.358-4.959-1.358-2.976 0-5.332.864-7.068 2.716-1.736 1.852-2.604 4.074-2.604 6.913 0 2.84.868 5.185 2.728 7.037 1.736 1.729 4.092 2.593 6.944 2.593 1.984 0 3.844-.494 5.455-1.605.248-.123.62-.494.62-1.111.248-.37.248-.74 0-.864zm-.371-18.642a2.453 2.453 0 01-1.736.74c-.744 0-1.364-.246-1.736-.74-.496-.494-.744-1.111-.744-1.729 0-.74.248-1.234.744-1.728a2.453 2.453 0 011.736-.74c.744 0 1.364.246 1.736.74.496.494.744 1.111.744 1.728a3.678 3.678 0 01-.744 1.729zm-.372-3.21a2.058 2.058 0 00-1.488-.617 2.06 2.06 0 00-1.488.617 2.04 2.04 0 00-.62 1.481c0 .618.248 1.111.62 1.482.372.37.868.617 1.488.617s1.116-.247 1.488-.617c.372-.37.62-.864.62-1.482a2.04 2.04 0 00-.62-1.481zm-1.984 2.716v.123h-.248V20.37c0-.123 0-.123.124-.123l.124-.124h.62c.744 0 1.116.247 1.116.865 0 .247-.124.37-.248.493-.124.124-.248.247-.496.247l.744.988v.123c0 .124 0 .124-.124.124h-.124c-.124 0-.124 0-.124-.123l-.744-1.112h-.62v1.235zm.992-1.482c.124-.123.248-.247.248-.493 0-.37-.248-.618-.744-.618h-.496v1.235h.496c.124.123.372 0 .496-.124z" fill="#333"/><path d="M35.09 62.716c15.544 0 28.146-12.547 28.146-28.025 0-15.477-12.601-28.024-28.146-28.024S6.944 19.214 6.944 34.69c0 15.478 12.601 28.025 28.146 28.025z" fill="url(#paint0_radial)"/><path d="M51.953 33.457c-.62-9.26-8.804-16.173-18.103-15.556-.868.124-1.736.247-2.48.37-4.216.988-7.936 3.58-10.291 7.161-2.356 3.457-3.968 8.765-1.984 12.716.372.864.372 2.47.992 3.21 1.983 2.47 1.611 5.926 5.58 6.667 1.487.247 2.851-.618 4.215-1.111 1.86-.618 3.472.123 4.96 1.234.744.494 1.116 1.358 1.736 1.852 3.72 2.593 8.927-1.481 11.283-4.074 2.852-3.333 4.464-7.901 4.092-12.47z" fill="#fff"/><path d="M52.573 38.025c-.124-.618-.372-1.235-.62-1.605.124-.988.124-1.976 0-2.963-.124-1.482-.372-2.963-.868-4.321-1.488-.37-3.224-.494-4.712 0-.124 0-.372.123-.62.123l-.248-.247c-.248-.247-.496-.617-.744-.864-.124-.247-.62-.494-.372-.74.248-.248.62-.248.992-.248-.372-.864-1.24-1.604-2.108-1.975-.248-.123-.992-.37-1.24-.494-.496-.123-.124-.493.124-.617.124 0 .62-.247.744-.123a9.928 9.928 0 00-2.604-1.852c-.496-.247-.867-.37-1.363-.617-.124 0-.124-.124-.248-.124h-.124c0-.74-.124-1.482-.372-2.346-.248-.864-.62-1.852-.992-2.84 0 0-3.348-6.913-4.092-6.049-.372.494-1.488 2.47-2.48 4.568-.62 1.358-1.24 2.716-1.736 4.074-.372.124-.62.247-.992.37a8.78 8.78 0 00-3.1 1.359 14.875 14.875 0 00-3.595 3.21l-1.488 1.852c0 .123-.124.123-.124.246-1.116-.246-2.356-.246-3.472-.123-1.488.123-2.976.494-4.464 1.111a1.74 1.74 0 00-.868.494c-.248.247.124.74.496 1.358.496.617 1.24 1.235 1.488 1.482.496.493 2.108 1.48 2.356 1.728.62.37 1.24.74 1.86.988v.246c-.124.865 0 1.729 0 2.593 0 .864.248 1.728.62 2.47.124.37.372.74.62 1.11.248.617.248 1.358.372 2.099.124.74.744 1.111 1.364 1.482-1.86.246-3.968 1.604-3.472 3.827.124.247 0 .493.124.864.496 1.111 1.612 2.222 2.852 2.469.496.123.744-.123.992.247.248.247.372.37.62.494.248.123.62.247.868.247.496.123.992 0 1.364 0 .867 0 1.487-.124 2.107-.741l.744-1.111c.62-.617 1.612-1.482 2.48-1.852.744-.37 1.984-.247 3.72.494.496.247 1.116.37 1.612.617-.124.123-.248.37-.372.494-.248.37-.372.617-.62.987-.62.988-1.24 1.729-1.488 2.84-.248 1.358-.496 2.963-.124 4.321 1.116 3.21 3.1 2.716 3.472 2.84.372.123.62.987 2.48.987 1.611-.123 2.231-.987 2.231-.987s1.612-.124 2.356-.865c.62-.74 1.24-1.728 1.116-2.716-.124-1.852-1.24-1.852-1.116-2.84 0-.37.124-.617.124-.863.124-1.358 1.86-2.47 2.728-3.334 1.86-1.605 3.348-3.58 4.836-5.555 1.984-1.729 3.348-3.334 2.976-5.68zm-11.284-6.79c.496.37 1.488 1.605 1.116 3.086-.62-.494-1.364-.247-1.364-.37.372.493.62 1.234.496 1.852-.372-.247-.868-.247-1.24-.247.744.864 0 1.975 0 1.975-.248-.37-.743-.617-.991-.617-.372-.124-.868-.124-1.116.123.248.247.248.864.248 1.235-.372-.124-.62-.247-.992-.37-.372-.124-.744-.124-1.116-.124-.992 0-1.86.247-2.604.74a8.11 8.11 0 00-2.232 1.852c-.372.37-.744.618-.992.865l-.744.74c-.62.494-1.488.864-2.356.864-1.116 0-2.728-.246-3.472-1.11 0-.124.125-.124.125-.124.123-.123.247-.123.371-.247h.124c.124 0 .248 0 .248-.123h2.852c.124 0 .248-.124.496-.124h.248c.248-.123.496-.247.62-.37.868-.617 1.364-2.222 1.364-2.222.372-1.112.372-1.112.496-1.852v-1.235s-.124 0-.124.124c-.124.123-.248.247-.372.617v.123c-.124.124-.124.37-.248.494l-.992 2.099c-.124.247-.248.37-.372.494l-.124.123-.248.247-.124.123c-.124.124-.248.124-.372.248 0 0-.124 0-.124.123-.124.123-.372.123-.496.247h-.124c-.124 0-.248 0-.372.123h-1.86c-.496-.493-.496-1.11-.124-1.605l.868-.617c0-.494-.868-.74-1.24-1.111-.247-.247-.371-.494-.247-.74 0-.124.123-.371.247-.495.124-.123.372-.123.496-.37.124-.123 0-.494 0-.617 0-.494.372-.618.62-.988s.62-.617.992-.864c.248-.247.62-.494.992-.74.372-.248.744-.371 1.116-.495.248 0 .62-.247.496-.617-.124-.247-.248-.247-.496-.247h-.248c-.124 0-.372.124-.496.124s-.248.123-.248.123c-.124 0-.248.123-.372.123h-.124c-.248.124-.372.124-.372.247l-.744.37c-.744.495-1.488 1.112-1.736 1.976 0 .123 0 .37-.123.494h-.249s-.123 0-.123-.124h-.621s0 .124-.123.124c0 .123-.124.123-.124.247-.248.494-.125.74.123 1.234l.744 1.111c.124.124.372.37.496.618 0 .247-.867 0-1.735.617-1.116.74-.868 1.605-.868 1.605s.124.37.248.37h1.363l.123.124.124.123c.125.124.248.124.372.247-.123.124-.247.37-.372.494l-.372.37s-.123 0-.123.124l-.124.123h-.248c-.124 0-.124.124-.248.124h-.62c-.496-.247-1.116-.494-1.116-1.358-.248-1.358 0-1.729-1.116-2.84h1.116c.124 0 .248.124.372.124 0 .123-.124.617.124.864h.124l.124-.124v-.246c0-.124.124-.247.124-.37 0-.124 0-.248.124-.495 0-.247 0-.74-.248-.987 0 0 0-.124-.124-.124l-.124-.123-.124-.124c-.124 0-.124-.123-.248-.123h-.124s-.124 0-.124.123c-.124.247 0 .37-.372.494-.372 0-.62.124-.992.247-.124-.247-.496-1.358.124-2.099-.124-1.358 0-2.716.992-4.444l1.116 2.84.744.123c-.248-2.099 0-4.445.991-6.42.744-.37.372 2.346 1.116 3.95.744-.37 1.488-1.604 2.356-2.715.992-1.235 2.232-2.346 4.092-1.605.124 0 .124.123.248.123.248 0 .62.37.744.494.62.494.744 1.235.744 1.975 0 .494 0 1.235.744.988.496-.123.992-.864 1.364-1.235.62-.494.992-1.11 1.736-1.481.992-.494 2.355-.617 3.347-.124-.371 0-.743.37-.867.741.991.247 1.735.74 2.603 1.235 1.116.74 1.488 1.481 1.86 2.592-.62-.864-1.488-.74-1.984-.74z" fill="#000"/><path d="M26.286 44.815c.496.123-1.736-.617-2.976-.988-1.115-.247-2.727-.123-3.843.247-.496.247-.992.494-1.364.864-.744.741-.496 1.235-.124 1.235.372-.124.62-.247.62.247 0 .247-.248.494-.248.74.124.741.992.988 1.736.988h.496c.248-.123.248-.247.372-.37.62-.494-.124.74 1.116 1.481.495.247 1.115.37 1.735.247l.744-.37c.372-.37.62-.988.992-1.482.248-.37.62-.617.992-.864s1.488-.494 1.364-.987c-.124-.618-1.984-1.112-1.612-.988zm10.044.123c.124-.494.248-1.234.372-1.605.124-.74.495-3.333.124-3.703-.992 2.84-2.232 4.074-2.48 4.444-.248.37-.496.617-.868.617-1.116.247-2.232.247-2.852.247.372.247 1.612.741 2.852 1.111 0 0 2.108.618 2.356.494.248-.247.496-1.605.496-1.605zm8.803-2.098c.372-.494.62-.988.868-1.482.496-1.481-1.488-.864-2.108-.494-3.1 1.976-5.084 4.815-7.315 7.408-.744.864-.992 2.098-1.736 3.086-.992 1.111-1.488 3.827-1.116 5.309.248.617.496.864.62.864.496.247.372-.247.744-.37.496-.247.868.864.992 1.234.372.494.868.74 1.364.74a2.5 2.5 0 001.116-.246c.495-.37-.372-1.482.248-1.482.247.37.991.741 1.363.494a2.68 2.68 0 001.24-1.358c.124-.247.124-.617 0-.987-.124-.494-.248-.494-.62-.741-.62-.37-.496-1.235-.372-1.852 0-.494.124-.864.248-1.235.124-.493.496-.987.372-1.358-.124-.617-.744-.493-.372-1.234.248-.494.62-.864.868-1.235l1.86-2.592c.496-.741.992-1.358 1.612-2.1 0-.123.124-.246.124-.37zM15.995 30c-.124-.494.62-.988.992-1.235 0 0-.868-.246-.992-.246-.496-.124-.992-.124-1.612-.247-.992-.124-2.48-.247-1.86.37 1.24 1.235 2.604 1.975 3.844 2.593.62.37 1.116.617 1.116.493 0-.37.124-.74.124-.987s.124-.494 0-.741c-.496-.123-.992 0-1.612 0zm16.987-10.123c.372-.247.992-.741 1.488-.741.992 0 0 1.234-.248 1.605 0 0 0 .123-.124.123-.372.494-1.24 1.852-.744 2.222.496.247 1.116.124 1.612 0 .496-.123 1.116 0 1.612-.123.868-.247 1.24-.617 1.24-1.358 0-.494-.248-1.482-.62-2.593 0-.123-.124-.247-.124-.37-.248-.74-.496-1.605-.868-2.47l-.372-.74c-.372-.74-.62-1.111-.992-1.728 0 0-.992-1.482-1.116-1.482-.124 0-.496 1.111-.744 2.346-.124.617-.372 1.358-.496 1.852 0 .123-.248.987-.372 1.852-.248.987-.372 2.098-.248 2.098.248.247.744-.247 1.116-.493z" fill="#fff"/><defs><radialGradient id="paint0_radial" cx="0" cy="0" r="1" gradientUnits="userSpaceOnUse" gradientTransform="matrix(28.182 0 0 28.0604 35.143 34.724)"><stop offset=".693" stop-color="#FDB913"/><stop offset=".781" stop-color="#F99D1C"/><stop offset=".929" stop-color="#F37221"/><stop offset="1" stop-color="#F15F22"/></radialGradient></defs></svg>