<svg width="160" height="71" fill="none" xmlns="http://www.w3.org/2000/svg"><path d="M68.954 38.595c-.13-3.102-2.392-5.655-6.044-8.531a4608.983 4608.983 0 01-11.666-9.534c2.391-1.907 2.94-2.553 4.783-4.008 5.59-4.46 4.847-8.725 4.298-10.341-1.067-3.006-4.17-5.042-7.724-5.042H12.85C7.195 1.14 2.412 4.34.667 9.283c-1.875 5.365.258 11.214 5.72 15.61l11.31 9.049c-1.615.452-3.263 1.292-4.782 2.747-2.133 2.036-3.232 4.815-3.103 7.853.162 3.813 2.23 7.53 5.85 10.406l19.261 15.416 29.668-23.786c3.005-2.456 4.492-5.139 4.363-7.983zM37.832 6.956H52.6c1.066 0 2.004.485 2.23 1.132.258.678-.259 2.133-2.424 3.878-3.975 3.167-10.245 8.208-14.575 11.666V6.956zM10.006 20.304c-3.458-2.78-4.912-6.205-3.878-9.146.905-2.586 3.523-4.234 6.69-4.234h19.164v30.928C25.616 32.778 14.5 23.891 10.006 20.304zm9.308 30.023c-2.262-1.81-3.588-4.04-3.684-6.108-.065-1.325.387-2.521 1.325-3.394 3.328-3.102 6.722-2.23 10.212.582 1.196.937 3.587 2.844 4.848 3.878v15.222l-12.701-10.18zm41.334-8.08l-22.849 18.26V31.065c.84-.678 3.232-2.359 4.751-3.587 2.52-2.036 5.462-2.197 7.918-.226 3.684 2.94 6.367 5.397 9.21 7.724 2.004 1.648 3.135 3.005 3.168 4.104.064 1.196-1.325 2.489-2.198 3.167zM82.365 2.658c3.62 0 6.076 1.293 6.076 4.105 0 1.422-1.196 2.876-2.068 3.651 2.036.938 3.135 2.457 3.135 4.331 0 3.167-1.94 5.494-6.464 5.494h-4.977V5.469l-.355-2.682 4.653-.129zm-.904 7.013c2.035 0 2.65.13 2.973.162.42-.614.84-1.584.84-2.521 0-1.584-.84-2.133-2.747-2.133-.323 0-.679.032-1.067.065V9.67zm0 8.047h1.615c1.907 0 2.974-1.066 2.974-2.844 0-1.583-1.002-2.682-3.62-2.682h-.97v5.526zm19.229-7.207s-.744-.71-1.745-.71c-1.358 0-2.974 1.68-2.974 3.716v4.492l.291 2.262H92.74V9.768l-.356-2.65 3.62-.388v2.392s1.292-2.424 3.554-2.424c.808 0 1.552.323 2.166.97l-1.034 2.843zm6.269 7.499l.291 2.261h-3.522V9.703l-.356-2.65 3.62-.387v11.343h-.033zm-1.648-16.645c.937 0 1.745.808 1.745 1.843 0 .97-.808 1.745-1.745 1.745-1.002 0-1.842-.776-1.842-1.745 0-1.035.84-1.843 1.842-1.843zm14.511 9.405c-.97-1.196-2.263-1.616-3.2-1.616-2.262 0-3.232 2.133-3.232 4.492 0 2.198 1.002 4.298 3.135 4.298 2.262 0 4.298-2.1 4.298-2.1l.485 2.714s-1.971 2.037-5.397 2.037c-3.91 0-5.817-3.361-5.817-6.723 0-3.813 2.262-7.206 6.496-7.206 3.199 0 4.783 1.745 4.783 1.745l-1.551 2.359zm7.4 2.262l3.588-4.557.614-1.422h4.362l-5.3 5.98 5.559 7.206h-4.04l-4.783-6.625v4.363l.291 2.262h-3.523V3.402l-.355-2.65 3.62-.388v12.668h-.033zm-24.755 13.024v7.24s1.261-.97 2.876-.97c2.78 0 5.527 2.23 5.527 6.69 0 3.91-2.812 7.239-6.916 7.239-2.198 0-4.17-1.067-4.75-2.263V29.094l-.356-2.65 3.619-.388zm0 17.096a2.826 2.826 0 001.939.743c1.648 0 3.006-2.036 3.006-4.653 0-2.618-1.358-4.428-3.006-4.428-1.066 0-1.939.614-1.939.614v7.724zm19.391-6.98s-.744-.711-1.746-.711c-1.357 0-2.973 1.68-2.973 3.716v4.492l.291 2.263h-3.523V35.395l-.355-2.65 3.62-.388v2.392s1.292-2.424 3.555-2.424c.807 0 1.551.323 2.165.97l-1.034 2.876zm6.302 7.498l.29 2.261h-3.522V35.364l-.356-2.65 3.62-.388v11.343h-.032zm-1.681-16.644c.937 0 1.745.808 1.745 1.842 0 .97-.808 1.745-1.745 1.745-1.002 0-1.842-.776-1.842-1.745.032-1.034.872-1.842 1.842-1.842zm14.511 9.404c-.97-1.196-2.263-1.616-3.2-1.616-2.262 0-3.232 2.133-3.232 4.492 0 2.198 1.002 4.299 3.135 4.299 2.262 0 4.298-2.101 4.298-2.101l.485 2.715s-1.971 2.036-5.397 2.036c-3.91 0-5.817-3.361-5.817-6.722 0-3.814 2.262-7.207 6.496-7.207 3.199 0 4.783 1.745 4.783 1.745l-1.551 2.36zm7.433 2.23l3.587-4.557.614-1.422h4.363l-5.3 5.979 5.559 7.207h-4.04l-4.783-6.625v4.363l.291 2.262h-3.523V29.029l-.355-2.65 3.619-.388V38.66h-.032z" fill="#0D2839"/><path d="M79.199 33.07h2.585l-.55 1.615h-2.068v4.621c0 .614.323.808.744.808.646 0 1.615-.484 2.003-.808l.227 1.907s-.97.905-2.877.905c-1.486 0-2.23-.776-2.23-2.812v-4.589h-1.066v-1.616h1.066v-1.583l2.327-.259-.161 1.81zm7.562 9.016c-2.65 0-4.04-2.327-4.04-4.525 0-2.585 1.649-4.783 4.622-4.783 2.294 0 4.007 1.39 4.007 4.46 0 2.618-1.68 4.848-4.589 4.848zm.259-1.551c1.26 0 2.003-1.358 2.003-3.103s-.743-3.07-2.003-3.07c-1.26 0-2.004 1.357-2.004 3.07 0 1.745.776 3.102 2.004 3.102zm4.33 3.684l-.42 1.616H76.45v-1.616h14.9z" fill="#DA5F2F"/><path d="M37.832 6.956H52.6c1.066 0 2.004.485 2.23 1.132.258.678-.259 2.133-2.424 3.878-3.975 3.167-10.245 8.208-14.575 11.666V6.956z" fill="#EDDCAE"/><path d="M10.007 20.304c-3.459-2.78-4.913-6.205-3.879-9.146.905-2.586 3.523-4.234 6.69-4.234h19.164v30.928C25.616 32.778 14.5 23.891 10.007 20.304z" fill="#DA5F2F"/><path d="M19.314 50.327c-2.263-1.81-3.588-4.04-3.685-6.108-.064-1.325.388-2.521 1.325-3.394 3.33-3.102 6.722-2.23 10.213.582a365.52 365.52 0 014.847 3.878v15.222l-12.7-10.18z" fill="#EDDCAE"/><path d="M60.648 42.247l-22.849 18.26V31.065c.84-.678 3.232-2.359 4.75-3.587 2.522-2.036 5.462-2.197 7.919-.226 3.684 2.94 6.366 5.397 9.21 7.724 2.004 1.648 3.135 3.005 3.167 4.104.065 1.196-1.325 2.489-2.197 3.167z" fill="#0EBAB9"/><path d="M77.227 61.993h-.678v-1.777l.355-.065c.13-.097.226-.194.323-.323.065-.13.13-.323.194-.55.032-.225.065-.484.097-.84.032-.323.032-.743.032-1.195l.065-2.456h3.2v5.364h.42v1.842h-.679v-1.228h-3.361v1.228h.032zm2.909-1.842v-4.75h-1.81l-.065 2.068a59.049 59.049 0 01-.096 1.648 2.173 2.173 0 01-.324 1.034h2.295zm2.456.614v-6.01h.711v4.556h.032l.905-1.81 1.422-2.78h.711v6.012h-.71v-4.59h-.033l-.84 1.681-1.487 2.909h-.711v.032zm6.755.065c-.227 0-.42-.032-.647-.097-.194-.065-.388-.13-.517-.258a1.212 1.212 0 01-.388-.42 1.545 1.545 0 01-.194-.582l.679-.227c.065.291.162.517.355.68.194.16.42.225.712.225.29 0 .549-.097.743-.258.194-.162.29-.485.29-.873 0-.323-.064-.582-.226-.775a.878.878 0 00-.71-.324h-.518v-.646h.517c.291 0 .517-.097.68-.29.16-.195.225-.42.225-.712 0-.323-.097-.55-.258-.71a1.067 1.067 0 00-.679-.227c-.29 0-.517.097-.679.226a1.29 1.29 0 00-.355.614l-.679-.226c.097-.42.291-.743.582-.97a1.887 1.887 0 011.131-.355c.55 0 .97.13 1.228.388.291.258.42.646.42 1.163 0 .097 0 .227-.032.356a1.807 1.807 0 01-.13.388 2.124 2.124 0 01-.226.355c-.097.097-.193.194-.323.226v.033c.162.064.291.161.388.258.097.097.162.226.226.356a.853.853 0 01.097.387c.033.13.033.259.033.388 0 .55-.162.97-.453 1.293-.29.452-.71.614-1.292.614zm6.269-.065l-.388-1.357h-1.906l-.356 1.357h-.743l1.745-6.01h.646l1.745 6.01h-.743zm-.97-3.555l-.323-1.325h-.032l-.323 1.325-.453 1.552H95.1l-.453-1.552zm2.941 3.555v-6.01h.711v4.556h.033l.905-1.81 1.422-2.78h.711v6.012h-.711v-4.59h-.033l-.84 1.681-1.487 2.909h-.71v.032zm1.26-7.433c0 .065.033.13.065.194.033.065.065.13.13.162a.668.668 0 00.194.129.598.598 0 00.226.065.608.608 0 00.258-.065.653.653 0 00.194-.13c.065-.064.097-.128.13-.16.032-.066.032-.13.032-.195h.582c0 .13-.033.227-.097.356a.777.777 0 01-.194.355c-.097.097-.194.194-.356.259a1.391 1.391 0 01-.55.097c-.225 0-.42-.033-.549-.097a1.021 1.021 0 01-.355-.259.771.771 0 01-.194-.355 1.67 1.67 0 01-.065-.356h.55zm6.949 7.433v-2.747h-2.036v2.747h-.711v-6.01h.711v2.65h2.036v-2.65h.711v6.01h-.711zm4.848 0v-6.01h.711v4.556h.032l.905-1.81 1.422-2.78h.711v6.012h-.711v-4.59h-.033l-.84 1.681-1.486 2.909h-.711v.032zm8.208 0v-2.747h-2.004v2.747h-.711v-6.01h.711v2.65h2.036v-2.65h.711v6.01h-.743zm4.008-5.332v5.365h-.711v-5.365h-1.357v-.646h3.458v.646h-1.39zm2.553 5.332v-6.01h3.199v.678h-2.456v1.971h2.101v.647h-2.101v2.036h2.456v.71h-3.199v-.032zm7.982-4.201c0 .226-.032.453-.096.679-.065.226-.162.42-.291.581a1.56 1.56 0 01-.517.388 1.999 1.999 0 01-.808.162h-1.035v2.424h-.71v-6.011h1.712c.55 0 1.002.161 1.293.452.291.259.452.711.452 1.325zm-.743 0c0-.355-.064-.614-.226-.808-.162-.194-.42-.29-.808-.29h-.97v2.23h.97c.194 0 .356-.033.485-.098.129-.064.226-.161.323-.258a1.21 1.21 0 00.162-.356c.064-.13.064-.29.064-.42zm2.036 4.201v-6.01h.711v2.488h.97c.323 0 .581.032.807.129.227.097.421.194.55.355.129.162.258.324.323.55.065.226.097.452.097.679 0 .581-.162 1.034-.452 1.357-.291.29-.744.452-1.293.452h-1.713zm.743-.646h.97c.388 0 .646-.097.808-.29.161-.195.226-.453.226-.809 0-.13-.032-.258-.065-.388a1.2 1.2 0 00-.161-.355c-.065-.097-.194-.162-.323-.226-.13-.065-.291-.097-.517-.097h-.97v2.165h.032zm4.04.646v-6.01h3.2v.678h-2.457v1.971h2.101v.647h-2.101v2.036h2.457v.71h-3.2v-.032zm8.015-4.201c0 .226-.033.453-.097.679-.065.226-.162.42-.291.581a1.56 1.56 0 01-.517.388 1.999 1.999 0 01-.808.162h-1.034v2.424h-.711v-6.011h1.712c.55 0 1.002.161 1.293.452.291.259.453.711.453 1.325zm-.744 0c0-.355-.064-.614-.226-.808-.162-.194-.42-.29-.808-.29h-.969v2.23h.969c.194 0 .356-.033.485-.098.129-.064.226-.161.323-.258a1.21 1.21 0 00.162-.356c.064-.13.064-.29.064-.42zm5.397 2.456c0 .291-.032.517-.129.743-.097.227-.194.42-.355.582a1.465 1.465 0 01-.55.356 1.736 1.736 0 01-.711.129 2 2 0 01-.808-.162 1.463 1.463 0 01-.549-.42c-.129-.161-.259-.388-.291-.614a2.677 2.677 0 01-.097-.71v-2.425c0-.194.032-.42.097-.614.065-.226.162-.42.291-.581.129-.162.323-.324.549-.42a2 2 0 01.808-.162c.291 0 .582.065.776.161.226.097.42.227.549.42.13.162.259.356.324.582.064.227.096.42.096.647v2.488zm-.743-2.488c0-.097 0-.194-.032-.323a1.18 1.18 0 00-.162-.356c-.064-.13-.194-.226-.323-.29-.129-.098-.291-.13-.517-.13-.194 0-.388.032-.517.13a.919.919 0 00-.323.29c-.097.097-.13.226-.162.355-.032.13-.032.26-.032.356v2.36c0 .16.032.322.064.484.033.162.097.29.194.388.097.097.194.194.324.258.129.065.29.097.484.097.13 0 .259-.032.388-.064.129-.065.226-.13.323-.227a1.17 1.17 0 00.227-.323c.064-.129.096-.29.096-.452v-2.553h-.032zm5.753 2.521c0 .549-.162 1.001-.42 1.292-.291.291-.679.42-1.164.42h-1.874v-6.01h1.713c.549 0 .969.128 1.228.42.258.29.388.678.388 1.163 0 .29-.065.517-.162.743-.097.226-.291.388-.614.55v.032a.736.736 0 01.388.194c.097.097.194.194.258.323.065.13.13.258.162.42.065.13.097.29.097.453zm-2.747-3.62v1.939h.937c.356 0 .582-.097.743-.258.162-.194.227-.42.227-.711s-.065-.518-.227-.68c-.161-.16-.42-.258-.743-.258h-.937v-.032zm0 2.553v2.1h1.034c.194 0 .356-.032.485-.096a.712.712 0 00.291-.227 1.2 1.2 0 00.161-.355c.033-.13.033-.258.033-.42 0-.291-.065-.55-.227-.743-.161-.194-.42-.291-.775-.291h-1.002v.032z" fill="#0D2839"/></svg>