<svg width="143" height="70" fill="none" xmlns="http://www.w3.org/2000/svg"><g clip-path="url(#clip0)"><path d="M64.782 33.018a12.182 12.182 0 014.383 4.508 12.528 12.528 0 011.6 6.141v9.213a12.534 12.534 0 01-1.626 6.136 12.186 12.186 0 01-4.4 4.49l-7.81 4.59a11.864 11.864 0 01-6.01 1.626 11.865 11.865 0 01-6.003-1.648l-7.788-4.622a14.844 14.844 0 01-1.802-1.328c-.346.26-.704.502-1.075.725l-7.814 4.59a11.855 11.855 0 01-6.004 1.637 11.85 11.85 0 01-6.004-1.637l-7.806-4.644a12.199 12.199 0 01-4.383-4.51A12.546 12.546 0 01.637 52.14v-9.208a12.53 12.53 0 011.633-6.14 12.18 12.18 0 014.41-4.486l7.81-4.59a12.677 12.677 0 011.917-.87c0-.262-.031-.523-.031-.789v-9.212c.007-2.157.57-4.274 1.63-6.14a12.154 12.154 0 014.414-4.482l7.805-4.595A11.842 11.842 0 0136.235 0c2.107.004 4.177.573 6.003 1.652l7.779 4.626a12.162 12.162 0 014.386 4.503 12.509 12.509 0 011.6 6.142v9.212a15.72 15.72 0 01-.123 1.69c.38.17.75.363 1.11.576l7.792 4.617zm4.066 10.645c0-1.811-.463-3.59-1.345-5.161a10.251 10.251 0 00-3.68-3.79l-7.793-4.617a9.385 9.385 0 00-.59-.32 9.916 9.916 0 00-5.747-.987 9.98 9.98 0 00-3.76 1.284l-7.81 4.59a9.51 9.51 0 00-.735.483 12.654 12.654 0 012.56 5.126c.138.592.234 1.195.285 1.802v.148c0 .253.031.505.031.762v9.208a12.458 12.458 0 01-3.41 8.559l-.065.063c.41.339.84.65 1.29.932l7.793 4.622a9.959 9.959 0 005.046 1.376 9.96 9.96 0 005.046-1.376l7.814-4.59a10.248 10.248 0 003.695-3.774 10.54 10.54 0 001.367-5.155l.008-9.185zm-14.752-26.74c0-1.812-.465-3.592-1.347-5.162a10.25 10.25 0 00-3.684-3.79l-7.788-4.603A9.959 9.959 0 0036.23 1.99a9.96 9.96 0 00-5.048 1.378l-7.806 4.55a10.248 10.248 0 00-3.703 3.773 10.54 10.54 0 00-1.371 5.16v9.595c.02.654.105 1.304.251 1.941a10.43 10.43 0 001.712 3.818 10.173 10.173 0 003.059 2.804l7.792 4.622c.19.113.388.221.586.325a12.739 12.739 0 012.85-4.902v-.027c.436-.458.908-.88 1.41-1.261a12.63 12.63 0 011.163-.784l7.805-4.586a11.81 11.81 0 019.04-1.23c.03-.32.06-.716.065-1.018l.062-9.225zM38.361 43.01v-.243c-.728.12-1.464.18-2.202.18a11.958 11.958 0 01-3.035-.37h-.027a11.276 11.276 0 01-1.832-.662 13.68 13.68 0 01-1.11-.576l-7.793-4.636a12.099 12.099 0 01-3.602-3.286 12.402 12.402 0 01-2.045-4.471l-.026-.117a9.802 9.802 0 00-1.242.585L7.637 34a10.249 10.249 0 00-3.698 3.773A10.541 10.541 0 002.57 42.93v9.212c0 1.812.466 3.592 1.35 5.163a10.251 10.251 0 003.685 3.788l7.788 4.622a9.924 9.924 0 005.046 1.382 9.924 9.924 0 005.045-1.382l7.793-4.568c.251-.144.493-.31.736-.477.522-.378 1.01-.803 1.458-1.27a10.484 10.484 0 002.867-7.181l.022-9.208zm-.282-2.284a10.984 10.984 0 00-2.158-4.307 11.082 11.082 0 00-2.45 4.226 10.85 10.85 0 004.608.076v.005z" fill="#020202"/><path d="M63.822 34.712c1.53.913 2.799 2.22 3.68 3.79a10.542 10.542 0 011.346 5.161v9.212a10.54 10.54 0 01-1.366 5.155 10.25 10.25 0 01-3.695 3.774l-7.815 4.59a9.958 9.958 0 01-5.045 1.377 9.959 9.959 0 01-5.046-1.377l-7.793-4.622c-.45-.282-.88-.593-1.29-.932l.066-.063a12.459 12.459 0 003.41-8.56V43.01c0-.257 0-.51-.032-.761v-.14a12.456 12.456 0 00-.286-1.802 12.656 12.656 0 00-2.56-5.126c.234-.172.48-.33.736-.482l7.806-4.59a9.98 9.98 0 013.76-1.285 9.915 9.915 0 015.746.987c.203.099.396.207.59.32l7.788 4.581z" fill="#020202"/><path d="M34.556 35.054a12.738 12.738 0 00-2.85 4.901 12.316 12.316 0 01-.586-.324l-7.797-4.622a10.173 10.173 0 01-3.056-2.804 10.43 10.43 0 01-1.71-3.818 10.132 10.132 0 01-.256-1.941V16.85c.008-1.813.48-3.592 1.37-5.16a10.248 10.248 0 013.705-3.773l7.805-4.586a9.96 9.96 0 015.048-1.378 9.96 9.96 0 015.049 1.378l7.788 4.622c1.53.912 2.8 2.218 3.683 3.789a10.543 10.543 0 011.347 5.162v9.207c0 .302-.035.699-.066 1.018a11.81 11.81 0 00-9.04 1.23l-7.818 4.604a11.948 11.948 0 00-2.573 2.045v.027l-.043.018z" fill="#F9B70F"/><path d="M38.353 42.762v9.455a10.484 10.484 0 01-2.872 7.181 10.67 10.67 0 01-1.459 1.27c-.242.167-.484.334-.735.478l-7.819 4.59a9.924 9.924 0 01-5.046 1.382 9.924 9.924 0 01-5.046-1.382l-7.788-4.64a10.251 10.251 0 01-3.685-3.788 10.542 10.542 0 01-1.35-5.163v-9.212a10.54 10.54 0 011.375-5.16A10.247 10.247 0 017.637 34l7.81-4.586c.4-.224.815-.42 1.242-.585l.026.117a12.402 12.402 0 002.045 4.471 12.097 12.097 0 003.602 3.286l7.789 4.622c.365.216.74.4 1.11.577.59.273 1.204.495 1.832.662h.026c.993.252 2.013.377 3.035.37a13.62 13.62 0 002.199-.172z" fill="#fff"/><path d="M73.882 10.525H70.85v10.843h-1.536V10.525h-3.03V9.13h7.597v1.395zM80.36 19.6c-.323.597-.803 1.086-1.44 1.467a3.932 3.932 0 01-2.029.562c-1.156 0-2.09-.364-2.8-1.094-.71-.729-1.066-1.685-1.066-2.869 0-1.099.334-2.023 1.003-2.774.7-.782 1.604-1.173 2.712-1.173 1.13 0 2.024.38 2.681 1.142.626.724.94 1.654.94 2.79v.245h-5.864c0 .735.217 1.332.652 1.791.435.46.997.69 1.687.69 1.04 0 1.827-.47 2.363-1.41l1.161.633zm-1.416-2.774c-.09-.56-.329-1.011-.716-1.355-.382-.343-.862-.515-1.44-.515-.557 0-1.047.172-1.472.515-.424.338-.697.79-.819 1.355h4.447zm9.971 4.542H87.22l-2.466-3.02-2.379 3.02h-1.742l3.341-4.026-2.673-3.393h1.679l1.774 2.386 1.941-2.386h1.742l-2.752 3.393 3.23 4.026zm7.719 0h-1.432v-3.194h-3.667v3.194h-1.432v-7.419h1.432v2.94h3.667v-2.94h1.432v7.419zm9.812-3.702c0 1.105-.39 2.043-1.17 2.814-.78.766-1.726 1.15-2.84 1.15-1.119 0-2.066-.384-2.84-1.15-.77-.771-1.154-1.71-1.154-2.814 0-1.099.385-2.031 1.154-2.797.774-.767 1.721-1.15 2.84-1.15 1.119 0 2.066.383 2.84 1.15.78.766 1.17 1.698 1.17 2.797zm-1.44 0c0-.713-.252-1.32-.756-1.822a2.45 2.45 0 00-1.814-.761 2.45 2.45 0 00-1.814.76 2.493 2.493 0 00-.748 1.823c0 .724.25 1.34.748 1.847a2.462 2.462 0 001.814.753 2.45 2.45 0 001.814-.76 2.517 2.517 0 00.756-1.84z" fill="#000"/><path d="M87.31 32.495c0 1.992-.58 3.562-1.742 4.708-1.13 1.115-2.638 1.673-4.526 1.673-1.003 0-2.002-.283-3-.848V36.26c.88.814 1.928 1.22 3.143 1.22 1.352 0 2.434-.398 3.246-1.196.816-.798 1.262-1.92 1.336-3.368h-5.8v-1.364h5.752c-.159-1.262-.63-2.256-1.416-2.98-.774-.708-1.736-1.062-2.887-1.062-.584 0-1.178.1-1.782.301-.663.222-1.188.518-1.576.888v-1.76c.345-.232.838-.427 1.48-.586a7.816 7.816 0 011.878-.238c1.745 0 3.158.576 4.24 1.728 1.103 1.173 1.654 2.724 1.654 4.652zm8.571 6.119h-1.885l-3.167-3.233v3.233h-1.432v-7.418h1.432v2.988l2.825-2.988h1.885l-3.484 3.543 3.826 3.875zm6.598-.23c-.61.328-1.31.492-2.101.492-1.119 0-2.06-.38-2.824-1.142-.758-.766-1.137-1.706-1.137-2.821 0-1.1.373-2.032 1.121-2.798.753-.766 1.674-1.15 2.761-1.15.896 0 1.623.165 2.18.492v1.554c-.515-.497-1.231-.745-2.148-.745-.684 0-1.276.264-1.774.792a2.633 2.633 0 00-.74 1.87c0 .725.236 1.343.708 1.855.477.508 1.053.761 1.726.761.827 0 1.57-.238 2.228-.713v1.553zm8.379.23h-1.44v-6.087h-3.516v6.087h-1.432v-7.418h6.388v7.418zm9.144-1.767c-.324.597-.804 1.086-1.44 1.466a3.934 3.934 0 01-2.029.563c-1.156 0-2.09-.365-2.8-1.094-.711-.73-1.066-1.686-1.066-2.87 0-1.098.334-2.023 1.002-2.773.7-.782 1.604-1.173 2.713-1.173 1.13 0 2.023.38 2.681 1.141.626.724.939 1.654.939 2.79v.246h-5.864c0 .734.218 1.331.653 1.79.435.46.997.69 1.686.69 1.04 0 1.827-.47 2.363-1.41l1.162.634zm-1.417-2.774c-.09-.56-.328-1.012-.716-1.356-.381-.343-.861-.515-1.439-.515-.557 0-1.048.172-1.472.515-.424.339-.698.79-.82 1.356h4.447zm10.759.84c0 1.146-.329 2.095-.987 2.845-.652.745-1.49 1.118-2.514 1.118-1.05 0-1.925-.494-2.625-1.482v5.603h-1.432V31.196h1.432v1.284c.711-1.01 1.586-1.514 2.625-1.514 1.013 0 1.849.375 2.506 1.125.663.75.995 1.691.995 2.822zm-1.464-.016c0-.771-.22-1.408-.66-1.91-.435-.502-1.003-.753-1.703-.753-.647 0-1.206.261-1.678.785-.467.517-.7 1.144-.7 1.878 0 .777.217 1.419.652 1.926.451.523 1.037.785 1.758.785.695 0 1.257-.254 1.687-.761.429-.513.644-1.163.644-1.95zm7.743-2.37h-1.925v6.087h-1.432v-6.087h-1.925v-1.331h5.282v1.331z" fill="#F9B70F"/><path d="M100.345 55.403H98.81V44.577h-5.728v10.826h-1.536V43.166h8.799v12.237zm10.011-3.701c0 1.146-.329 2.095-.987 2.845-.652.745-1.49 1.118-2.514 1.118-1.05 0-1.925-.495-2.625-1.483v5.604h-1.432V47.985h1.432v1.284c.711-1.01 1.586-1.514 2.625-1.514 1.013 0 1.848.375 2.506 1.125.663.75.995 1.691.995 2.822zm-1.464-.016c0-.772-.22-1.408-.661-1.91-.434-.502-1.002-.753-1.702-.753-.647 0-1.207.261-1.679.784-.466.518-.7 1.144-.7 1.879 0 .777.218 1.419.653 1.926.45.523 1.037.785 1.758.785.695 0 1.257-.254 1.686-.761.43-.513.645-1.163.645-1.95zm10.71.016c0 1.104-.39 2.042-1.169 2.813-.78.767-1.726 1.15-2.84 1.15-1.119 0-2.066-.383-2.84-1.15-.769-.771-1.154-1.709-1.154-2.813 0-1.1.385-2.032 1.154-2.798.774-.766 1.721-1.15 2.84-1.15 1.119 0 2.065.384 2.84 1.15.779.766 1.169 1.699 1.169 2.798zm-1.44 0a2.48 2.48 0 00-.755-1.823 2.451 2.451 0 00-1.814-.761c-.711 0-1.316.254-1.814.76a2.49 2.49 0 00-.748 1.824c0 .724.249 1.34.748 1.846a2.46 2.46 0 001.814.753 2.45 2.45 0 001.814-.76c.503-.508.755-1.12.755-1.84zm10.21 1.934c-.324.597-.804 1.085-1.44 1.466a3.934 3.934 0 01-2.029.563c-1.156 0-2.089-.365-2.8-1.094-.711-.73-1.066-1.686-1.066-2.87 0-1.098.334-2.023 1.002-2.773.7-.782 1.605-1.173 2.713-1.173 1.13 0 2.023.38 2.681 1.141.626.724.939 1.654.939 2.79v.246h-5.863c0 .734.217 1.331.652 1.79.435.46.997.69 1.686.69 1.04 0 1.828-.47 2.363-1.41l1.162.634zm-1.416-2.774c-.091-.56-.329-1.012-.716-1.356-.382-.343-.862-.515-1.44-.515-.557 0-1.048.172-1.472.515-.424.338-.697.79-.819 1.356h4.447zm9.811 4.541h-1.885l-3.166-3.234v3.234h-1.432v-7.418h1.432v2.987l2.824-2.987h1.885l-3.484 3.542 3.826 3.876zm5.683-6.087h-1.925v6.087h-1.432v-6.087h-1.925v-1.331h5.282v1.331z" fill="#000"/></g><defs><clipPath id="clip0"><path fill="#fff" d="M0 0h142.561v70H0z"/></clipPath></defs></svg>