<svg width="79" height="70" fill="none" xmlns="http://www.w3.org/2000/svg"><path fill-rule="evenodd" clip-rule="evenodd" d="M9.712 37.28c0 1.044-.453 1.95-1.323 2.715-.87.731-1.95 1.114-3.168 1.114H0v-.661h.94V.66H0V0h5.221C6.474 0 7.52.382 8.39 1.113c.87.73 1.323 1.636 1.323 2.68V8.84c0 1.636-.87 2.785-2.611 3.481 1.74.731 2.61 1.88 2.61 3.481V37.28zM6.718 10.512V2.158c0-.418-.14-.766-.452-1.044A1.51 1.51 0 005.22.66H3.933v11.35h1.288c.418 0 .766-.14 1.045-.453.313-.278.452-.626.452-1.044zm0 28.439V14.167c0-.418-.14-.766-.452-1.044a1.509 1.509 0 00-1.045-.453H3.933v27.743h1.288c.418 0 .766-.14 1.045-.453.313-.243.452-.592.452-1.01zm13.819 2.158h-9.155v-.662h.94V.661h-.94V0h4.874v.661h-.94v39.786h2.227v-7.205h2.994v7.867zM32.337.661h-.94v36.793c0 1.044-.452 1.95-1.322 2.68-.87.731-1.95 1.114-3.168 1.114-1.218 0-2.297-.383-3.168-1.114-.87-.73-1.322-1.636-1.322-2.68V.661h-.94V0h4.873v.661h-.94v38.464c0 .417.14.766.453 1.044.278.279.626.453 1.044.453.418 0 .766-.14 1.044-.453a1.51 1.51 0 00.453-1.044V.66h-.94V0h4.873v.661zm13.715 40.448h-4.839v-.662h.905V7.657L40.03 41.11h-2.437L35.157 7.658v32.79h.905v.66h-2.785v-.66h.94V.66h-.94V0h3.968l2.576 35.33L42.084 0h3.968v.661h-.94v39.786h.94v.662z" fill="#532F2E"/><path d="M20.955 56.25c-.313.07-.557.14-.661.21-1.636 1.322-3.064 2.819-4.351 4.455l1.322-5.152c-.104.348-1.949.314-2.019.697-.835 3.306-1.67 6.578-2.54 9.885l.173-.07s1.323-.348 1.532-.417c.174-.035.313-.105.348-.21a26.407 26.407 0 015.047-7.518c-.417 1.462-.835 2.89-1.148 4.386-.07.418-.244 1.253 1.949.383.174-.07 1.044-.905 1.531-1.462.105-.104-.034-.244-.139-.209-.313.14-.73.244-1.148.383.417-1.95.94-3.898 1.496-5.813l-1.392.453zm-10.303-1.009c-.14.105-.662.905-1.114 1.88l-.14.313s.244-.104.314-.104c.104-.035.87-.244.87-.244.278-.07.8-.174.87-.313.453-1.01.488-1.08 1.253-2.228a12.62 12.62 0 01-1.079.313c-.383.105-.73.174-.974.383zM9.503 65.927c-.244.383-.453.766-.662 1.08.314-3.029 1.219-5.953 2.263-8.842-.174.453-2.158.279-2.332.766-1.288 3.585-2.402 7.205-2.367 11.034l1.253-.418c.487-.139.975-.243 1.079-.348a34.977 34.977 0 003.411-4.977c-.313.522-2.332 1.218-2.645 1.705zm61.855-25.445c.278-.557.522-1.148.73-1.74-.417.14-.66.244-1.183.348-.557.104-.974.174-1.079.418-.104.243-.209.522-.313.765-.696 1.497-1.74 2.924-3.063 3.864-.557-.452-.174-1.775.313-2.993.035-.035.07-.105.104-.14-.626.21-1.044.314-1.6.592-.175.07-.349.14-.418.21-1.497 1.983-3.064 3.828-4.943 5.43-.627-.105-.94-.523-.975-1.289 1.67-1.079 2.576-2.715 2.576-4.943 0 .035 0 0 0 0-.661.244-1.358.453-2.019.697-.104.035-.209.07-.244.07-1.288.591-2.053 1.113-3.063 2.123.488-.488 1.775-.244 2.297-.766.279-.279.523-.487.766-.696-.139 1.427-.626 2.61-1.566 3.515-.209.07-.383.105-.592.174.174-.557.314-1.114.418-1.67-.07.278-1.81.208-1.88.487a19.881 19.881 0 01-2.053 5.465c-.453.07-.94.104-1.15.383-.347.417-.626.765-.939 1.079-1.288-.662.661-4.212.94-5.152.383-1.253.766-2.61 1.183-4.003.488-.592.975-1.183 1.462-1.81a69.196 69.196 0 015.256-1.462c-1.148.279-2.436-.035-3.585.209-.313.07-.626.174-.974.244 1.078-1.602 1.88-3.272 1.775-4.77-.383.14-.766.244-1.149.384-.418.104-.835.243-.905.313-1.427 1.288-2.297 3.098-2.993 4.978a70.597 70.597 0 00-6.44 2.262c1.044-.417 2.54.209 3.585-.209a72.674 72.674 0 012.472-.974c-.14.452-.279.87-.418 1.322-.975 1.15-1.95 2.228-2.646 3.029-1.6 1.914-3.306 3.724-4.803 5.708-.453-.034-.87-.139-1.114-.417-.835-.975.348-2.576 1.532-3.655a.98.98 0 01.139.383c.035.104 2.019-.766 2.053-.697-.208-.417-.556-.591-1.009-.591h-.104c-.557.035-1.219.278-1.776.591l-.034.035a5.32 5.32 0 00-.801.522c-1.218.905-3.864 4.003-1.114 4.56.627.105 1.288-.278 1.775-.139-.835 1.149-1.636 2.367-2.262 3.725h.035c1.462-.418 3.724-.836 4.455-2.367.696-1.462.313-1.81-.383-1.88.348-.487.696-.94 1.08-1.427 1.322-1.636 2.75-3.168 4.107-4.769-.662 1.67-2.75 5.778-1.567 6.614.766.557 1.88.174 2.89-.453 0 0 .034 0 .104-.07.313-.208.626-.452.94-.66.243-.07.522-.105.73-.175.523-.14.836-.174.906-.278a20.688 20.688 0 001.81-3.62c.487.417 1.079.905 1.322.94.453.069.905-.314 1.358-.418.453-.105.94-.244 1.358-.453.034 0 .104-.035.278-.139 1.183-.627 2.193-1.497 3.063-2.506-.104.522.105.905 1.044.696h.07c.453-.07 1.636-.348 2.054-.522.139-.035.243-.105.348-.14a60.852 60.852 0 01-.975 2.194c-3.342 2.332-6.37 5.116-8.841 8.354-1.567 2.018-6.335 9.12-3.272 11.417.417.313.94.383 1.462.313-.035 0-.035.035-.07.035.07-.035.105-.035.174-.07.696-.104 1.393-.383 1.95-.661h.034c.035 0 .07-.035.105-.035h-.035c3.411-1.775 4.908-7.449 6.474-10.756 1.462-3.098 2.855-6.196 4.247-9.294 2.645-1.914 5.813-3.898 9.154-5.256a52.537 52.537 0 00-8.702 4.177c.801-1.462 1.462-3.028 2.124-4.56zm-8.041 13.68a615.415 615.415 0 01-3.272 6.892c-.836 1.706-1.532 3.585-2.82 4.943-2.819-1.253-.07-6.996 1.08-8.946 1.914-3.307 4.664-6.126 7.623-8.598-.87 1.95-1.706 3.83-2.611 5.71zM78.04 40.935c.14-.035.28-.105.418-.14-.139 0-.278.07-.417.14zm-43.231 4.908c.383-.8 1.044-1.88 1.566-2.959a11.493 11.493 0 01-3.899 1.323c-.696 1.95-1.113 4.142-1.6 5.813-.14.487-.28.974-.419 1.427-.243.453-.452.905-.696 1.392-.07.174-.174.314-.243.488-.105-.14-.244-.244-.453-.348-.07-.07-1.914.557-2.053.696-2.298 2.471-3.62 5.36-4.352 8.632.523-.174 1.08-.348 1.602-.522.208-.07.383-.104.452-.139 1.67-1.044 2.994-2.541 4.142-4.212-.417 1.567-.8 3.168-1.183 4.769.07-.348 1.95-.313 2.054-.696.835-3.586 1.74-7.136 2.784-10.686.766-1.671 1.532-3.342 2.298-4.978zm-9.782 14.445c.557-2.018 1.393-3.863 2.576-5.569.313-.104.87-.174 1.288-.278-1.044 2.053-2.262 4.177-3.864 5.847zm14.376-10.86a11.96 11.96 0 00-1.01.348c-.695 1.393-2.575 4.421-3.654 5.778.348-1.496.905-3.55 1.497-5.047l-2.054.592c-.278.487-.87 2.193-1.183 3.411-.418 1.706-.87 3.029-.975 4.63a56.4 56.4 0 011.288-.418c.383-.104.696-.174.766-.244.73-.661 2.262-2.645 3.028-3.69a8.085 8.085 0 00-.209.94c-.14.592-.209 1.358-.383 1.915l1.81-.557c.07 0 .105-.035.14-.035.034 0 .034-.035.07-.035.382-1.844 1.426-6.021 1.879-7.831v-.035c-.035 0-.105.035-.14.035-.278.034-.591.139-.87.243z" fill="#532F2E"/><path d="M6.405 70l2.262-.696.348-.453-1.392-.034L6.405 70zm3.168-3.829l-.14-.104.174-.314 2.507-1.496-.383.626-1.462 1.288h-.696zm5.638-9.572l.105-.314 1.984-.522-.14.557-1.287.418-.662-.14z" fill="#532F2E"/></svg>