<svg width="87" height="40" viewBox="0 0 87 40" fill="none" xmlns="http://www.w3.org/2000/svg">
<path d="M82.3 39H4.7C2.7 39 1 37.4 1 35.3V4.7C1 2.7 2.6 1 4.7 1H82.4C84.4 1 86.1 2.6 86.1 4.7V35.4C86 37.4 84.4 39 82.3 39Z" stroke="#999999" stroke-miterlimit="10"/>
<path d="M13 14.9999V9.59993H11.1V8.29993H16.4V9.49993H14.5V14.8999H13V14.9999Z" fill="#999999"/>
<path d="M16.2 12.6C16.2 11.2 17.2 10.1 18.7 10.1C20.3 10.1 21.3 11.3 21.3 12.6C21.3 14 20.3 15.1 18.7 15.1C17.1 15.1 16.2 14 16.2 12.6ZM20 12.6C20 11.8 19.6 11.2 18.8 11.2C18 11.2 17.6 11.9 17.6 12.6C17.6 13.4 18 14 18.8 14C19.5 14 20 13.3 20 12.6Z" fill="#999999"/>
<path d="M22.4 16.2L23 15.3C23.4 15.7 23.9 15.9 24.5 15.9C25.1 15.9 25.8 15.6 25.8 14.7V14.2C25.4 14.7 24.9 15 24.3 15C23.1 15 22.2 14.2 22.2 12.5C22.2 10.9 23.1 10 24.3 10C24.9 10 25.4 10.3 25.8 10.7V10.2H27.1V14.7C27.1 16.5 25.7 17 24.5 17C23.6 17 23 16.8 22.4 16.2ZM25.8 13.3V11.7C25.6 11.4 25.1 11.1 24.7 11.1C24 11.1 23.5 11.6 23.5 12.4C23.5 13.2 24 13.7 24.7 13.7C25.1 13.8 25.6 13.6 25.8 13.3Z" fill="#999999"/>
<path d="M28.3 12.6C28.3 11.2 29.3 10.1 30.8 10.1C32.2 10.1 33.2 11.2 33.2 12.8V13.1H29.6C29.7 13.7 30.2 14.2 31 14.2C31.4 14.2 32 14 32.3 13.7L32.9 14.5C32.4 14.9 31.7 15.2 30.9 15.2C29.4 15.1 28.3 14.1 28.3 12.6ZM30.8 11.1C30 11.1 29.7 11.7 29.6 12.2H32C31.9 11.7 31.6 11.1 30.8 11.1Z" fill="#999999"/>
<path d="M34.6 13.8V11.3H33.8V10.2H34.6V8.90002H35.9V10.2H36.9V11.3H35.9V13.5C35.9 13.8 36.1 14 36.3 14C36.5 14 36.7 13.9 36.7 13.9L37 14.9C36.8 15.1 36.5 15.2 35.9 15.2C35.1 15.1 34.6 14.7 34.6 13.8Z" fill="#999999"/>
<path d="M41.2 14.9999V12.0999C41.2 11.3999 40.9 11.1999 40.3 11.1999C39.8 11.1999 39.4 11.4999 39.2 11.7999V14.9999H37.9V8.29993H39.2V10.7999C39.5 10.3999 40.1 9.99993 40.9 9.99993C42 9.99993 42.5 10.5999 42.5 11.4999V14.8999H41.2V14.9999Z" fill="#999999"/>
<path d="M43.7 12.6C43.7 11.2 44.7 10.1 46.2 10.1C47.6 10.1 48.6 11.2 48.6 12.8V13.1H45C45.1 13.7 45.6 14.2 46.4 14.2C46.8 14.2 47.4 14 47.7 13.7L48.3 14.5C47.8 14.9 47.1 15.2 46.3 15.2C44.8 15.1 43.7 14.1 43.7 12.6ZM46.2 11.1C45.4 11.1 45.1 11.7 45 12.2H47.4C47.4 11.7 47.1 11.1 46.2 11.1Z" fill="#999999"/>
<path d="M49.8 15V10.2H51.1V10.9C51.4 10.5 52 10.1 52.6 10.1V11.3C52.5 11.3 52.4 11.3 52.2 11.3C51.8 11.3 51.2 11.5 51 11.8V15H49.8Z" fill="#999999"/>
<path d="M60.7 15L59.7 11.7L58.7 15H57.3L55.8 10.2H57.1L58 13.4L59.1 10.2H60.2L61.3 13.4L62.2 10.2H63.5L62 15H60.7Z" fill="#999999"/>
<path d="M64.3 8.89998C64.3 8.49998 64.6 8.09998 65.1 8.09998C65.5 8.09998 65.9 8.39998 65.9 8.89998C65.9 9.29998 65.6 9.69998 65.1 9.69998C64.6 9.69998 64.3 9.29998 64.3 8.89998ZM64.4 15V10.2H65.7V15H64.4Z" fill="#999999"/>
<path d="M67.4 13.8V11.3H66.6V10.2H67.4V8.90002H68.7V10.2H69.7V11.3H68.7V13.5C68.7 13.8 68.9 14 69.1 14C69.3 14 69.5 13.9 69.5 13.9L69.8 14.9C69.6 15.1 69.3 15.2 68.7 15.2C67.9 15.1 67.4 14.7 67.4 13.8Z" fill="#999999"/>
<path d="M74.1 14.9999V12.0999C74.1 11.3999 73.8 11.1999 73.2 11.1999C72.7 11.1999 72.3 11.4999 72.1 11.7999V14.9999H70.8V8.29993H72.1V10.7999C72.4 10.3999 73 9.99993 73.8 9.99993C74.9 9.99993 75.4 10.5999 75.4 11.4999V14.8999H74.1V14.9999Z" fill="#999999"/>
<path fill-rule="evenodd" clip-rule="evenodd" d="M59.3 19.2H55.9L53 26.4L50.3 19.2999H46.9L44.6 32.7H48.1L49.2 25L51.4 30.5L52.2 32.7H53.6L56.9 24.9L57.9 32.7H61.3L59.3 19.2Z" fill="#999999"/>
<path fill-rule="evenodd" clip-rule="evenodd" d="M41.3 19.2C40.2 19.2 39.2 20.1 39.2 21.2V25.9V25.7999V30.7C39.2 31.8 40.1 32.7 41.3 32.7C42.4 32.7 43.4 31.8 43.4 30.7V25.7999V25.9V21.2C43.4 20.1 42.4 19.2 41.3 19.2Z" fill="#999999"/>
<path fill-rule="evenodd" clip-rule="evenodd" d="M71 19.2999H67.1L62 32.6999H65.7L66.6 30.3999H71.4L72.3 32.6999H76L71 19.2999Z" fill="#999999"/>
<path fill-rule="evenodd" clip-rule="evenodd" d="M20 19.2999H16.2L11 32.6999H14.7L15.6 30.3999H20.4L21.3 32.6999H25L20 19.2999Z" fill="#999999"/>
<path fill-rule="evenodd" clip-rule="evenodd" d="M35.9 25.2H31.4V27.7H34.1C34 28.3 33.8 28.8 33.5 29.1C33 29.6 32.3 29.8 31.5 29.8C30.5 29.8 29.8 29.5 29.2 28.9C28.4 28.1 28.1 27.1 28.1 25.9C28.1 25.3 28.2 24.8 28.4 24.2C29 22.7 30 22 31.4 22C32.1 22 32.7 22.2 33.2 22.6C33.6 22.9 33.9 23.3 34.1 23.9L37.2 22.6C36.7 21.5 36 20.7 35.3 20.2C34.2 19.4 33 19.1 31.5 19.1C29.2 19.1 27.5 19.8 26.2 21.3C25.1 22.6 24.5 24.1 24.5 26C24.5 27.7 25 29.1 25.9 30.3C27.2 31.9 28.9 32.7 31.3 32.7C31.9 32.7 32.4 32.6 33 32.5C33.8 32.3 34.4 32 35.1 31.6C36.2 30.9 37 29.9 37.5 28.5C37.8 27.6 38 26.5 38 25.1L35.9 25.2Z" fill="#999999"/>
</svg>
