<svg width="50" height="50" viewBox="0 0 50 50" fill="none" xmlns="http://www.w3.org/2000/svg">
<circle cx="25" cy="25" r="25" fill="#E53935"/>
<g clip-path="url(#clip0)">
<path d="M35.1518 13.7851C32.8837 11.5169 29.1454 11.5169 26.8352 13.7851L19.6947 20.7577C17.4265 23.1938 17.4265 26.7641 19.6947 29.2423C19.8627 29.4103 20.1987 29.5783 20.3667 29.7463L22.8029 27.3102C22.6349 27.1421 22.2989 26.9741 22.1308 26.8061C21.1648 25.84 21.1648 24.2019 22.1308 23.2358L29.3134 16.0533C30.2795 15.0872 31.9176 15.0872 32.8837 16.0533C33.8497 17.0194 33.8497 18.6575 32.8837 19.6236L30.7835 21.7237C31.4136 23.0258 31.5816 24.4959 31.4136 25.798L35.1518 22.0598C37.63 19.7916 37.63 16.0533 35.1518 13.7851Z" fill="white"/>
<path d="M27.5073 20.2957L25.0711 22.7318C25.0711 22.7318 25.5751 23.0679 25.7011 23.2359C26.6672 24.202 26.6672 25.8401 25.7011 26.8062L18.5606 33.9467C17.5945 34.9128 15.9564 34.9128 14.9903 33.9467C14.0242 32.9806 14.0242 31.3425 14.9903 30.3764L17.0905 28.2763C16.4184 26.9742 16.9225 26.1761 16.4184 24.202L12.6801 27.9402C10.412 30.2084 10.412 33.9467 12.6801 36.2569C14.9483 38.5671 18.6866 38.5251 20.9968 36.2569L28.1373 29.1163C30.4055 26.8482 30.4055 23.1099 28.1373 20.7997C27.8433 20.5897 27.5073 20.2957 27.5073 20.2957Z" fill="white"/>
</g>
<defs>
<clipPath id="clip0">
<rect width="26" height="26" fill="white" transform="translate(11 12)"/>
</clipPath>
</defs>
</svg>
