<svg width="140" height="143" viewBox="0 0 140 143" fill="none" xmlns="http://www.w3.org/2000/svg">
<g opacity="0.1" clip-path="url(#clip0)">
<path d="M93.3333 75.1302H127.692C126.608 84.427 124.03 93.3304 120.122 101.272C116.215 109.213 111.065 116.018 105 121.251L94.5583 130.265L100.975 142.734L111.417 133.72C120.206 126.178 127.413 115.959 132.4 103.969C137.386 91.9795 139.996 78.5903 140 64.9896V15.0377C140 11.0533 138.771 7.23209 136.583 4.4147C134.395 1.59732 131.428 0.0145264 128.333 0.0145264H93.3333C90.2391 0.0145264 87.2717 1.59732 85.0838 4.4147C82.8958 7.23209 81.6667 11.0533 81.6667 15.0377V60.1071C81.6667 64.0915 82.8958 67.9127 85.0838 70.7301C87.2717 73.5474 90.2391 75.1302 93.3333 75.1302Z" fill="#E53935"/>
<path d="M11.6666 75.1302H46.0249C44.9408 84.427 42.3628 93.3304 38.4556 101.272C34.5485 109.213 29.398 116.018 23.3333 121.251L12.8916 130.265L19.2499 142.734L29.7499 133.72C38.5391 126.178 45.7466 115.959 50.7328 103.969C55.719 91.9795 58.3297 78.5903 58.3333 64.9896V15.0377C58.3333 11.0533 57.1041 7.23209 54.9162 4.4147C52.7282 1.59732 49.7608 0.0145264 46.6666 0.0145264H11.6666C8.57239 0.0145264 5.60493 1.59732 3.41701 4.4147C1.22908 7.23209 -8.39233e-05 11.0533 -8.39233e-05 15.0377V60.1071C-8.39233e-05 64.0915 1.22908 67.9127 3.41701 70.7301C5.60493 73.5474 8.57239 75.1302 11.6666 75.1302Z" fill="#E53935"/>
</g>
<defs>
<clipPath id="clip0">
<rect width="140" height="142.72" fill="white" transform="translate(140 142.734) rotate(-180)"/>
</clipPath>
</defs>
</svg>
