<svg width="248" height="248" viewBox="0 0 248 248" fill="none" xmlns="http://www.w3.org/2000/svg">
<g clip-path="url(#clip0)">
<path d="M115.281 179.94C113.274 179.94 111.648 181.567 111.648 183.573C111.648 185.58 113.274 187.206 115.281 187.206H132.719C134.726 187.206 136.352 185.58 136.352 183.573C136.352 181.567 134.726 179.94 132.719 179.94H115.281Z" fill="#E53935"/>
<path d="M43.5938 123.532H67.6071C69.0738 127.349 72.7691 130.071 77.0965 130.071C81.4239 130.071 85.1192 127.349 86.5859 123.532H91.3856C93.3923 123.532 95.0184 121.906 95.0184 119.899C95.0184 117.893 93.3923 116.266 91.3856 116.266H86.5859C85.1192 112.449 81.4239 109.727 77.0965 109.727C72.7691 109.727 69.0738 112.449 67.6071 116.266H43.5938C41.587 116.266 39.9609 117.893 39.9609 119.899C39.9609 121.906 41.587 123.532 43.5938 123.532ZM77.0965 116.993C78.6993 116.993 80.0028 118.296 80.0028 119.899C80.0028 121.502 78.6993 122.806 77.0965 122.806C75.4937 122.806 74.1903 121.502 74.1903 119.899C74.1903 118.296 75.4937 116.993 77.0965 116.993Z" fill="#E53935"/>
<path d="M43.5938 102.704H48.2321C49.6988 106.521 53.3941 109.243 57.7215 109.243C62.0489 109.243 65.7442 106.521 67.2109 102.704H91.3856C93.3923 102.704 95.0184 101.077 95.0184 99.0712C95.0184 97.0649 93.3923 95.4384 91.3856 95.4384H67.2109C65.7442 91.621 62.0489 88.8993 57.7215 88.8993C53.3941 88.8993 49.6988 91.621 48.2321 95.4384H43.5938C41.587 95.4384 39.9609 97.0649 39.9609 99.0712C39.9609 101.077 41.587 102.704 43.5938 102.704ZM57.7215 96.1649C59.3243 96.1649 60.6278 97.4684 60.6278 99.0712C60.6278 100.674 59.3243 101.977 57.7215 101.977C56.1187 101.977 54.8153 100.674 54.8153 99.0712C54.8153 97.4684 56.1187 96.1649 57.7215 96.1649Z" fill="#E53935"/>
<path d="M92.1122 69.2821C94.1185 69.2821 95.745 67.6556 95.745 65.6493C95.745 63.6429 94.1185 62.0165 92.1122 62.0165C90.1058 62.0165 88.4793 63.6429 88.4793 65.6493C88.4793 67.6556 90.1058 69.2821 92.1122 69.2821Z" fill="#E53935"/>
<path d="M82.1016 69.2821C84.1079 69.2821 85.7344 67.6556 85.7344 65.6493C85.7344 63.6429 84.1079 62.0165 82.1016 62.0165C80.0952 62.0165 78.4688 63.6429 78.4688 65.6493C78.4688 67.6556 80.0952 69.2821 82.1016 69.2821Z" fill="#E53935"/>
<path d="M72.091 69.2821C74.0973 69.2821 75.7238 67.6556 75.7238 65.6493C75.7238 63.6429 74.0973 62.0165 72.091 62.0165C70.0846 62.0165 68.4582 63.6429 68.4582 65.6493C68.4582 67.6556 70.0846 69.2821 72.091 69.2821Z" fill="#E53935"/>
<path d="M237.102 24.4527H235.741L236.756 23.438C239.795 20.3985 239.795 15.4525 236.756 12.4131L228.803 4.46062C225.764 1.42165 220.818 1.42165 217.778 4.46062L197.788 24.4522H10.8984C4.88928 24.4522 0 29.341 0 35.3507V186.216C0 193.561 5.97525 199.536 13.3203 199.536H99.3671V225.235H81.8594C77.1856 225.235 73.3828 229.038 73.3828 233.711V237.341C73.3828 242.015 77.1856 245.818 81.8594 245.818H166.141C170.814 245.818 174.617 242.015 174.617 237.341V233.711C174.617 229.038 170.814 225.235 166.141 225.235H148.633V199.536H187.453C189.46 199.536 191.086 197.91 191.086 195.904C191.086 193.897 189.46 192.271 187.453 192.271H13.3203C9.98152 192.271 7.26562 189.555 7.26562 186.216V175.463H240.734V186.216C240.734 189.555 238.018 192.271 234.68 192.271H204.406C202.399 192.271 200.773 193.897 200.773 195.904C200.773 197.91 202.399 199.536 204.406 199.536H234.68C242.025 199.536 248 193.561 248 186.216V35.3512C248 29.342 243.111 24.4527 237.102 24.4527ZM166.141 232.501C166.809 232.501 167.352 233.044 167.352 233.712V237.342C167.352 238.009 166.809 238.553 166.141 238.553H81.8594C81.1914 238.553 80.6484 238.009 80.6484 237.342V233.712C80.6484 233.044 81.1914 232.501 81.8594 232.501H166.141ZM106.633 199.537H141.368V225.236H106.633V199.537ZM222.916 9.59887C223.123 9.39204 223.46 9.39253 223.666 9.59887L231.618 17.5509C231.825 17.7577 231.825 18.0943 231.618 18.3007L224.03 25.8884L215.328 17.1866L222.916 9.59887ZM210.191 22.3244L218.892 31.0262L216.358 33.5599L207.657 24.8581L210.191 22.3244ZM202.519 29.9959L211.221 38.6977L168.232 81.6865L159.53 72.9847L202.519 29.9959ZM197.141 63.209C202.082 63.209 206.102 67.2288 206.102 72.17C206.102 77.1111 202.082 81.1309 197.141 81.1309C192.2 81.1309 188.18 77.1111 188.18 72.17C188.18 72.1123 188.187 72.0566 188.188 71.999L196.971 63.2177C197.028 63.2168 197.083 63.209 197.141 63.209ZM161.924 85.6535L151.172 90.0448L155.563 79.2932L161.924 85.6535ZM240.734 168.198H7.26562V35.3512C7.26562 33.3483 8.89506 31.7183 10.8984 31.7183H190.523L184.983 37.2577H61.5156C59.5089 37.2577 57.8828 38.8842 57.8828 40.8905C57.8828 42.8967 59.5089 44.5233 61.5156 44.5233H177.718L152.094 70.1487C151.37 70.8791 150.804 71.7316 150.414 72.6858L142.299 92.5529C141.555 94.3776 141.974 96.457 143.368 97.8501C144.303 98.7854 145.547 99.2814 146.816 99.2814C147.437 99.2814 148.065 99.1622 148.665 98.9176L168.532 90.8034C169.459 90.4246 170.288 89.8763 171.005 89.1812L182.056 78.1311C184.437 84.1369 190.298 88.397 197.141 88.397C206.088 88.397 213.368 81.1178 213.368 72.1704C213.368 65.3282 209.109 59.4677 203.104 57.0865L215.668 44.5238H227.929V155.394H226.004L212.839 132.591C211.836 130.853 209.613 130.258 207.876 131.261C206.139 132.264 205.544 134.486 206.547 136.224L217.615 155.394H166.867L161.424 145.966L186.798 102.018L198.07 121.542C199.073 123.279 201.295 123.875 203.032 122.871C204.77 121.868 205.365 119.646 204.362 117.909L192.336 97.0804C191.18 95.078 189.11 93.8825 186.797 93.8825C184.485 93.8825 182.414 95.078 181.258 97.0804L157.228 138.701L126.396 85.2985C125.24 83.296 123.169 82.1006 120.856 82.1006C118.544 82.1006 116.474 83.296 115.318 85.2985L107.126 99.4863V60.5459C107.126 55.8722 103.323 52.0694 98.6497 52.0694H36.3281C31.6544 52.0694 27.8516 55.8722 27.8516 60.5459V139.983C27.8516 143.322 30.5675 146.038 33.9062 146.038H80.2508L74.849 155.394H20.071V44.5233H44.5625C46.5693 44.5233 48.1953 42.8967 48.1953 40.8905C48.1953 38.8842 46.5693 37.2577 44.5625 37.2577H18.8601C15.5213 37.2577 12.8054 39.9735 12.8054 43.3123V156.604C12.8054 159.943 15.5213 162.659 18.8601 162.659H229.14C232.479 162.659 235.195 159.943 235.195 156.604V43.3123C235.195 39.9735 232.479 37.2577 229.14 37.2577H222.935L228.475 31.7183H237.102C239.105 31.7183 240.734 33.3483 240.734 35.3512V168.198ZM99.8621 80.6649V138.771H35.1172V80.6649H99.8621ZM35.1172 73.3993V60.5449C35.1172 59.8775 35.6602 59.334 36.3281 59.334H98.6512C99.3192 59.334 99.8621 59.8775 99.8621 60.5449V73.3993H35.1172ZM88.6406 146.037H101.073C104.412 146.037 107.128 143.321 107.128 139.982V132.287C108.036 132.723 109.048 132.959 110.108 132.959C112.588 132.959 114.808 131.676 116.048 129.529L122.231 118.821C122.418 118.498 122.703 118.429 122.909 118.429C123.116 118.429 123.402 118.498 123.588 118.821L127.4 125.423C128.64 127.571 130.861 128.853 133.341 128.853C135.821 128.853 138.042 127.571 139.282 125.423L140.228 123.784L158.477 155.393H83.2389L88.6406 146.037ZM107.128 120.126V114.017L120.858 90.2352L136.033 116.518L133.341 121.181L129.88 115.188C128.425 112.668 125.819 111.163 122.909 111.163C119.999 111.163 117.393 112.668 115.938 115.188L110.107 125.287L107.128 120.126Z" fill="#E53935"/>
</g>
<defs>
<clipPath id="clip0">
<rect width="248" height="248" fill="white"/>
</clipPath>
</defs>
</svg>
