<svg width="50" height="50" viewBox="0 0 50 50" fill="none" xmlns="http://www.w3.org/2000/svg">
<circle cx="25" cy="25" r="25" fill="white"/>
<path d="M39.62 24.53C36.25 18.3 30.34 14.53 23.8 14.53C17.26 14.53 11.34 18.3 7.99997 24.53L7.71997 25L7.97997 25.48C11.35 31.71 17.26 35.48 23.8 35.48C30.34 35.48 36.26 31.76 39.62 25.48L39.88 25L39.62 24.53ZM23.8 33.43C18.17 33.43 13 30.29 9.99997 25C13 19.71 18.17 16.57 23.8 16.57C29.43 16.57 34.54 19.72 37.59 25C34.54 30.29 29.42 33.43 23.8 33.43Z" fill="#E53935"/>
<path d="M24.09 18.17C22.7341 18.1799 21.4116 18.5914 20.2894 19.3525C19.1673 20.1136 18.2959 21.1901 17.7852 22.4462C17.2745 23.7023 17.1476 25.0815 17.4203 26.4097C17.6931 27.738 18.3533 28.9555 19.3177 29.9087C20.282 30.8619 21.5072 31.5079 22.8385 31.7652C24.1698 32.0225 25.5474 31.8794 26.7975 31.3542C28.0475 30.8289 29.1139 29.945 29.8619 28.8141C30.6099 27.6831 31.0059 26.3559 31 25C30.9961 24.0974 30.8141 23.2045 30.4645 22.3724C30.1148 21.5403 29.6044 20.7854 28.9625 20.1509C28.3206 19.5164 27.5598 19.0148 26.7237 18.6749C25.8876 18.335 24.9926 18.1634 24.09 18.17ZM24.09 29.89C23.1323 29.8801 22.1988 29.5875 21.4068 29.0488C20.6149 28.5101 19.9997 27.7495 19.6387 26.8623C19.2776 25.9752 19.1867 25.0011 19.3774 24.0625C19.5682 23.1239 20.032 22.2626 20.7106 21.5867C21.3892 20.9108 22.2525 20.4505 23.1919 20.2636C24.1312 20.0768 25.1049 20.1716 25.9906 20.5363C26.8762 20.901 27.6344 21.5192 28.1698 22.3134C28.7052 23.1075 28.9941 24.0422 29 25C29.0027 25.6446 28.8774 26.2833 28.6313 26.8791C28.3853 27.4749 28.0234 28.0159 27.5666 28.4708C27.1099 28.9256 26.5674 29.2853 25.9706 29.5289C25.3738 29.7726 24.7346 29.8953 24.09 29.89Z" fill="#E53935"/>
</svg>
