<svg width="87" height="40" fill="none" xmlns="http://www.w3.org/2000/svg"><path d="M82.3 39H4.7c-2 0-3.7-1.6-3.7-3.7V4.7C1 2.7 2.6 1 4.7 1h77.7c2 0 3.7 1.6 3.7 3.7v30.7c-.1 2-1.7 3.6-3.8 3.6z" stroke="#999" stroke-miterlimit="10"/><path d="M13 15V9.6h-1.9V8.3h5.3v1.2h-1.9v5.4H13v.1zm3.2-2.4c0-1.4 1-2.5 2.5-2.5 1.6 0 2.6 1.2 2.6 2.5 0 1.4-1 2.5-2.6 2.5s-2.5-1.1-2.5-2.5zm3.8 0c0-.8-.4-1.4-1.2-1.4-.8 0-1.2.7-1.2 1.4 0 .8.4 1.4 1.2 1.4.7 0 1.2-.7 1.2-1.4zm2.4 3.6l.6-.9c.4.4.9.6 1.5.6s1.3-.3 1.3-1.2v-.5c-.4.5-.9.8-1.5.8-1.2 0-2.1-.8-2.1-2.5 0-1.6.9-2.5 2.1-2.5.6 0 1.1.3 1.5.7v-.5h1.3v4.5c0 1.8-1.4 2.3-2.6 2.3-.9 0-1.5-.2-2.1-.8zm3.4-2.9v-1.6c-.2-.3-.7-.6-1.1-.6-.7 0-1.2.5-1.2 1.3s.5 1.3 1.2 1.3c.4.1.9-.1 1.1-.4zm2.5-.7c0-1.4 1-2.5 2.5-2.5 1.4 0 2.4 1.1 2.4 2.7v.3h-3.6c.1.6.6 1.1 1.4 1.1.4 0 1-.2 1.3-.5l.6.8c-.5.4-1.2.7-2 .7-1.5-.1-2.6-1.1-2.6-2.6zm2.5-1.5c-.8 0-1.1.6-1.2 1.1H32c-.1-.5-.4-1.1-1.2-1.1zm3.8 2.7v-2.5h-.8v-1.1h.8V8.9h1.3v1.3h1v1.1h-1v2.2c0 .3.2.5.4.5s.4-.1.4-.1l.3 1c-.2.2-.5.3-1.1.3-.8-.1-1.3-.5-1.3-1.4zm6.6 1.2v-2.9c0-.7-.3-.9-.9-.9-.5 0-.9.3-1.1.6V15h-1.3V8.3h1.3v2.5c.3-.4.9-.8 1.7-.8 1.1 0 1.6.6 1.6 1.5v3.4h-1.3v.1zm2.5-2.4c0-1.4 1-2.5 2.5-2.5 1.4 0 2.4 1.1 2.4 2.7v.3H45c.1.6.6 1.1 1.4 1.1.4 0 1-.2 1.3-.5l.6.8c-.5.4-1.2.7-2 .7-1.5-.1-2.6-1.1-2.6-2.6zm2.5-1.5c-.8 0-1.1.6-1.2 1.1h2.4c0-.5-.3-1.1-1.2-1.1zm3.6 3.9v-4.8h1.3v.7c.3-.4.9-.8 1.5-.8v1.2h-.4c-.4 0-1 .2-1.2.5V15h-1.2zm10.9 0l-1-3.3-1 3.3h-1.4l-1.5-4.8h1.3l.9 3.2 1.1-3.2h1.1l1.1 3.2.9-3.2h1.3L62 15h-1.3zm3.6-6.1c0-.4.3-.8.8-.8.4 0 .8.3.8.8 0 .4-.3.8-.8.8s-.8-.4-.8-.8zm.1 6.1v-4.8h1.3V15h-1.3zm3-1.2v-2.5h-.8v-1.1h.8V8.9h1.3v1.3h1v1.1h-1v2.2c0 .3.2.5.4.5s.4-.1.4-.1l.3 1c-.2.2-.5.3-1.1.3-.8-.1-1.3-.5-1.3-1.4zm6.7 1.2v-2.9c0-.7-.3-.9-.9-.9-.5 0-.9.3-1.1.6V15h-1.3V8.3h1.3v2.5c.3-.4.9-.8 1.7-.8 1.1 0 1.6.6 1.6 1.5v3.4h-1.3v.1z" fill="#999"/><path fill-rule="evenodd" clip-rule="evenodd" d="M59.3 19.2h-3.4L53 26.4l-2.7-7.1h-3.4l-2.3 13.4h3.5l1.1-7.7 2.2 5.5.8 2.2h1.4l3.3-7.8 1 7.8h3.4l-2-13.5zm-18 0c-1.1 0-2.1.9-2.1 2v4.7-.1 4.9c0 1.1.9 2 2.1 2 1.1 0 2.1-.9 2.1-2v-4.9.1-4.7c0-1.1-1-2-2.1-2zm29.7.1h-3.9L62 32.7h3.7l.9-2.3h4.8l.9 2.3H76l-5-13.4zm-51 0h-3.8L11 32.7h3.7l.9-2.3h4.8l.9 2.3H25l-5-13.4zm15.9 5.9h-4.5v2.5h2.7c-.1.6-.3 1.1-.6 1.4-.5.5-1.2.7-2 .7-1 0-1.7-.3-2.3-.9-.8-.8-1.1-1.8-1.1-3 0-.6.1-1.1.3-1.7.6-1.5 1.6-2.2 3-2.2.7 0 1.3.2 1.8.6.4.3.7.7.9 1.3l3.1-1.3c-.5-1.1-1.2-1.9-1.9-2.4-1.1-.8-2.3-1.1-3.8-1.1-2.3 0-4 .7-5.3 2.2-1.1 1.3-1.7 2.8-1.7 4.7 0 1.7.5 3.1 1.4 4.3 1.3 1.6 3 2.4 5.4 2.4.6 0 1.1-.1 1.7-.2.8-.2 1.4-.5 2.1-.9 1.1-.7 1.9-1.7 2.4-3.1.3-.9.5-2 .5-3.4l-2.1.1z" fill="#999"/></svg>