<svg width="161" height="74" fill="none" xmlns="http://www.w3.org/2000/svg"><path d="M70.728 39.907c-.132-3.234-2.438-5.895-6.16-8.893a4726.378 4726.378 0 01-11.893-9.937c2.438-1.987 2.998-2.661 4.876-4.177 5.699-4.648 4.94-9.095 4.38-10.779C60.846 2.988 57.683.866 54.06.866H13.539C7.774.866 2.9 4.201 1.12 9.355c-1.91 5.591.264 11.688 5.832 16.27l11.53 9.431c-1.648.472-3.328 1.348-4.876 2.864-2.174 2.122-3.294 5.018-3.162 8.185.164 3.975 2.273 7.849 5.962 10.847L36.04 73.019l30.24-24.792c3.064-2.56 4.58-5.356 4.448-8.32zM39.004 6.929h15.055c1.087 0 2.042.506 2.273 1.18.263.707-.264 2.223-2.471 4.042-4.052 3.3-10.443 8.555-14.857 12.16V6.929zM10.64 20.841c-3.525-2.897-5.007-6.467-3.953-9.533.923-2.694 3.59-4.412 6.82-4.412H33.04v32.236c-6.49-5.288-17.822-14.552-22.4-18.29zm9.488 31.294c-2.306-1.887-3.657-4.211-3.756-6.367-.066-1.381.396-2.627 1.35-3.537 3.394-3.234 6.853-2.324 10.41.606 1.22.977 3.657 2.965 4.942 4.043v15.865l-12.946-10.61zm42.133-8.422l-23.29 19.032V32.058c.856-.707 3.294-2.459 4.843-3.739 2.569-2.122 5.567-2.29 8.07-.235 3.756 3.065 6.49 5.625 9.389 8.05 2.042 1.718 3.196 3.133 3.228 4.278.066 1.246-1.35 2.594-2.24 3.301zM84.4 2.449c3.69 0 6.193 1.347 6.193 4.278 0 1.482-1.219 2.998-2.108 3.806 2.075.977 3.195 2.56 3.195 4.514 0 3.301-1.976 5.726-6.588 5.726h-5.073V5.38l-.363-2.795L84.4 2.45zm-.922 7.31c2.075 0 2.7.134 3.03.168.429-.64.857-1.65.857-2.628 0-1.65-.857-2.223-2.8-2.223-.33 0-.692.034-1.087.068v4.614zm0 8.387h1.647c1.943 0 3.03-1.112 3.03-2.964 0-1.65-1.02-2.796-3.69-2.796h-.987v5.76zm19.601-7.511s-.758-.741-1.779-.741c-1.384 0-3.03 1.751-3.03 3.873v4.683l.296 2.358h-3.591V9.86l-.362-2.762 3.69-.404v2.492s1.317-2.526 3.623-2.526c.823 0 1.581.337 2.207 1.01l-1.054 2.965zm6.39 7.815l.297 2.358h-3.591V9.793l-.363-2.763 3.69-.404V18.45h-.033zm-1.68-17.348c.955 0 1.779.842 1.779 1.92 0 1.01-.824 1.819-1.779 1.819-1.021 0-1.878-.808-1.878-1.819 0-1.078.857-1.92 1.878-1.92zm14.792 9.802c-.988-1.246-2.306-1.684-3.261-1.684-2.306 0-3.294 2.223-3.294 4.682 0 2.291 1.021 4.48 3.195 4.48 2.306 0 4.381-2.189 4.381-2.189l.495 2.83s-2.01 2.122-5.502 2.122c-3.986 0-5.929-3.504-5.929-7.007 0-3.975 2.306-7.512 6.621-7.512 3.261 0 4.875 1.82 4.875 1.82l-1.581 2.458zm7.543 2.358l3.657-4.75.625-1.481h4.448l-5.403 6.231 5.666 7.512h-4.118l-4.875-6.905v4.547l.296 2.358h-3.59V3.224l-.363-2.762 3.69-.404v13.204h-.033zm-25.233 13.576v7.545s1.285-1.01 2.932-1.01c2.833 0 5.634 2.324 5.634 6.973 0 4.076-2.866 7.545-7.05 7.545-2.24 0-4.25-1.112-4.843-2.358V30.004l-.362-2.762 3.689-.404zm0 17.82a2.846 2.846 0 001.977.774c1.68 0 3.064-2.122 3.064-4.85 0-2.73-1.384-4.615-3.064-4.615-1.087 0-1.977.64-1.977.64v8.05zm19.767-7.278s-.758-.74-1.779-.74c-1.384 0-3.031 1.751-3.031 3.873v4.683l.297 2.358h-3.591V36.572l-.362-2.762 3.689-.404v2.493s1.318-2.527 3.624-2.527c.823 0 1.581.337 2.207 1.01l-1.054 2.999zm6.423 7.815l.296 2.358h-3.59V36.538l-.363-2.762 3.69-.404v11.823h-.033zm-1.713-17.348c.955 0 1.779.843 1.779 1.92 0 1.011-.824 1.82-1.779 1.82-1.021 0-1.878-.809-1.878-1.82.033-1.077.89-1.92 1.878-1.92zm14.793 9.803c-.989-1.246-2.306-1.684-3.262-1.684-2.306 0-3.294 2.223-3.294 4.682 0 2.29 1.021 4.48 3.195 4.48 2.306 0 4.382-2.19 4.382-2.19l.494 2.83s-2.01 2.122-5.501 2.122c-3.987 0-5.93-3.503-5.93-7.006 0-3.975 2.306-7.512 6.621-7.512 3.262 0 4.876 1.82 4.876 1.82l-1.581 2.458zm7.575 2.324l3.657-4.75.626-1.481h4.447l-5.403 6.231 5.667 7.512h-4.118l-4.876-6.905v4.547l.297 2.358h-3.591v-17.55l-.362-2.762 3.689-.404v13.204h-.033zM81.17 34.147h2.636l-.56 1.684h-2.108v4.817c0 .64.329.842.757.842.66 0 1.647-.505 2.043-.842l.23 1.988s-.988.943-2.932.943c-1.515 0-2.273-.809-2.273-2.93v-4.784h-1.087V34.18h1.087v-1.65l2.372-.27-.164 1.886zm7.71 9.398c-2.702 0-4.119-2.426-4.119-4.716 0-2.695 1.68-4.986 4.711-4.986 2.339 0 4.085 1.449 4.085 4.649 0 2.728-1.713 5.053-4.678 5.053zm.263-1.617c1.284 0 2.042-1.415 2.042-3.234s-.758-3.2-2.042-3.2c-1.285 0-2.043 1.415-2.043 3.2 0 1.819.79 3.234 2.043 3.234zm4.413 3.84l-.429 1.684H78.37v-1.684h15.187z" fill="#fff"/><path d="M39.005 6.93H54.06c1.087 0 2.042.505 2.273 1.178.264.708-.264 2.223-2.47 4.042-4.053 3.302-10.444 8.556-14.858 12.16V6.93z" fill="#6C5D2D"/><path d="M10.641 20.841c-3.525-2.897-5.007-6.467-3.953-9.533.923-2.694 3.59-4.412 6.82-4.412h19.534v32.236c-6.49-5.288-17.822-14.552-22.4-18.29z" fill="#BE5E33"/><path d="M20.129 52.134c-2.306-1.886-3.657-4.21-3.756-6.366-.066-1.381.395-2.627 1.35-3.537 3.394-3.234 6.853-2.324 10.41.606a374.7 374.7 0 014.942 4.042v15.866l-12.946-10.61z" fill="#6C5D2D"/><path d="M62.262 43.714l-23.29 19.032V32.059c.856-.708 3.294-2.46 4.842-3.74 2.57-2.121 5.567-2.29 8.07-.235 3.756 3.065 6.49 5.625 9.39 8.05 2.042 1.718 3.195 3.133 3.228 4.279.066 1.246-1.35 2.593-2.24 3.3z" fill="#68B8B8"/><path d="M79.161 64.295h-.692v-1.853l.363-.067c.131-.101.23-.202.329-.337.066-.135.132-.337.198-.573.033-.236.066-.505.099-.876.032-.336.032-.774.032-1.246l.066-2.56h3.262v5.592h.428v1.92h-.692v-1.28h-3.426v1.28h.033zm2.965-1.92v-4.952H80.28l-.066 2.156c-.033.707-.066 1.28-.099 1.718a2.299 2.299 0 01-.33 1.078h2.34zm2.503.64v-6.266h.725v4.75h.033l.922-1.887 1.45-2.897h.724v6.266h-.725v-4.783h-.032l-.857 1.751-1.515 3.032h-.725v.034zm6.885.067c-.23 0-.428-.034-.659-.1-.197-.068-.395-.136-.527-.27a1.251 1.251 0 01-.395-.438 1.635 1.635 0 01-.198-.607l.692-.235c.066.303.165.538.362.707.198.168.429.236.725.236.297 0 .56-.101.758-.27.198-.168.296-.505.296-.91 0-.336-.066-.606-.23-.808a.887.887 0 00-.725-.337h-.527v-.673h.527c.297 0 .527-.101.692-.303.165-.203.23-.438.23-.741 0-.337-.098-.573-.263-.741a1.072 1.072 0 00-.692-.236c-.296 0-.527.1-.692.236-.164.168-.296.37-.362.64l-.692-.236c.099-.438.297-.775.593-1.01.33-.237.692-.371 1.153-.371.56 0 .988.134 1.252.404.296.27.428.674.428 1.212 0 .102 0 .236-.033.371s-.066.27-.132.404a2.28 2.28 0 01-.23.37c-.099.102-.198.203-.33.237v.033c.165.068.297.169.396.27.099.1.165.236.23.37.066.135.1.27.1.404.032.135.032.27.032.405 0 .572-.165 1.01-.461 1.347-.296.472-.725.64-1.318.64zm6.391-.067L97.51 61.6h-1.944l-.362 1.415h-.758l1.78-6.266h.658l1.779 6.266h-.758zm-.988-3.706l-.33-1.38h-.032l-.33 1.38-.461 1.617h1.614l-.461-1.617zm2.998 3.706V56.75h.725v4.75h.033l.922-1.887 1.45-2.897h.724v6.265h-.724v-4.783h-.033l-.857 1.752-1.515 3.031h-.725v.034zm1.285-7.747c0 .067.033.134.066.202.033.067.066.135.131.168a.687.687 0 00.198.135.602.602 0 00.231.067.607.607 0 00.263-.067.687.687 0 00.198-.135c.066-.067.099-.134.132-.168.033-.068.033-.135.033-.202h.593a.78.78 0 01-.099.37.808.808 0 01-.198.37 1.04 1.04 0 01-.362.27c-.165.068-.33.101-.56.101-.231 0-.429-.033-.56-.1a1.036 1.036 0 01-.363-.27.806.806 0 01-.197-.37 1.77 1.77 0 01-.066-.371h.56zm7.082 7.747V60.15h-2.075v2.864h-.725v-6.266h.725v2.762h2.075v-2.76h.725v6.266h-.725zm4.941 0v-6.266h.725v4.75h.033l.922-1.887 1.45-2.897h.725v6.266h-.725v-4.783h-.033l-.857 1.751-1.515 3.032h-.725v.034zm8.368 0V60.15h-2.043v2.864h-.724v-6.266h.724v2.762h2.076v-2.76h.725v6.266h-.758zm4.085-5.558v5.591h-.725v-5.591h-1.383v-.674h3.524v.674h-1.416zm2.602 5.558v-6.266h3.261v.708h-2.503v2.054h2.141v.674h-2.141v2.122h2.503v.741h-3.261v-.033zm8.137-4.379c0 .235-.033.471-.099.707a1.739 1.739 0 01-.296.606c-.132.169-.33.304-.527.405a2 2 0 01-.824.168h-1.054v2.526h-.725v-6.265h1.746c.56 0 1.021.168 1.318.472.296.27.461.74.461 1.38zm-.758 0c0-.37-.066-.64-.23-.842-.165-.202-.429-.304-.824-.304h-.988v2.325h.988c.198 0 .363-.034.494-.101.132-.068.231-.169.33-.27a1.23 1.23 0 00.164-.37c.066-.135.066-.304.066-.438zm2.076 4.379v-6.266h.725v2.594h.988c.33 0 .593.034.824.135.231.1.428.202.56.37.132.169.264.337.329.573.066.236.099.471.099.707 0 .607-.164 1.078-.461 1.415-.296.303-.758.472-1.318.472h-1.746zm.758-.674h.988c.396 0 .659-.101.824-.303.165-.202.231-.472.231-.842 0-.135-.033-.27-.066-.404a1.258 1.258 0 00-.165-.371c-.066-.101-.198-.169-.329-.236-.132-.067-.297-.1-.528-.1h-.988v2.256h.033zm4.117.674v-6.266h3.261v.708h-2.503v2.054h2.141v.674h-2.141v2.122h2.503v.741h-3.261v-.033zm8.171-4.379c0 .235-.033.471-.099.707a1.723 1.723 0 01-.297.606 1.577 1.577 0 01-.527.405c-.23.1-.494.168-.823.168h-1.054v2.526h-.725v-6.265H149c.56 0 1.021.168 1.318.472.296.27.461.74.461 1.38zm-.758 0c0-.37-.066-.64-.231-.842-.164-.202-.428-.304-.823-.304h-.988v2.325h.988c.198 0 .362-.034.494-.101.132-.068.231-.169.329-.27.066-.1.132-.236.165-.37.066-.135.066-.304.066-.438zm5.501 2.56c0 .303-.033.539-.132.774-.099.236-.198.438-.362.607a1.491 1.491 0 01-.56.37 1.739 1.739 0 01-.725.135c-.329 0-.593-.067-.824-.168a1.505 1.505 0 01-.56-.438c-.131-.169-.263-.405-.296-.64a2.86 2.86 0 01-.099-.741v-2.527c0-.202.033-.438.099-.64.066-.236.165-.438.296-.606.132-.169.33-.337.56-.438a2 2 0 01.824-.169c.296 0 .593.068.791.169.23.101.428.236.56.438.131.168.263.37.329.606s.099.438.099.674v2.594zm-.758-2.594c0-.101 0-.202-.033-.337a1.283 1.283 0 00-.164-.37.727.727 0 00-.33-.304c-.132-.1-.296-.134-.527-.134-.198 0-.395.033-.527.134a.931.931 0 00-.329.303c-.099.102-.132.236-.165.371s-.033.27-.033.37v2.46c0 .168.033.336.066.505a.78.78 0 00.197.404c.099.101.198.202.33.27.132.067.296.1.494.1.132 0 .264-.033.395-.067a1.18 1.18 0 00.56-.572c.066-.135.099-.304.099-.472v-2.661h-.033zm5.864 2.628c0 .572-.165 1.044-.428 1.347-.297.303-.692.438-1.186.438h-1.911v-6.266h1.746c.56 0 .988.135 1.252.438s.395.708.395 1.213c0 .303-.066.539-.164.775-.099.235-.297.404-.626.572v.034a.748.748 0 01.395.202c.099.101.198.202.264.337.065.135.131.27.164.438.066.134.099.303.099.471zm-2.8-3.773v2.02h.955c.363 0 .593-.1.758-.269.165-.202.231-.438.231-.74 0-.304-.066-.54-.231-.708-.165-.169-.428-.27-.758-.27h-.955v-.033zm0 2.66v2.19h1.054c.198 0 .363-.033.494-.1.132-.068.231-.136.297-.237.066-.1.132-.235.165-.37.032-.135.032-.27.032-.438 0-.303-.065-.573-.23-.775-.165-.202-.428-.303-.791-.303h-1.021v.034z" fill="#fff"/></svg>