<svg version="1.1" id="Слой_1" xmlns="http://www.w3.org/2000/svg" x="0" y="0" viewBox="0 0 1837 243" xml:space="preserve"><style>.st0{fill:#fff}</style><path class="st0" d="M852.6 118.3l1.5-4.6-1.5 4.7zM293.9 47.1l-4.6-1.9 4.6 2zm318.7 99.3c-1.3-1.7-5.2-5.7-15.1-5.7h-67.4v33.9c0 2.9.2 4.9.5 6.2.2 1 .4 1.4.5 1.6.4.4 1.3.8 2.9 1 1.7.3 3.4.2 4.9.2h56.2c2.8 0 6.2-.1 9.4-.8 3.2-.7 5.8-2 7.6-4.1 1.3-1.5 2.3-3.9 2.9-7 .6-3 .8-6.2.8-9 0-2.6-.1-5.8-.6-8.9-.7-3.1-1.5-5.7-2.6-7.4zm15.1-26.1zm209.2 26.5l-1.5 4.8 1.5-4.8zm242.5-99.6l4.6-2-4.6 2zM319.6 66.9l4.6 1.9-4.6-1.9zm5.4 0c-.3.6-.5 1.3-.8 1.9l-28.3 70.1h57.8l-28-70.1c-.2-.7-.5-1.3-.7-1.9zm-45.6 102.3zM389.8 217l-4.6 1.9 4.6-1.9zM356.1 47.2l4.5-2-4.6 2zm139.3-11.4l-3.8-3.2 3.8 3.2zm114.2 61.9l.1-.1.1-.1c.3-.4 2.9-3.6 2.9-16 0-2.5-.1-5.7-.8-8.9-.7-3.2-1.9-5.9-3.9-7.8-3.5-3.3-7.9-3.5-14.1-3.5h-60.4c-.6 0-1 0-1.4.1-.6.1-.7.2-.9.4-.3.4-.6 1-.9 2-.2 1-.3 2.1-.3 3v35.5h64.1c7.6.1 12.4-.2 15.5-4.6zm7 45.9h.1zm1155.7-25.2l1.5-4.7-1.5 4.7zm-337.1 92.7l-3.4 3.6 3.4-3.6zm268-114.5zm-236.6 89.6l3.5-3.5-3.6 3.5z"/><path class="st0" d="M0 0v243h1837V0H0zm179.1 188.7V222H47.7c-6.6 0-15-1.4-20.7-6-4-3.3-8.6-9.7-8.6-19.5V23H64v155.4c0 1.4 0 2.2.1 3 .1.6.3 1 .5 1.2.2.1.5.3 1 .5.8.3 2.2.5 4.7.5H179v5.1zM427.3 222h-40.9l-1.3-3.1-18.1-44.7h-84.2l-17.9 44.7-1.3 3.1h-48.4l2.9-6.9 71.3-169.8c3.5-8.3 7.5-14.6 13.4-18.8 6-4.2 13.3-5.6 22.2-5.6 8.6 0 15.8 1.4 21.9 5.6 6 4.1 10.2 10.4 13.8 18.8L432 215.1l2.9 6.9h-7.6zm223.1-13.8c-12.4 14-26.7 13.8-38.3 13.8h-90.4c-8.7 0-20.1 1.4-29.4-9.3-2.4-2.8-7.7-10.1-7.7-22.5v-135c0-7.7 2-16.6 7.1-22.6 7.2-8.5 17.5-9.6 23.8-9.6h92.9c10.4 0 26.3 1 37.9 12.8 6.1 6.3 9.4 14.3 11.2 22 1.8 7.8 2.1 15.6 2.1 22 0 10.4-.5 22.5-10.1 34-2.3 2.7-4.6 4.9-7.1 6.6 3.9 2 7.3 4.6 9.9 7.6 10.4 11.4 10.2 26.9 10.2 37.1-.1 12.2.1 29.3-12.1 43.1zm236.1-1.6c-11 14.1-24.9 15.4-37.7 15.4H727.7v-38.3h109.8c3.6 0 5.9-.7 7.5-1.6 1.6-.9 2.6-2.1 3.4-3.6 1.7-3.1 1.9-7.1 1.9-10.3 0-3.4-.4-6.3-2.1-8.8-1.7-2.5-5.2-5.4-12.7-7.8L761 128.1c-3.5-1-16.3-5.4-24.8-15.6-9.9-11.8-10.9-28.3-10.9-38.8 0-11.5 1.3-27.2 13.7-38.7 11.1-10.6 24.9-12 34.4-12h113.8v38.4H785.5c-4.9 0-8.7.4-11.4 3-2.9 2.7-3.3 7.3-3.3 10.9 0 3.7.6 6.7 2.2 9.2 1.7 2.5 5 5.2 11.8 7.4l69.1 21.9c12.8 4.1 22.4 8.4 28.9 14.6 13 12.4 14 31.1 14 40.1.2 12-1.4 26.7-10.3 38.1zm264.2 15.4h-40.9l-1.3-3.1-18.2-44.7h-84.2l-17.9 44.7-1.3 3.1h-48.4l2.9-6.9 71.3-169.8c3.5-8.3 7.5-14.6 13.4-18.8 6-4.2 13.3-5.6 22.2-5.6 8.6 0 15.8 1.4 21.9 5.6 6 4.1 10.2 10.4 13.8 18.8l71.3 169.8 2.9 6.9h-7.5zm217.8-33.3V222h-131.4c-6.6 0-15-1.4-20.7-6-4-3.3-8.6-9.7-8.6-19.5V23h45.6v155.4c0 1.4 0 2.2.1 3 .1.6.3 1 .5 1.2.2.1.5.3 1 .5.8.3 2.2.5 4.7.5h108.7v5.1zm216.2 0V222h-127.8c-7.8 0-17.2.2-25.1-7.3-8.2-7.8-8.6-18.5-8.6-25.8V55c0-8.4 2.7-17.3 7.7-23 7.8-8.5 19.2-8.9 26.4-8.9h126.2v38.4h-107.1c-3.3 0-5.2.4-6.4 1.4-1.1 1-1.3 2.5-1.3 5.5v33.1h112v38.4h-112v39.3c0 .9.2 1.8.4 2.5.3.8.6 1 .5.9l.2.1.2.2s.4.4 2 .6c1.6.3 3.8.3 6.6.3h106v4.9zm221.5 17.9c-10.9 14.1-24.9 15.4-37.7 15.4h-121.1v-38.3h109.8c3.6 0 5.9-.7 7.5-1.6 1.6-.9 2.6-2.1 3.4-3.6 1.7-3.1 1.9-7.1 1.9-10.3 0-3.4-.4-6.3-2.1-8.8-1.7-2.5-5.2-5.4-12.7-7.8l-74.5-23.5c-3.5-1-16.4-5.4-24.8-15.6-9.9-11.8-10.9-28.3-10.9-38.8 0-11.5 1.3-27.2 13.7-38.7 11.1-10.5 24.9-11.9 34.4-11.9H1807v38.4h-101.7c-4.9 0-8.7.4-11.4 3-2.9 2.7-3.3 7.3-3.3 10.9 0 3.7.6 6.7 2.2 9.2 1.7 2.5 5 5.2 11.8 7.4l69.1 21.9c12.8 4.1 22.4 8.4 28.9 14.6 13 12.4 14 31.1 14 40.1.1 11.9-1.5 26.6-10.4 38zM983.5 217l4.7 1.9-4.7-1.9zm818.8-13.5l.6.5-.6-.5z"/><path class="st0" d="M1048.3 66.9c-.3.6-.5 1.3-.8 1.9l-28.3 70.1h57.8l-28-70.1c-.1-.7-.4-1.3-.7-1.9zm-5.4 0l4.7 1.8-4.7-1.8zM427.3 217l4.6-1.9-4.6 1.9zm791.6-4.1l-2.5 3.1 3.2-3.9z"/></svg>