<svg width="50" height="50" fill="none" xmlns="http://www.w3.org/2000/svg"><circle cx="25" cy="25" r="25" fill="#E53935"/><g clip-path="url(#clip0)" fill="#fff"><path d="M35.152 13.785c-2.268-2.268-6.007-2.268-8.317 0l-7.14 6.973c-2.268 2.436-2.268 6.006 0 8.484.168.168.504.336.672.504l2.436-2.436c-.168-.168-.504-.336-.672-.504-.966-.966-.966-2.604 0-3.57l7.182-7.183c.966-.966 2.605-.966 3.57 0 .967.966.967 2.604 0 3.57l-2.1 2.1c.63 1.303.799 2.773.63 4.075l3.739-3.738c2.478-2.268 2.478-6.007 0-8.275z"/><path d="M27.507 20.296l-2.436 2.436s.504.336.63.504c.966.966.966 2.604 0 3.57l-7.14 7.14c-.966.967-2.605.967-3.57 0-.967-.965-.967-2.603 0-3.57l2.1-2.1c-.673-1.302-.169-2.1-.673-4.074L12.68 27.94c-2.268 2.268-2.268 6.007 0 8.317 2.268 2.31 6.007 2.268 8.317 0l7.14-7.14c2.268-2.269 2.268-6.007 0-8.317-.294-.21-.63-.504-.63-.504z"/></g><defs><clipPath id="clip0"><path fill="#fff" transform="translate(11 12)" d="M0 0h26v26H0z"/></clipPath></defs></svg>