<svg width="128" height="50" fill="none" xmlns="http://www.w3.org/2000/svg"><rect width="128" height="50" rx="25" fill="#E53935"/><g clip-path="url(#clip0)" fill="#fff"><path d="M113.152 13.785c-2.268-2.268-6.006-2.268-8.317 0l-7.14 6.973c-2.268 2.436-2.268 6.006 0 8.484.168.168.504.336.672.504l2.436-2.436c-.168-.168-.504-.336-.672-.504-.966-.966-.966-2.604 0-3.57l7.183-7.183c.966-.966 2.604-.966 3.57 0 .966.966.966 2.604 0 3.57l-2.1 2.1c.63 1.303.798 2.773.63 4.075l3.738-3.738c2.478-2.268 2.478-6.007 0-8.275z"/><path d="M105.507 20.296l-2.436 2.436s.504.336.63.504c.966.966.966 2.604 0 3.57l-7.14 7.14c-.967.967-2.605.967-3.57 0-.967-.965-.967-2.603 0-3.57l2.1-2.1c-.673-1.302-.168-2.1-.673-4.074L90.68 27.94c-2.268 2.268-2.268 6.007 0 8.317 2.268 2.31 6.007 2.268 8.317 0l7.14-7.14c2.268-2.269 2.268-6.007 0-8.317-.294-.21-.63-.504-.63-.504z"/></g><path d="M18.644 20v-6.16c0-.84.42-1.26 1.26-1.26h4.312c.84 0 1.26.42 1.26 1.26V20h-1.638v-5.74c0-.28-.14-.42-.42-.42h-2.716c-.28 0-.42.14-.42.42V20h-1.638zm14.813 0h-4.116c-.579 0-1.06-.08-1.442-.238a1.752 1.752 0 01-.854-.742 3.574 3.574 0 01-.406-1.148c-.065-.42-.098-.952-.098-1.596 0-1.437.27-2.427.812-2.968.55-.541 1.475-.812 2.772-.812 1.157 0 2.04.215 2.646.644.616.42.924 1.185.924 2.296 0 .933-.383 1.4-1.148 1.4h-4.312c0 .644.103 1.125.308 1.442.215.308.644.462 1.288.462h3.626V20zm-5.222-4.424h3.402c.243 0 .364-.145.364-.434 0-.457-.182-.803-.546-1.036-.355-.233-.798-.35-1.33-.35-.69 0-1.18.145-1.47.434-.28.28-.42.742-.42 1.386zm7.788-2.996h2.59c1.13 0 1.918.313 2.366.938.448.625.672 1.545.672 2.758s-.229 2.137-.686 2.772c-.448.635-1.232.952-2.352.952h-2.212v2.38h-1.638v-8.54c0-.84.42-1.26 1.26-1.26zm.378 1.624v4.536h1.806c.719 0 1.19-.205 1.414-.616.224-.41.336-1.027.336-1.848 0-.401-.019-.728-.056-.98a2.71 2.71 0 00-.224-.756 1.055 1.055 0 00-.532-.532c-.242-.112-.555-.168-.938-.168h-1.386c-.28 0-.42.121-.42.364zM49.412 20h-4.116c-.578 0-1.06-.08-1.442-.238A1.752 1.752 0 0143 19.02a3.571 3.571 0 01-.406-1.148c-.065-.42-.098-.952-.098-1.596 0-1.437.27-2.427.812-2.968.55-.541 1.475-.812 2.772-.812 1.157 0 2.04.215 2.646.644.616.42.924 1.185.924 2.296 0 .933-.383 1.4-1.148 1.4H44.19c0 .644.103 1.125.308 1.442.215.308.644.462 1.288.462h3.626V20zm-5.222-4.424h3.402c.243 0 .364-.145.364-.434 0-.457-.182-.803-.546-1.036-.354-.233-.798-.35-1.33-.35-.69 0-1.18.145-1.47.434-.28.28-.42.742-.42 1.386zM57.984 20h-1.638l.056-5.278c0-.13-.028-.196-.084-.196-.046 0-.112.065-.196.196l-3.262 4.774c-.14.215-.29.369-.448.462-.15.084-.354.126-.616.126-.718 0-1.078-.35-1.078-1.05V12.58h1.638l-.07 5.278c0 .13.038.196.112.196.056 0 .122-.065.196-.196L55.898 13c.224-.336.56-.504 1.008-.504.094 0 .182.01.266.028.094.019.21.06.35.126.14.056.252.173.336.35.084.168.126.378.126.63V20zm-4.816-9.702c.196.625.588.938 1.176.938s.985-.313 1.19-.938h1.4c-.177.681-.476 1.18-.896 1.498-.42.308-.984.462-1.694.462-1.4 0-2.258-.653-2.576-1.96h1.4zM63.194 20h-1.639v-6.16H58.77v-1.26h7.21v1.26h-2.787V20zm10.69 0h-1.637l.056-5.278c0-.13-.028-.196-.084-.196-.047 0-.112.065-.196.196l-3.262 4.774c-.14.215-.29.369-.448.462-.15.084-.355.126-.616.126-.72 0-1.078-.35-1.078-1.05V12.58h1.638l-.07 5.278c0 .13.037.196.112.196.056 0 .12-.065.196-.196L71.799 13c.224-.336.56-.504 1.008-.504.093 0 .182.01.266.028.093.019.21.06.35.126.14.056.252.173.336.35.084.168.126.378.126.63V20zM25.463 37h-1.638v-3.192h-3.542V37h-1.638v-7.42h1.638v2.968h3.542V29.58h1.638V37zm1.611-7.42h4.214c.682 0 1.2.2 1.554.602.355.401.532.929.532 1.582v3.976c0 .84-.42 1.26-1.26 1.26h-3.738c-1.232 0-1.848-.77-1.848-2.31 0-.719.154-1.283.462-1.694.308-.41.77-.616 1.386-.616h3.36v-.476c0-.71-.345-1.064-1.036-1.064h-3.626v-1.26zm4.662 4.06h-2.73c-.522 0-.784.35-.784 1.05 0 .7.262 1.05.784 1.05h2.31c.28 0 .42-.14.42-.42v-1.68zm12.262-2.8h-2.702c-.336 0-.62.042-.854.126-.233.084-.42.191-.56.322-.13.13-.233.308-.308.532a2.863 2.863 0 00-.14.658c-.019.215-.028.48-.028.798 0 .401.019.733.056.994.037.252.117.504.238.756.121.243.313.425.574.546.27.112.611.168 1.022.168h2.87V37H40.89c-1.185 0-2.011-.313-2.478-.938-.467-.635-.7-1.563-.7-2.786 0-1.213.233-2.133.7-2.758.467-.625 1.293-.938 2.478-.938h3.108v1.26zm1.465-1.26h4.214c.681 0 1.2.2 1.554.602.355.401.532.929.532 1.582v3.976c0 .84-.42 1.26-1.26 1.26h-3.738c-1.232 0-1.848-.77-1.848-2.31 0-.719.154-1.283.462-1.694.308-.41.77-.616 1.386-.616h3.36v-.476c0-.71-.345-1.064-1.036-1.064h-3.626v-1.26zm4.662 4.06h-2.73c-.523 0-.784.35-.784 1.05 0 .7.261 1.05.784 1.05h2.31c.28 0 .42-.14.42-.42v-1.68zM60.322 37h-1.638l.056-5.278c0-.13-.028-.196-.084-.196-.047 0-.112.065-.196.196l-3.262 4.774c-.14.215-.29.369-.448.462-.15.084-.355.126-.616.126-.719 0-1.078-.35-1.078-1.05V29.58h1.638l-.07 5.278c0 .13.037.196.112.196.056 0 .121-.065.196-.196L58.236 30c.224-.336.56-.504 1.008-.504.093 0 .182.01.266.028.093.019.21.06.35.126.14.056.252.173.336.35.084.168.126.378.126.63V37zm-4.816-9.702c.196.625.588.938 1.176.938s.985-.313 1.19-.938h1.4c-.177.681-.476 1.18-.896 1.498-.42.308-.985.462-1.694.462-1.4 0-2.259-.653-2.576-1.96h1.4zM65.531 37h-1.638v-6.16h-2.786v-1.26h7.21v1.26h-2.786V37z" fill="#fff"/><defs><clipPath id="clip0"><path fill="#fff" transform="translate(89 12)" d="M0 0h26v26H0z"/></clipPath></defs></svg>