<svg width="160" height="36" fill="none" xmlns="http://www.w3.org/2000/svg"><path d="M38.253 18.008c.698-1.637 1.425-2.183 3.154-2.183 1.637 0 2.486.546 3.153 2.183l7.277 17.313h-3.82l-1.971-4.881h-9.278l-1.94 4.881h-3.851l7.276-17.313zm-.545 9.854h7.398l-3.154-7.853c-.12-.273-.303-.788-.545-.788-.243 0-.455.515-.546.788l-3.153 7.853zm27.076-11.794c1.03 0 2.486.121 3.486 1.152 1.062 1.091 1.213 2.85 1.213 4.123 0 1.031-.06 2.123-.91 3.123-.545.668-1.09.94-1.819 1.001v.121c.91.091 1.638.485 2.123 1.031.91 1 .91 2.365.91 3.426 0 1.274 0 2.82-1.092 4.033-1.092 1.243-2.335 1.243-3.517 1.243H55.96c-.97 0-1.85.121-2.608-.758-.182-.212-.667-.849-.667-1.94V18.827c0-.728.182-1.486.606-1.97.576-.698 1.425-.79 2.032-.79h9.46zm-8.49 8.095h7.034c.728 0 1.486 0 1.971-.697.152-.152.425-.637.425-1.94 0-.516-.03-1.486-.637-2.062-.516-.485-1.183-.485-1.789-.485h-5.943c-.303 0-.606-.03-.819.212-.212.242-.242.637-.242.849v4.123zm0 6.853c0 .636.09.97.212 1.122.303.333.91.303 1.183.303h5.73c.576 0 1.577-.03 2.123-.698.424-.485.485-1.334.485-1.94 0-.546-.06-1.425-.425-1.94-.212-.304-.758-.789-1.94-.789h-7.368v3.942zm15.645 1.425h10.673c1.728 0 1.82-1.425 1.82-2.092 0-.758-.183-1.638-1.88-2.183l-7.58-2.396c-.304-.09-1.517-.485-2.275-1.425-.879-1.03-1-2.547-1-3.638 0-1.152.151-2.547 1.243-3.578 1-.94 2.243-1.061 3.153-1.061H87.19v2.88h-9.854c-.485 0-1.061.03-1.516.455-.455.455-.485 1.122-.485 1.486 0 .849.243 1.667 1.789 2.183l7.034 2.243c1.304.425 2.183.82 2.76 1.365 1.152 1.091 1.273 2.82 1.273 3.73 0 1.212-.152 2.546-.97 3.577-.97 1.243-2.183 1.364-3.427 1.364H71.97v-2.91h-.03zm23.498-14.433c.698-1.637 1.425-2.183 3.154-2.183 1.637 0 2.486.546 3.153 2.183l7.277 17.313h-3.82l-1.971-4.881h-9.278l-1.94 4.881H88.19l7.246-17.313zm-.545 9.854h7.398l-3.123-7.853c-.121-.273-.303-.788-.546-.788-.242 0-.455.515-.546.788l-3.183 7.853zm17.434 7.46c-.637 0-1.334-.153-1.789-.486-.303-.243-.697-.758-.697-1.607V16.068h3.638v15.311c0 .213-.03.577.243.82.121.09.333.211.909.211h10.552v2.88h-12.856v.031zm16.919 0c-.819 0-1.577 0-2.214-.607-.667-.637-.728-1.516-.728-2.244V18.827c0-.758.243-1.546.667-2.001.637-.698 1.577-.758 2.305-.758h12.371v2.88h-10.4c-.334 0-.728.03-1.001.273-.303.273-.303.667-.303.94v3.881h11.431v2.88h-11.431v4.518c0 .303.121.607.273.758.212.212.667.243 1.243.243h10.278v2.88h-12.491zm14.402-2.881h10.672c1.729 0 1.82-1.425 1.82-2.092 0-.758-.182-1.638-1.88-2.183l-7.58-2.396c-.304-.09-1.516-.485-2.274-1.425-.88-1.03-1.001-2.547-1.001-3.638 0-1.152.152-2.547 1.243-3.578 1.001-.94 2.244-1.061 3.154-1.061h11.097v2.88h-9.854c-.485 0-1.062.03-1.516.455-.455.455-.485 1.122-.485 1.486 0 .849.242 1.667 1.788 2.183l7.035 2.243c1.303.425 2.183.82 2.759 1.365 1.152 1.091 1.273 2.82 1.273 3.73 0 1.212-.151 2.546-.97 3.577-.97 1.243-2.183 1.364-3.426 1.364h-11.825v-2.91h-.03z" fill="#37474F"/><path d="M19.486 35.32c-.637 0-1.334-.15-1.789-.484-.303-.243-.697-.758-.697-1.607V16.067h3.638V31.38c0 .212-.03.576.243.819.121.09.334.212.91.212h10.551v2.88H19.486v.03zm-5.517-18.425L8.43 3.285c-.188-.45-.346-.771-.534-.932C7.677 2.128 7.362 2 6.984 2c-.377 0-.692.128-.912.353-.189.16-.346.482-.535.931L0 16.927v15.73c0 .834.157 1.412.503 1.797.346.386.85.546 1.51.546h9.973c.661 0 1.165-.193 1.51-.546.347-.385.504-.963.504-1.797l-.031-15.762zm-1.353 0v2.44a1.922 1.922 0 00-.755-.257 1.707 1.707 0 00-1.259.32l-2.58-2.76a2.07 2.07 0 00.19-.578c.125-1.027-.567-1.958-1.574-2.086a1.823 1.823 0 00-2.045 1.605c-.063.61.158 1.188.567 1.605l-1.164 2.472c-.063 0-.126-.032-.19-.032-.282-.033-.597 0-.849.096L1.48 16.606 6.544 3.541c.126-.321.283-.482.44-.482.158 0 .283.16.44.482l5.192 13.354z" fill="#37474F"/><path d="M13 22.31v10.688c0 .4-.067.668-.201.802-.134.133-.402.2-.771.2H1.972c-.369 0-.637-.067-.77-.2-.135-.134-.202-.401-.202-.802V18.169l.872 1.803c-.235.268-.37.602-.436 1.002a1.929 1.929 0 001.676 2.171c1.072.134 2.044-.6 2.178-1.67a2.02 2.02 0 00-.57-1.636l1.24-2.572c.068 0 .135.034.202.034A1.96 1.96 0 007.469 17l2.782 2.872c-.1.167-.134.368-.167.568a1.929 1.929 0 001.676 2.171c.435.033.871-.067 1.24-.3z" fill="#E53935"/><path d="M21.34 8.9h-3.18c-.378 0-.666-.093-.863-.277-.197-.193-.296-.515-.296-.968v-6.31c0-.453.099-.771.296-.955.197-.193.485-.29.863-.29h3.016c.638 0 1.178.118 1.62.353a2.36 2.36 0 011.005.993c.229.427.39.884.485 1.37.095.486.142 1.035.142 1.646 0 .486-.027.93-.083 1.333A5.585 5.585 0 0124.06 7a3.133 3.133 0 01-.532.993c-.22.269-.52.486-.898.654-.371.168-.8.251-1.29.251zm-.496-7.844h-2.2c-.213 0-.359.046-.438.138-.07.084-.106.235-.106.453V7.34c0 .234.035.394.106.477.071.084.217.126.438.126h2.259c.402 0 .749-.063 1.04-.188.292-.126.52-.29.686-.49a2.1 2.1 0 00.403-.767c.102-.319.17-.633.2-.943.032-.31.048-.675.048-1.094 0-.52-.032-.963-.095-1.332a3.656 3.656 0 00-.343-1.056 1.624 1.624 0 00-.756-.754c-.332-.176-.746-.264-1.242-.264zM26.831 8.9h-1.1V.1h1.1v8.8zm8.689-4.174v3.03c0 .762-.363 1.143-1.088 1.143h-3.004c-.647 0-1.195-.108-1.644-.326a2.39 2.39 0 01-1.017-.968 4.476 4.476 0 01-.497-1.37 9.33 9.33 0 01-.142-1.735c0-.662.047-1.24.142-1.735.103-.494.272-.95.509-1.37A2.35 2.35 0 0129.843.44C30.316.214 30.896.1 31.581.1h3.75v.956h-3.383c-1.01 0-1.707.268-2.093.804-.387.528-.58 1.408-.58 2.64 0 1.223.186 2.103.556 2.64.37.536 1.021.804 1.952.804h2.093c.205 0 .347-.042.426-.126.078-.092.118-.247.118-.465V4.726h1.1zM37.919 8.9h-1.1V.1h1.1v8.8zm5.211 0h-1.1V1.055h-3.347V.1h7.794v.955H43.13v7.843zm2.053 0L48.329.967c.134-.335.284-.578.45-.73.165-.158.393-.238.685-.238.284 0 .513.08.686.239.181.159.335.402.461.729l3.135 7.931h-1.16l-.934-2.388h-4.388l-.921 2.39h-1.159zm3.997-7.38l-1.584 4.036h3.725L49.76 1.52c-.118-.285-.217-.427-.296-.427a.122.122 0 00-.07.025.138.138 0 00-.048.05.715.715 0 00-.06.075.712.712 0 00-.035.088 1.993 1.993 0 01-.07.189zM60.606 8.9H55.45c-.702 0-1.053-.353-1.053-1.056V.1h1.1v7.315c0 .201.035.34.106.415.08.075.217.113.414.113h4.59V8.9zm10.127 0H67.35c-.536 0-1.009-.076-1.419-.227-.41-.15-.741-.356-.993-.616a3.202 3.202 0 01-.627-.955 5.233 5.233 0 01-.331-1.207 10.849 10.849 0 01-.083-1.408c0-.662.051-1.24.154-1.734.102-.495.28-.951.532-1.37A2.41 2.41 0 0165.67.427c.473-.218 1.052-.326 1.738-.326h3.205v.955h-2.838c-1.017 0-1.727.268-2.129.804-.402.528-.603 1.404-.603 2.627 0 1.224.197 2.108.591 2.653.395.536 1.088.804 2.082.804h3.016V8.9zM75.22 0c1.53 0 2.598.331 3.205.993.615.662.922 1.831.922 3.507 0 1.676-.307 2.845-.922 3.507-.607.662-1.676.993-3.205.993-1.522 0-2.59-.331-3.205-.993-.615-.662-.923-1.831-.923-3.507 0-1.676.308-2.845.923-3.507C72.63.331 73.698 0 75.22 0zm-2.366 1.722c-.41.503-.615 1.429-.615 2.778 0 1.35.205 2.28.615 2.79.418.503 1.207.755 2.366.755s1.943-.252 2.353-.755c.418-.51.627-1.44.627-2.79s-.209-2.275-.627-2.778c-.41-.511-1.194-.767-2.353-.767-1.16 0-1.948.256-2.366.767zm16.192-.252l-2.472 6.524c-.134.352-.272.608-.414.767-.134.16-.33.239-.591.239-.26 0-.461-.08-.603-.239-.142-.159-.28-.415-.414-.767l-2.46-6.523c-.071-.185-.142-.277-.213-.277-.102 0-.154.084-.154.252l.024 7.453h-1.1V.993c0-.318.09-.561.272-.729.19-.176.45-.264.78-.264.324 0 .568.084.734.251.165.168.315.42.45.755l2.471 6.51c.071.202.142.302.213.302.071 0 .142-.1.213-.301l2.472-6.511c.126-.336.272-.587.437-.755.166-.167.41-.251.733-.251.332 0 .592.088.781.264.19.168.284.41.284.729v7.906h-1.1l.024-7.453c0-.168-.052-.252-.154-.252-.071 0-.142.092-.213.277zm4.079 7.43h-1.1V1.281c0-.436.091-.741.272-.917.19-.176.47-.264.84-.264h3.796c.789 0 1.337.226 1.644.678.316.444.473 1.115.473 2.011 0 .93-.153 1.622-.46 2.075-.308.452-.86.678-1.657.678h-3.808V8.9zm0-4.312h3.418c.552 0 .915-.138 1.088-.415.181-.285.272-.746.272-1.382 0-.612-.09-1.052-.272-1.32-.181-.277-.544-.415-1.088-.415h-2.886c-.22 0-.366.042-.437.126-.063.083-.095.234-.095.452v2.954zm5.52 4.312l3.146-7.932c.134-.335.284-.578.45-.73.165-.158.394-.238.686-.238.284 0 .512.08.686.239.181.159.335.402.461.729l3.134 7.931h-1.159l-.934-2.388h-4.388L99.805 8.9h-1.16zm3.998-7.38l-1.585 4.036h3.726l-1.562-4.035c-.118-.285-.216-.427-.295-.427a.12.12 0 00-.071.025.139.139 0 00-.048.05.924.924 0 00-.059.075.872.872 0 00-.035.088 1.986 1.986 0 01-.071.189zM115.322.1v7.794c0 .36-.09.637-.272.83-.173.184-.414.276-.721.276-.237 0-.442-.05-.615-.15-.166-.101-.323-.282-.473-.541l-3.903-6.637c-.079-.143-.158-.214-.237-.214-.11 0-.165.084-.165.252V8.9h-1.076V1.042c0-.368.098-.632.295-.792a1.11 1.11 0 01.722-.251c.457 0 .812.214 1.064.641l3.938 6.687c.087.143.162.214.225.214.095 0 .142-.071.142-.214V.101h1.076zm4.657 4.953l2.815-4.952H124l-3.465 6.008v2.79h-1.1V6.11L115.97.1h1.206l2.803 4.952z" fill="#37474F"/></svg>