<svg width="140" height="143" fill="none" xmlns="http://www.w3.org/2000/svg"><g opacity=".1" clip-path="url(#clip0)" fill="#E53935"><path d="M93.333 75.13h34.359c-1.084 9.297-3.662 18.2-7.57 26.142-3.907 7.941-9.057 14.746-15.122 19.979l-10.442 9.014 6.417 12.469 10.442-9.014c8.789-7.542 15.996-17.761 20.983-29.751 4.986-11.99 7.596-25.379 7.6-38.98v-49.95c0-3.985-1.229-7.806-3.417-10.623-2.188-2.818-5.155-4.4-8.25-4.4h-35c-3.094 0-6.061 1.582-8.25 4.4-2.187 2.817-3.416 6.638-3.416 10.623v45.07c0 3.983 1.229 7.805 3.417 10.622 2.188 2.817 5.155 4.4 8.25 4.4zm-81.666 0h34.358c-1.084 9.297-3.662 18.2-7.57 26.142-3.907 7.941-9.057 14.746-15.122 19.979l-10.441 9.014 6.358 12.469 10.5-9.014c8.79-7.542 15.997-17.761 20.983-29.751 4.986-11.99 7.597-25.379 7.6-38.98v-49.95c0-3.985-1.229-7.806-3.417-10.623-2.188-2.818-5.155-4.4-8.25-4.4h-35c-3.094 0-6.061 1.582-8.249 4.4C1.229 7.232 0 11.053 0 15.038v45.07c0 3.983 1.23 7.805 3.417 10.622 2.188 2.817 5.155 4.4 8.25 4.4z"/></g><defs><clipPath id="clip0"><path fill="#fff" transform="rotate(-180 70 71.367)" d="M0 0h140v142.72H0z"/></clipPath></defs></svg>