<svg width="248" height="248" fill="none" xmlns="http://www.w3.org/2000/svg"><g clip-path="url(#clip0)" fill="#E53935"><path d="M115.281 179.94a3.633 3.633 0 100 7.266h17.438a3.632 3.632 0 100-7.266h-17.438zm-71.687-56.408h24.013c1.467 3.817 5.162 6.539 9.49 6.539 4.327 0 8.022-2.722 9.489-6.539h4.8a3.632 3.632 0 100-7.266h-4.8c-1.467-3.817-5.162-6.539-9.49-6.539-4.327 0-8.022 2.722-9.489 6.539H43.594a3.633 3.633 0 000 7.266zm33.503-6.539a2.909 2.909 0 012.906 2.906 2.91 2.91 0 01-2.906 2.907 2.91 2.91 0 01-2.907-2.907 2.909 2.909 0 012.907-2.906zm-33.503-14.289h4.638c1.467 3.817 5.162 6.539 9.49 6.539 4.327 0 8.022-2.722 9.489-6.539h24.175a3.633 3.633 0 000-7.266H67.21c-1.467-3.817-5.162-6.539-9.49-6.539-4.327 0-8.022 2.722-9.489 6.54h-4.638a3.633 3.633 0 100 7.265zm14.127-6.54a2.91 2.91 0 012.907 2.907 2.909 2.909 0 01-2.907 2.906 2.909 2.909 0 01-2.906-2.906 2.91 2.91 0 012.907-2.906zm34.391-26.882a3.633 3.633 0 100-7.266 3.633 3.633 0 000 7.266zm-10.01 0a3.633 3.633 0 100-7.266 3.633 3.633 0 000 7.266zm-10.011 0a3.633 3.633 0 100-7.266 3.633 3.633 0 000 7.266z"/><path d="M237.102 24.453h-1.361l1.015-1.015c3.039-3.04 3.039-7.985 0-11.025l-7.953-7.952c-3.039-3.04-7.985-3.04-11.025 0l-19.99 19.991H10.898C4.89 24.452 0 29.341 0 35.351v150.865c0 7.345 5.975 13.32 13.32 13.32h86.047v25.699H81.86c-4.673 0-8.476 3.803-8.476 8.476v3.63c0 4.674 3.803 8.477 8.476 8.477h84.282c4.673 0 8.476-3.803 8.476-8.477v-3.63c0-4.673-3.803-8.476-8.476-8.476h-17.508v-25.699h38.82a3.632 3.632 0 100-7.265H13.32a6.061 6.061 0 01-6.054-6.055v-10.753h233.468v10.753a6.061 6.061 0 01-6.054 6.055h-30.274a3.632 3.632 0 100 7.265h30.274c7.345 0 13.32-5.975 13.32-13.32V35.351c0-6.009-4.889-10.898-10.898-10.898zM166.141 232.5c.668 0 1.211.543 1.211 1.211v3.63c0 .667-.543 1.211-1.211 1.211H81.859a1.213 1.213 0 01-1.21-1.211v-3.63c0-.668.542-1.211 1.21-1.211h84.282zm-59.508-32.964h34.735v25.699h-34.735v-25.699zM222.916 9.599a.531.531 0 01.75 0l7.952 7.952a.53.53 0 010 .75l-7.588 7.587-8.702-8.701 7.588-7.588zm-12.725 12.725l8.701 8.702-2.534 2.534-8.701-8.702 2.534-2.534zm-7.672 7.672l8.702 8.702-42.989 42.988-8.702-8.701 42.989-42.99zm-5.378 33.213c4.941 0 8.961 4.02 8.961 8.961 0 4.941-4.02 8.96-8.961 8.96-4.941 0-8.961-4.019-8.961-8.96 0-.058.007-.113.008-.171l8.783-8.781c.057-.001.112-.009.17-.009zm-35.217 22.444l-10.752 4.392 4.391-10.752 6.361 6.36zm78.81 82.545H7.266V35.351a3.637 3.637 0 013.632-3.633h179.625l-5.54 5.54H61.516a3.633 3.633 0 100 7.265h116.202L152.094 70.15a7.752 7.752 0 00-1.68 2.537l-8.115 19.867a4.872 4.872 0 001.069 5.297 4.87 4.87 0 005.297 1.068l19.867-8.115a7.751 7.751 0 002.473-1.622l11.051-11.05c2.381 6.006 8.242 10.266 15.085 10.266 8.947 0 16.227-7.28 16.227-16.227 0-6.842-4.259-12.702-10.264-15.084l12.564-12.562h12.261v110.87h-1.925l-13.165-22.803a3.633 3.633 0 10-6.292 3.633l11.068 19.17h-50.748l-5.443-9.428 25.374-43.948 11.272 19.524a3.632 3.632 0 006.292-3.633l-12.026-20.83a6.33 6.33 0 00-5.539-3.198 6.331 6.331 0 00-5.539 3.198l-24.03 41.621-30.832-53.402a6.331 6.331 0 00-5.54-3.198 6.33 6.33 0 00-5.538 3.198l-8.192 14.187v-38.94c0-4.674-3.803-8.477-8.476-8.477H36.328c-4.674 0-8.476 3.803-8.476 8.477v79.437a6.061 6.061 0 006.054 6.055h46.345l-5.402 9.356H20.071V44.524h24.491a3.633 3.633 0 100-7.266H18.86a6.061 6.061 0 00-6.055 6.054v113.292a6.061 6.061 0 006.055 6.055h210.28a6.062 6.062 0 006.055-6.055V43.312a6.061 6.061 0 00-6.055-6.054h-6.205l5.54-5.54h8.627a3.637 3.637 0 013.632 3.633v132.847zM99.862 80.665v58.106H35.117V80.665h64.745zm-64.745-7.266V60.545c0-.668.543-1.211 1.211-1.211h62.323c.668 0 1.211.543 1.211 1.21V73.4H35.117zm53.524 72.638h12.432a6.062 6.062 0 006.055-6.055v-7.695c.908.436 1.92.672 2.98.672a6.79 6.79 0 005.94-3.43l6.183-10.708a.75.75 0 01.678-.392.75.75 0 01.679.392l3.812 6.602a6.79 6.79 0 005.941 3.43 6.79 6.79 0 005.941-3.43l.946-1.639 18.249 31.609H83.239l5.402-9.356zm18.487-25.911v-6.109l13.73-23.782 15.175 26.283-2.692 4.663-3.461-5.993a7.968 7.968 0 00-6.971-4.025 7.968 7.968 0 00-6.971 4.025l-5.831 10.099-2.979-5.161z"/></g><defs><clipPath id="clip0"><path fill="#fff" d="M0 0h248v248H0z"/></clipPath></defs></svg>