<svg width="247" height="247" fill="none" xmlns="http://www.w3.org/2000/svg"><path d="M234.453 53.64h-8.219v-4.109h4.11a12.329 12.329 0 000-24.656h-4.11V4.328a3.982 3.982 0 00-1.684-3.287 4.08 4.08 0 00-3.617-.658l-52.846 16.273h-28.149a4.108 4.108 0 00-4.11 4.11v4.109h-8.219a4.108 4.108 0 00-4.109 4.11v16.437a4.108 4.108 0 004.109 4.11h8.219v4.109h-24.656V16.656a4.108 4.108 0 00-4.11-4.11H24.875a4.11 4.11 0 00-4.11 4.11v36.985h-8.218A12.366 12.366 0 00.219 65.969v131.5a12.365 12.365 0 0012.328 12.328h94.515v12.328H82.406a4.108 4.108 0 00-4.11 4.109v16.438a4.11 4.11 0 004.11 4.109h82.188c1.09 0 2.135-.433 2.906-1.203a4.112 4.112 0 001.203-2.906v-16.438a4.11 4.11 0 00-4.109-4.109h-24.656v-12.328h94.515a12.367 12.367 0 0012.328-12.328v-131.5a12.365 12.365 0 00-12.328-12.328zm-8.219-20.546h4.11a4.11 4.11 0 010 8.218h-4.11v-8.218zm-53.422-9.287l45.204-13.931V64.53L172.812 50.6V23.807zm-28.765 1.068h20.547v24.656h-20.547V24.875zm11.712 32.875L152.8 78.297h-4.644V57.75h7.603zm-24.04-16.438v-8.218h4.109v8.218h-4.109zM28.984 20.767h73.969v57.53H28.984v-57.53zm131.5 209.578v8.219H86.516v-8.219h73.968zm-45.203-8.219v-12.328h16.438v12.328h-16.438zm123.281-24.656a4.108 4.108 0 01-4.109 4.109H12.547a4.112 4.112 0 01-4.11-4.109v-4.11h230.125v4.11zm0-12.328H8.437V65.969a4.11 4.11 0 014.11-4.11h8.219v20.547a4.11 4.11 0 004.109 4.11h82.187a4.108 4.108 0 004.11-4.11V61.86h28.766v20.547a4.107 4.107 0 004.109 4.11h12.328a4.108 4.108 0 004.068-3.534l3.617-25.232h4.027l52.846 16.273a3.82 3.82 0 001.192.165 4.17 4.17 0 004.109-4.11V61.86h8.219a4.11 4.11 0 014.109 4.11v119.17z" fill="#E53935"/><path d="M20.766 176.922h106.843a4.11 4.11 0 004.11-4.11v-65.75a4.107 4.107 0 00-4.11-4.109H20.766a4.108 4.108 0 00-4.11 4.109v65.75a4.108 4.108 0 004.11 4.11zm4.109-8.219v-54.289l47.16 29.025a4.113 4.113 0 004.306 0l47.159-29.025v54.289H24.875zm10.409-57.531h77.807l-38.903 23.941-38.904-23.941zm108.763 41.094h8.219v12.328c0 1.09.433 2.135 1.203 2.906a4.112 4.112 0 002.906 1.203h69.859a4.112 4.112 0 004.11-4.109v-49.313a4.11 4.11 0 00-4.11-4.109h-4.109V98.844a4.108 4.108 0 00-4.109-4.11h-73.969a4.11 4.11 0 00-4.109 4.11v49.312a4.108 4.108 0 004.109 4.11zm78.078 8.218h-61.641v-41.093h61.641v41.093zm-73.969-57.531h65.75v8.219h-57.531c-1.09 0-2.135.433-2.906 1.203a4.112 4.112 0 00-1.203 2.906v28.766h-4.11v-41.094z" fill="#E53935"/><path d="M168.703 127.609h8.219v8.219h-8.219v-8.219zm16.438 0h28.765v8.219h-28.765v-8.219zm-16.438 16.438h16.438v8.219h-16.438v-8.219zm24.656 0h20.547v8.219h-20.547v-8.219zM55.589 65.356a4.11 4.11 0 003.998.181L84.243 53.21a4.11 4.11 0 000-7.356L59.587 33.525a4.109 4.109 0 00-5.946 3.678V61.86a4.109 4.109 0 001.948 3.497zm6.27-21.504l11.359 5.68-11.359 5.678V43.852z" fill="#E53935"/></svg>