<svg width="255" height="255" fill="none" xmlns="http://www.w3.org/2000/svg"><path d="M222.016 180.947v-16.463a20.573 20.573 0 00-20.547-20.546h-34.593a115.835 115.835 0 009.156-22.055l15.615-12.497a15.176 15.176 0 004.934-16.654 15.18 15.18 0 00-13.925-10.382l9.156-25.174a42.53 42.53 0 00-5.134-38.934A42.533 42.533 0 00151.844.11h-34.889a139.164 139.164 0 00-73.82 21.172 4.11 4.11 0 00.879 7.397l9.908 3.287a10.553 10.553 0 016.46 13.927 18.773 18.773 0 00.637 15.365l10.593 21.167a15.159 15.159 0 00-8.251 26.962l15.616 12.497a115.835 115.835 0 009.147 22.055H53.531a20.569 20.569 0 00-20.547 20.546v16.463A53.494 53.494 0 00.11 230.234v20.547a4.11 4.11 0 004.11 4.11h246.56a4.11 4.11 0 004.11-4.11v-20.547a53.498 53.498 0 00-32.875-49.287zm-61.641-98.65h-24.656a4.11 4.11 0 00-4.11 4.11v4.109h-8.218v-4.11a4.108 4.108 0 00-4.11-4.11H82.297v-6.02l25.651-17.098a33.51 33.51 0 0118.648-5.647 41.963 41.963 0 0026.131-9.168l6.715-5.37 7.048 10.577a36.86 36.86 0 016.213 20.514v12.213h-12.328zm-4.109 8.219v12.328a4.11 4.11 0 01-4.11 4.109h-8.218a4.11 4.11 0 01-4.11-4.109V90.516h16.438zm-41.094 0v12.328a4.11 4.11 0 01-4.11 4.109h-8.218a4.112 4.112 0 01-4.11-4.109V90.516h16.438zm73.969 6.986a6.962 6.962 0 01-2.622 5.457l-7.45 5.958a115.66 115.66 0 001.787-18.401h1.299a6.983 6.983 0 016.454 4.312 6.99 6.99 0 01.532 2.674zM68.009 48.945A18.773 18.773 0 0056.523 24.17l-1.258-.411a130.937 130.937 0 0161.69-15.43h34.889a34.312 34.312 0 0132.246 46.024l-3.571 9.821a45.055 45.055 0 00-7.191-19.182l-9.534-14.305a4.109 4.109 0 00-4.477-1.686 4.149 4.149 0 00-1.51.758l-10.212 8.19a33.758 33.758 0 01-20.999 7.364 41.719 41.719 0 00-23.21 7.026l-27.48 18.32a4.08 4.08 0 00-.698.6L68.37 57.58a10.55 10.55 0 01-.361-8.634zm.476 54.022a6.984 6.984 0 01.313-11.166 6.986 6.986 0 014.047-1.285h1.29c.104 6.174.702 12.331 1.788 18.41l-7.438-5.959zm13.878-12.451h8.153v12.328a12.329 12.329 0 0012.328 12.328h8.218a12.33 12.33 0 0012.329-12.328v-4.11h8.218v4.11a12.329 12.329 0 0012.329 12.328h8.218a12.33 12.33 0 0012.328-12.328V90.516h8.153a107.59 107.59 0 01-15.25 53.422H97.612a107.6 107.6 0 01-15.25-53.422zm-28.832 61.64H201.47a12.329 12.329 0 0112.328 12.328v82.188H41.203v-82.188a12.329 12.329 0 0112.328-12.328zM8.328 230.234a45.27 45.27 0 0124.656-40.243v56.681H8.328v-16.438zm238.344 16.438h-24.656v-56.681a45.276 45.276 0 0124.656 40.243v16.438z" fill="#E53935"/></svg>