<svg width="50" height="50" fill="none" xmlns="http://www.w3.org/2000/svg"><circle cx="25" cy="25" r="25" fill="#fff"/><path d="M39.62 24.53c-3.37-6.23-9.28-10-15.82-10-6.54 0-12.46 3.77-15.8 10l-.28.47.26.48c3.37 6.23 9.28 10 15.82 10 6.54 0 12.46-3.72 15.82-10l.26-.48-.26-.47zm-15.82 8.9C18.17 33.43 13 30.29 10 25c3-5.29 8.17-8.43 13.8-8.43 5.63 0 10.74 3.15 13.79 8.43-3.05 5.29-8.17 8.43-13.79 8.43z" fill="#E53935"/><path d="M24.09 18.17a6.86 6.86 0 10.1 13.72 6.86 6.86 0 00-.1-13.72zm0 11.72A4.86 4.86 0 1129 25a4.869 4.869 0 01-4.91 4.89z" fill="#E53935"/></svg>